ply
format ascii 1.0
comment Created by Open3D
element vertex 135
property double x
property double y
property double z
property double nx
property double ny
property double nz
element face 72
property list uchar uint vertex_indices
end_header
-51780 -3538.73 3.457 0 0 -1
-51777 -3533.38 3.457 0 0 -1
-51775.5 -3534.21 3.457 0 0 -1
-51772.5 -3528.97 3.457 0 0 -1
-51773.9 -3528.19 3.457 0 0 -1
-51771 -3522.84 3.457 0 0 -1
-51769.4 -3523.68 3.457 0 0 -1
-51769.3 -3523.43 3.457 0 0 -1
-51754 -3532.25 3.457 0 0 -1
-51772 -3563.4 3.457 0 0 -1
-51788.9 -3592.6 3.457 0 0 -1
-51809.1 -3580.92 3.457 0 0 -1
-51792.3 -3551.72 3.457 0 0 -1
-51787.3 -3554.58 3.457 0 0 -1
-51784.5 -3549.7 3.457 0 0 -1
-51785.9 -3548.9 3.457 0 0 -1
-51783 -3543.55 3.457 0 0 -1
-51781.4 -3544.42 3.457 0 0 -1
-51778.6 -3539.5 3.457 0 0 -1
-51780 -3538.73 3.457 0 0 0
-51780 -3538.73 3.457 -0.876318 0.481733 0
-51780 -3538.73 19.469 -0.876318 0.481733 0
-51777 -3533.38 19.469 -0.876318 0.481733 0
-51777 -3533.38 3.457 -0.876318 0.481733 0
-51780 -3538.73 3.457 0 0 0
-51777 -3533.38 3.457 0.481583 0.8764 0
-51777 -3533.38 19.469 0.481583 0.8764 0
-51775.5 -3534.21 19.469 0.481583 0.8764 0
-51775.5 -3534.21 3.457 0.481583 0.8764 0
-51777 -3533.38 3.457 0 0 0
-51775.5 -3534.21 3.457 -0.865746 0.500483 0
-51775.5 -3534.21 19.469 -0.865746 0.500483 0
-51772.5 -3528.97 19.469 -0.865746 0.500483 0
-51772.5 -3528.97 3.457 -0.865746 0.500483 0
-51775.5 -3534.21 3.457 0 0 0
-51772.5 -3528.97 3.457 -0.481421 -0.876489 0
-51772.5 -3528.97 19.469 -0.481421 -0.876489 0
-51773.9 -3528.19 19.469 -0.481421 -0.876489 0
-51773.9 -3528.19 3.457 -0.481421 -0.876489 0
-51772.5 -3528.97 3.457 0 0 0
-51773.9 -3528.19 3.457 -0.87635 0.481675 0
-51773.9 -3528.19 19.469 -0.87635 0.481675 0
-51771 -3522.84 19.469 -0.87635 0.481675 0
-51771 -3522.84 3.457 -0.87635 0.481675 0
-51773.9 -3528.19 3.457 0 0 0
-51771 -3522.84 3.457 0.481695 0.876339 0
-51771 -3522.84 19.469 0.481695 0.876339 0
-51769.4 -3523.68 19.469 0.481695 0.876339 0
-51769.4 -3523.68 3.457 0.481695 0.876339 0
-51771 -3522.84 3.457 0 0 0
-51769.4 -3523.68 3.457 -0.864576 0.502503 0
-51769.4 -3523.68 19.469 -0.864576 0.502503 0
-51769.3 -3523.43 19.469 -0.864576 0.502503 0
-51769.3 -3523.43 3.457 -0.864576 0.502503 0
-51769.4 -3523.68 3.457 0 0 0
-51769.3 -3523.43 3.457 0.500351 0.865822 0
-51769.3 -3523.43 19.469 0.500351 0.865822 0
-51754 -3532.25 19.469 0.500351 0.865822 0
-51754 -3532.25 3.457 0.500351 0.865822 0
-51769.3 -3523.43 3.457 0 0 0
-51754 -3532.25 3.457 0.865754 -0.50047 0
-51754 -3532.25 19.469 0.865754 -0.50047 0
-51772 -3563.4 19.469 0.865754 -0.50047 0
-51772 -3563.4 3.457 0.865754 -0.50047 0
-51754 -3532.25 3.457 0 0 0
-51772 -3563.4 3.457 0.865739 -0.500497 0
-51772 -3563.4 19.469 0.865739 -0.500497 0
-51788.9 -3592.6 19.469 0.865739 -0.500497 0
-51788.9 -3592.6 3.457 0.865739 -0.500497 0
-51772 -3563.4 3.457 0 0 0
-51788.9 -3592.6 3.457 -0.500381 -0.865805 0
-51788.9 -3592.6 19.469 -0.500381 -0.865805 0
-51809.1 -3580.92 19.469 -0.500381 -0.865805 0
-51809.1 -3580.92 3.457 -0.500381 -0.865805 0
-51788.9 -3592.6 3.457 0 0 0
-51809.1 -3580.92 3.457 -0.865733 0.500506 0
-51809.1 -3580.92 19.469 -0.865733 0.500506 0
-51792.3 -3551.72 19.469 -0.865733 0.500506 0
-51792.3 -3551.72 3.457 -0.865733 0.500506 0
-51809.1 -3580.92 3.457 0 0 0
-51792.3 -3551.72 3.457 0.500332 0.865834 0
-51792.3 -3551.72 19.469 0.500332 0.865834 0
-51787.3 -3554.58 19.469 0.500332 0.865834 0
-51787.3 -3554.58 3.457 0.500332 0.865834 0
-51792.3 -3551.72 3.457 0 0 0
-51787.3 -3554.58 3.457 -0.865747 0.500481 0
-51787.3 -3554.58 19.469 -0.865747 0.500481 0
-51784.5 -3549.7 19.469 -0.865747 0.500481 0
-51784.5 -3549.7 3.457 -0.865747 0.500481 0
-51787.3 -3554.58 3.457 0 0 0
-51784.5 -3549.7 3.457 -0.481536 -0.876426 0
-51784.5 -3549.7 19.469 -0.481536 -0.876426 0
-51785.9 -3548.9 19.469 -0.481536 -0.876426 0
-51785.9 -3548.9 3.457 -0.481536 -0.876426 0
-51784.5 -3549.7 3.457 0 0 0
-51785.9 -3548.9 3.457 -0.876308 0.481751 0
-51785.9 -3548.9 19.469 -0.876308 0.481751 0
-51783 -3543.55 19.469 -0.876308 0.481751 0
-51783 -3543.55 3.457 -0.876308 0.481751 0
-51785.9 -3548.9 3.457 0 0 0
-51783 -3543.55 3.457 0.48141 0.876496 0
-51783 -3543.55 19.469 0.48141 0.876496 0
-51781.4 -3544.42 19.469 0.48141 0.876496 0
-51781.4 -3544.42 3.457 0.48141 0.876496 0
-51783 -3543.55 3.457 0 0 0
-51781.4 -3544.42 3.457 -0.865748 0.50048 0
-51781.4 -3544.42 19.469 -0.865748 0.50048 0
-51778.6 -3539.5 19.469 -0.865748 0.50048 0
-51778.6 -3539.5 3.457 -0.865748 0.50048 0
-51781.4 -3544.42 3.457 0 0 0
-51778.6 -3539.5 3.457 -0.482027 -0.876156 0
-51778.6 -3539.5 19.469 -0.482027 -0.876156 0
-51780 -3538.73 19.469 -0.482027 -0.876156 0
-51780 -3538.73 3.457 -0.482027 -0.876156 0
-51778.6 -3539.5 3.457 0 0 0
-51780 -3538.73 19.469 0 0 1
-51778.6 -3539.5 19.469 0 0 1
-51781.4 -3544.42 19.469 0 0 1
-51783 -3543.55 19.469 0 0 1
-51785.9 -3548.9 19.469 0 0 1
-51784.5 -3549.7 19.469 0 0 1
-51787.3 -3554.58 19.469 0 0 1
-51792.3 -3551.72 19.469 0 0 1
-51809.1 -3580.92 19.469 0 0 1
-51788.9 -3592.6 19.469 0 0 1
-51772 -3563.4 19.469 0 0 1
-51754 -3532.25 19.469 0 0 1
-51769.3 -3523.43 19.469 0 0 1
-51769.4 -3523.68 19.469 0 0 1
-51771 -3522.84 19.469 0 0 1
-51773.9 -3528.19 19.469 0 0 1
-51772.5 -3528.97 19.469 0 0 1
-51775.5 -3534.21 19.469 0 0 1
-51777 -3533.38 19.469 0 0 1
-51780 -3538.73 19.469 0 0 0
3 18 0 1
3 3 4 5
3 6 7 8
3 9 10 11
3 11 12 13
3 14 15 16
3 18 1 2
3 3 5 6
3 6 8 9
3 9 11 13
3 14 16 17
3 17 18 2
3 2 3 6
3 9 13 14
3 2 6 9
3 9 14 17
3 17 2 9
3 23 20 21
3 21 22 23
3 28 25 26
3 26 27 28
3 33 30 31
3 31 32 33
3 38 35 36
3 36 37 38
3 43 40 41
3 41 42 43
3 48 45 46
3 46 47 48
3 53 50 51
3 51 52 53
3 58 55 56
3 56 57 58
3 63 60 61
3 61 62 63
3 68 65 66
3 66 67 68
3 73 70 71
3 71 72 73
3 78 75 76
3 76 77 78
3 83 80 81
3 81 82 83
3 88 85 86
3 86 87 88
3 93 90 91
3 91 92 93
3 98 95 96
3 96 97 98
3 103 100 101
3 101 102 103
3 108 105 106
3 106 107 108
3 113 110 111
3 111 112 113
3 133 115 116
3 117 118 119
3 121 122 123
3 123 124 125
3 125 126 127
3 128 129 130
3 132 133 116
3 117 119 120
3 121 123 125
3 125 127 128
3 128 130 131
3 132 116 117
3 117 120 121
3 125 128 131
3 132 117 121
3 125 131 132
3 132 121 125
