ply
format ascii 1.0
comment Created by Open3D
element vertex 105
property double x
property double y
property double z
property double nx
property double ny
property double nz
element face 47
property list uchar uint vertex_indices
end_header
-51799.3 -3353.58 3.66411 -0.000108772 8.73494e-05 -1
-51800.9 -3352.63 3.66437 -0.000109192 8.74705e-05 -1
-51797.2 -3346.27 3.66452 -0.000109008 8.73121e-05 -1
-51795.5 -3347.22 3.66426 -0.000108904 8.73266e-05 -1
-51795.1 -3346.5 3.66427 -0.000108475 8.78049e-05 -1
-51791.8 -3348.43 3.66375 -0.000108475 8.78052e-05 -1
-51792.2 -3349.15 3.66373 -0.000108602 8.71675e-05 -1
-51790.6 -3350.12 3.66347 -0.000108416 8.70186e-05 -1
-51794.3 -3356.48 3.66332 -0.000108416 8.70186e-05 -1
-51796 -3355.51 3.66358 -0.000108893 8.72162e-05 -1
-51796.5 -3356.42 3.66356 -0.00010914 8.6674e-05 -1
-51799.8 -3354.49 3.66409 -0.000108837 8.71959e-05 -1
-51799.3 -3353.58 3.66411 0 0 0
-51792.2 -3349.15 6.73173 0.000108475 -8.78056e-05 1
-51791.8 -3348.43 6.73175 0.000108475 -8.78052e-05 1
-51795.1 -3346.5 6.73227 0.000108475 -8.78049e-05 1
-51795.5 -3347.22 6.73226 0.000108475 -8.78052e-05 1
-51792.2 -3349.15 6.73173 0 0 0
-51799.3 -3353.58 6.73211 0.000109137 -8.66837e-05 1
-51799.8 -3354.49 6.73209 0.000109138 -8.66788e-05 1
-51796.5 -3356.42 6.73156 0.00010914 -8.6674e-05 1
-51796 -3355.51 6.73158 0.000109138 -8.66788e-05 1
-51799.3 -3353.58 6.73211 0 0 0
-51797.2 -3346.27 7.33752 -0.137249 0.0803918 0.987269
-51800.9 -3352.63 7.33737 -0.137249 0.0803918 0.987269
-51797.6 -3354.54 7.94685 -0.137249 0.0803918 0.987269
-51797.2 -3346.27 7.33752 0 0 0
-51793.9 -3348.17 7.947 -0.138062 0.080429 0.987152
-51797.2 -3346.27 7.33752 -0.138062 0.080429 0.987152
-51797.6 -3354.54 7.94685 -0.138062 0.080429 0.987152
-51793.9 -3348.17 7.947 0 0 0
-51797.6 -3354.54 7.94685 0.13568 -0.0790875 0.987591
-51794.3 -3356.49 7.33632 0.13568 -0.0790875 0.987591
-51793.9 -3348.17 7.947 0.13568 -0.0790875 0.987591
-51797.6 -3354.54 7.94685 0 0 0
-51794.3 -3356.49 7.33632 0.134889 -0.0790575 0.987702
-51790.6 -3350.12 7.33647 0.134889 -0.0790575 0.987702
-51793.9 -3348.17 7.947 0.134889 -0.0790575 0.987702
-51794.3 -3356.49 7.33632 0 0 0
-51792.2 -3349.15 3.66373 0.862749 -0.505632 -0.000137656
-51791.8 -3348.43 3.66375 0.862749 -0.505632 -0.000137656
-51791.8 -3348.43 6.73175 0.862749 -0.505632 -0.000137656
-51792.2 -3349.15 6.73173 0.862749 -0.505632 -0.000137656
-51792.2 -3349.15 3.66373 0 0 0
-51791.8 -3348.43 6.73175 0.50556 0.862792 2.09709e-05
-51791.8 -3348.43 3.66375 0.50556 0.862792 2.09718e-05
-51795.1 -3346.5 3.66427 0.50556 0.862792 2.09727e-05
-51795.1 -3346.5 6.73227 0.50556 0.862792 2.09718e-05
-51791.8 -3348.43 6.73175 0 0 0
-51795.5 -3347.22 6.73226 0 0 0
-51795.1 -3346.5 6.73227 -0.862747 0.505637 0.000138253
-51795.1 -3346.5 3.66427 -0.862747 0.505637 0.000138253
-51795.5 -3347.22 3.66426 -0.862747 0.505637 0.000138253
-51795.5 -3347.22 6.73226 0 0 0
-51799.8 -3354.49 6.73209 -0.505283 -0.862954 -1.95626e-05
-51799.8 -3354.49 3.66409 -0.505283 -0.862954 -1.95625e-05
-51796.5 -3356.42 3.66356 -0.505283 -0.862954 -1.95624e-05
-51796.5 -3356.42 6.73156 -0.505283 -0.862954 -1.95625e-05
-51799.8 -3354.49 6.73209 0 0 0
-51796 -3355.51 6.73158 0.862749 -0.505632 -0.000137658
-51796.5 -3356.42 6.73156 0.862749 -0.505632 -0.000137658
-51796.5 -3356.42 3.66356 0.862749 -0.505632 -0.000137659
-51796 -3355.51 3.66358 0.862749 -0.505632 -0.000137658
-51796 -3355.51 6.73158 0 0 0
-51799.3 -3353.58 3.66411 -0.862747 0.505637 0.000138259
-51799.8 -3354.49 3.66409 -0.862747 0.505637 0.000138259
-51799.8 -3354.49 6.73209 -0.862747 0.505637 0.000138259
-51799.3 -3353.58 6.73211 -0.862747 0.505637 0.000138259
-51799.3 -3353.58 3.66411 0 0 0
-51790.6 -3350.12 7.33647 0.505547 0.862799 2.08442e-05
-51790.6 -3350.12 3.66347 0.505547 0.862799 2.08463e-05
-51792.2 -3349.15 3.66373 0.505547 0.862799 2.08454e-05
-51792.2 -3349.15 6.73173 0.505547 0.862799 2.0842e-05
-51795.5 -3347.22 6.73226 0.505547 0.862799 2.08426e-05
-51795.5 -3347.22 3.66426 0.505547 0.862799 2.08441e-05
-51797.2 -3346.27 3.66452 0.505547 0.862799 2.08434e-05
-51797.2 -3346.27 7.33752 0.505547 0.862799 2.08414e-05
-51790.6 -3350.12 7.33647 0 0 0
-51796 -3355.51 6.73158 -0.505291 -0.862949 -1.97261e-05
-51796 -3355.51 3.66358 -0.505291 -0.862949 -1.97278e-05
-51794.3 -3356.48 3.66332 -0.505291 -0.862949 -1.97278e-05
-51794.3 -3356.49 7.33632 -0.505291 -0.862949 -1.9725e-05
-51800.9 -3352.63 7.33737 -0.505291 -0.862949 -1.97265e-05
-51800.9 -3352.63 3.66437 -0.505291 -0.862949 -1.97266e-05
-51799.3 -3353.58 3.66411 -0.505291 -0.862949 -1.9727e-05
-51799.3 -3353.58 6.73211 -0.505291 -0.862949 -1.97246e-05
-51796 -3355.51 6.73158 0 0 0
-51793.9 -3348.17 7.947 0.505546 0.862798 0.001899
-51790.6 -3350.12 7.33647 0.505546 0.862798 0.001899
-51797.2 -3346.27 7.33752 0.505546 0.862798 0.001899
-51793.9 -3348.17 7.947 0 0 0
-51797.6 -3354.54 7.94685 -0.505291 -0.862949 0.000477773
-51800.9 -3352.63 7.33737 -0.505291 -0.862949 0.000477773
-51794.3 -3356.49 7.33632 -0.505291 -0.862949 0.000477773
-51797.6 -3354.54 7.94685 0 0 0
-51794.3 -3356.49 7.33632 0.862805 -0.505537 -0.000137355
-51794.3 -3356.48 3.66332 0.862805 -0.505537 -0.000137354
-51790.6 -3350.12 3.66347 0.862805 -0.505537 -0.000137353
-51790.6 -3350.12 7.33647 0.862805 -0.505537 -0.000137354
-51794.3 -3356.49 7.33632 0 0 0
-51797.2 -3346.27 7.33752 -0.862811 0.505526 0.000138549
-51797.2 -3346.27 3.66452 -0.862811 0.505526 0.000138551
-51800.9 -3352.63 3.66437 -0.862811 0.505526 0.000138553
-51800.9 -3352.63 7.33737 -0.862811 0.505526 0.000138551
-51797.2 -3346.27 7.33752 0 0 0
3 0 1 2
3 3 4 5
3 6 7 8
3 9 10 11
3 11 0 2
3 3 5 6
3 6 8 9
3 9 11 2
3 3 6 9
3 9 2 3
3 16 13 14
3 14 15 16
3 21 18 19
3 19 20 21
3 25 23 24
3 29 27 28
3 33 31 32
3 37 35 36
3 42 39 40
3 40 41 42
3 47 44 45
3 45 46 47
3 51 52 50
3 57 54 55
3 55 56 57
3 62 59 60
3 60 61 62
3 67 64 65
3 65 66 67
3 69 70 71
3 73 74 75
3 69 71 72
3 73 75 76
3 76 69 72
3 72 73 76
3 78 79 80
3 82 83 84
3 78 80 81
3 82 84 85
3 85 78 81
3 81 82 85
3 89 87 88
3 93 91 92
3 98 95 96
3 96 97 98
3 103 100 101
3 101 102 103
