ply
format ascii 1.0
comment Created by Open3D
element vertex 20
property double x
property double y
property double z
property double nx
property double ny
property double nz
element face 17
property list uchar uint vertex_indices
end_header
-51780 -3538.73 19.469 0 0 1
-51778.6 -3539.5 19.469 0 0 1
-51781.4 -3544.42 19.469 0 0 1
-51783 -3543.55 19.469 0 0 1
-51785.9 -3548.9 19.469 0 0 1
-51784.5 -3549.7 19.469 0 0 1
-51787.3 -3554.58 19.469 0 0 1
-51792.3 -3551.72 19.469 0 0 1
-51809.1 -3580.92 19.469 0 0 1
-51788.9 -3592.6 19.469 0 0 1
-51772 -3563.4 19.469 0 0 1
-51754 -3532.25 19.469 0 0 1
-51769.3 -3523.43 19.469 0 0 1
-51769.4 -3523.68 19.469 0 0 1
-51771 -3522.84 19.469 0 0 1
-51773.9 -3528.19 19.469 0 0 1
-51772.5 -3528.97 19.469 0 0 1
-51775.5 -3534.21 19.469 0 0 1
-51777 -3533.38 19.469 0 0 1
-51780 -3538.73 19.469 0 0 0
3 18 0 1
3 2 3 4
3 6 7 8
3 8 9 10
3 10 11 12
3 13 14 15
3 17 18 1
3 2 4 5
3 6 8 10
3 10 12 13
3 13 15 16
3 17 1 2
3 2 5 6
3 10 13 16
3 17 2 6
3 10 16 17
3 17 6 10
