ply
format ascii 1.0
comment Created by Open3D
element vertex 174
property double x
property double y
property double z
property double nx
property double ny
property double nz
element face 95
property list uchar uint vertex_indices
end_header
-51781.5 -3407.41 3.168 0 0 -1
-51766.5 -3407.08 3.168 0 0 -1
-51765.5 -3451.19 3.168 0 0 -1
-51781 -3451.53 3.168 0 0 -1
-51781 -3451.76 3.168 0 0 -1
-51783 -3453.15 3.168 0 0 -1
-51785.7 -3453.63 3.168 0 0 -1
-51788.3 -3453.31 3.168 0 0 -1
-51790.7 -3452.27 3.168 0 0 -1
-51792.5 -3453.53 3.168 0 0 -1
-51795.2 -3454.01 3.168 0 0 -1
-51797.8 -3453.69 3.168 0 0 -1
-51800.2 -3452.55 3.168 0 0 -1
-51800.2 -3451.95 3.168 0 0 -1
-51812.8 -3452.23 3.168 0 0 -1
-51813.7 -3408.12 3.168 0 0 -1
-51800.6 -3407.83 3.168 0 0 -1
-51800.6 -3406.88 3.168 0 0 -1
-51799 -3405.71 3.168 0 0 -1
-51796.5 -3405.17 3.168 0 0 -1
-51793.3 -3405.51 3.168 0 0 -1
-51791.3 -3406.67 3.168 0 0 -1
-51788.8 -3405.54 3.168 0 0 -1
-51786.1 -3405.21 3.168 0 0 -1
-51783.7 -3405.45 3.168 0 0 -1
-51781.5 -3406.54 3.168 0 0 -1
-51781.5 -3407.41 3.168 0 0 0
-51781.5 -3407.41 3.168 -0.0219422 0.999759 0
-51781.5 -3407.41 10.383 -0.0219422 0.999759 0
-51766.5 -3407.08 10.383 -0.0219422 0.999759 0
-51766.5 -3407.08 3.168 -0.0219422 0.999759 0
-51781.5 -3407.41 3.168 0 0 0
-51766.5 -3407.08 3.168 0.999759 0.0219336 0
-51766.5 -3407.08 10.383 0.999759 0.0219336 0
-51765.5 -3451.19 10.383 0.999759 0.0219336 0
-51765.5 -3451.19 3.168 0.999759 0.0219336 0
-51766.5 -3407.08 3.168 0 0 0
-51765.5 -3451.19 3.168 0.0219902 -0.999758 0
-51765.5 -3451.19 10.383 0.0219902 -0.999758 0
-51781 -3451.53 10.383 0.0219902 -0.999758 0
-51781 -3451.53 3.168 0.0219902 -0.999758 0
-51765.5 -3451.19 3.168 0 0 0
-51781 -3451.76 3.168 0.585658 -0.810558 0
-51781 -3451.76 10.383 0.585658 -0.810558 0
-51783 -3453.15 10.383 0.585658 -0.810558 0
-51783 -3453.15 3.168 0.585658 -0.810558 0
-51781 -3451.76 3.168 0 0 0
-51783 -3453.15 3.168 0.172385 -0.98503 0
-51783 -3453.15 10.383 0.172385 -0.98503 0
-51785.7 -3453.63 10.383 0.172385 -0.98503 0
-51785.7 -3453.63 3.168 0.172385 -0.98503 0
-51783 -3453.15 3.168 0 0 0
-51785.7 -3453.63 3.168 -0.121514 -0.99259 0
-51785.7 -3453.63 10.383 -0.121514 -0.99259 0
-51788.3 -3453.31 10.383 -0.121514 -0.99259 0
-51788.3 -3453.31 3.168 -0.121514 -0.99259 0
-51785.7 -3453.63 3.168 0 0 0
-51788.3 -3453.31 3.168 -0.40456 -0.914512 0
-51788.3 -3453.31 10.383 -0.40456 -0.914512 0
-51790.7 -3452.27 10.383 -0.40456 -0.914512 0
-51790.7 -3452.27 3.168 -0.40456 -0.914512 0
-51788.3 -3453.31 3.168 0 0 0
-51790.7 -3452.27 3.168 0.562055 -0.8271 0
-51790.7 -3452.27 10.383 0.562055 -0.8271 0
-51792.5 -3453.53 10.383 0.562055 -0.8271 0
-51792.5 -3453.53 3.168 0.562055 -0.8271 0
-51790.7 -3452.27 3.168 0 0 0
-51792.5 -3453.53 3.168 0.175471 -0.984485 0
-51792.5 -3453.53 10.383 0.175471 -0.984485 0
-51795.2 -3454.01 10.383 0.175471 -0.984485 0
-51795.2 -3454.01 3.168 0.175471 -0.984485 0
-51792.5 -3453.53 3.168 0 0 0
-51795.2 -3454.01 3.168 -0.122034 -0.992526 0
-51795.2 -3454.01 10.383 -0.122034 -0.992526 0
-51797.8 -3453.69 10.383 -0.122034 -0.992526 0
-51797.8 -3453.69 3.168 -0.122034 -0.992526 0
-51795.2 -3454.01 3.168 0 0 0
-51797.8 -3453.69 3.168 -0.438879 -0.898546 0
-51797.8 -3453.69 10.383 -0.438879 -0.898546 0
-51800.2 -3452.55 10.383 -0.438879 -0.898546 0
-51800.2 -3452.55 3.168 -0.438879 -0.898546 0
-51797.8 -3453.69 3.168 0 0 0
-51800.2 -3451.95 3.168 0.0219744 -0.999759 0
-51800.2 -3451.95 10.383 0.0219744 -0.999759 0
-51812.8 -3452.23 10.383 0.0219744 -0.999759 0
-51812.8 -3452.23 3.168 0.0219744 -0.999759 0
-51800.2 -3451.95 3.168 0 0 0
-51812.8 -3452.23 3.168 -0.999761 -0.0218627 0
-51812.8 -3452.23 10.383 -0.999761 -0.0218627 0
-51813.7 -3408.12 10.383 -0.999761 -0.0218627 0
-51813.7 -3408.12 3.168 -0.999761 -0.0218627 0
-51812.8 -3452.23 3.168 0 0 0
-51813.7 -3408.12 3.168 -0.0219611 0.999759 0
-51813.7 -3408.12 10.383 -0.0219611 0.999759 0
-51800.6 -3407.83 10.383 -0.0219611 0.999759 0
-51800.6 -3407.83 3.168 -0.0219611 0.999759 0
-51813.7 -3408.12 3.168 0 0 0
-51800.6 -3407.83 3.168 0 0 0
-51800.6 -3407.83 10.383 -0.998851 -0.047922 0
-51800.6 -3406.88 10.383 -0.998851 -0.047922 0
-51800.6 -3406.88 3.168 -0.998851 -0.047922 0
-51800.6 -3407.83 3.168 0 0 0
-51800.6 -3406.88 3.168 -0.576886 0.816825 0
-51800.6 -3406.88 10.383 -0.576886 0.816825 0
-51799 -3405.71 10.383 -0.576886 0.816825 0
-51799 -3405.71 3.168 -0.576886 0.816825 0
-51800.6 -3406.88 3.168 0 0 0
-51799 -3405.71 3.168 -0.210711 0.977548 0
-51799 -3405.71 10.383 -0.210711 0.977548 0
-51796.5 -3405.17 10.383 -0.210711 0.977548 0
-51796.5 -3405.17 3.168 -0.210711 0.977548 0
-51799 -3405.71 3.168 0 0 0
-51796.5 -3405.17 3.168 0.104812 0.994492 0
-51796.5 -3405.17 10.383 0.104812 0.994492 0
-51793.3 -3405.51 10.383 0.104812 0.994492 0
-51793.3 -3405.51 3.168 0.104812 0.994492 0
-51796.5 -3405.17 3.168 0 0 0
-51793.3 -3405.51 3.168 0.50823 0.861222 0
-51793.3 -3405.51 10.383 0.50823 0.861222 0
-51791.3 -3406.67 10.383 0.50823 0.861222 0
-51791.3 -3406.67 3.168 0.50823 0.861222 0
-51793.3 -3405.51 3.168 0 0 0
-51791.3 -3406.67 3.168 -0.4115 0.91141 0
-51791.3 -3406.67 10.383 -0.4115 0.91141 0
-51788.8 -3405.54 10.383 -0.4115 0.91141 0
-51788.8 -3405.54 3.168 -0.4115 0.91141 0
-51791.3 -3406.67 3.168 0 0 0
-51788.8 -3405.54 3.168 -0.122136 0.992513 0
-51788.8 -3405.54 10.383 -0.122136 0.992513 0
-51786.1 -3405.21 10.383 -0.122136 0.992513 0
-51786.1 -3405.21 3.168 -0.122136 0.992513 0
-51788.8 -3405.54 3.168 0 0 0
-51786.1 -3405.21 3.168 0.095195 0.995459 0
-51786.1 -3405.21 10.383 0.095195 0.995459 0
-51783.7 -3405.45 10.383 0.095195 0.995459 0
-51783.7 -3405.45 3.168 0.095195 0.995459 0
-51786.1 -3405.21 3.168 0 0 0
-51783.7 -3405.45 3.168 0.449065 0.893499 0
-51783.7 -3405.45 10.383 0.449065 0.893499 0
-51781.5 -3406.54 10.383 0.449065 0.893499 0
-51781.5 -3406.54 3.168 0.449065 0.893499 0
-51783.7 -3405.45 3.168 0 0 0
-51781.5 -3406.54 3.168 0.998821 0.0485466 0
-51781.5 -3406.54 10.383 0.998821 0.0485466 0
-51781.5 -3407.41 10.383 0.998821 0.0485466 0
-51781.5 -3407.41 3.168 0.998821 0.0485466 0
-51781.5 -3406.54 3.168 0 0 0
-51781.5 -3407.41 10.383 0 0 1
-51781.5 -3406.54 10.383 0 0 1
-51783.7 -3405.45 10.383 0 0 1
-51786.1 -3405.21 10.383 0 0 1
-51788.8 -3405.54 10.383 0 0 1
-51791.3 -3406.67 10.383 0 0 1
-51793.3 -3405.51 10.383 0 0 1
-51796.5 -3405.17 10.383 0 0 1
-51799 -3405.71 10.383 0 0 1
-51800.6 -3406.88 10.383 0 0 1
-51800.6 -3407.83 10.383 0 0 1
-51813.7 -3408.12 10.383 0 0 1
-51812.8 -3452.23 10.383 0 0 1
-51800.2 -3451.95 10.383 0 0 1
-51800.2 -3452.55 10.383 0 0 1
-51797.8 -3453.69 10.383 0 0 1
-51795.2 -3454.01 10.383 0 0 1
-51792.5 -3453.53 10.383 0 0 1
-51790.7 -3452.27 10.383 0 0 1
-51788.3 -3453.31 10.383 0 0 1
-51785.7 -3453.63 10.383 0 0 1
-51783 -3453.15 10.383 0 0 1
-51781 -3451.76 10.383 0 0 1
-51781 -3451.53 10.383 0 0 1
-51765.5 -3451.19 10.383 0 0 1
-51766.5 -3407.08 10.383 0 0 1
-51781.5 -3407.41 10.383 0 0 0
3 0 1 2
3 3 4 5
3 5 6 7
3 8 9 10
3 11 12 13
3 13 14 15
3 16 17 18
3 19 20 21
3 21 22 23
3 23 24 25
3 0 2 3
3 3 5 7
3 8 10 11
3 11 13 15
3 16 18 19
3 21 23 25
3 0 3 7
3 8 11 15
3 16 19 21
3 21 25 0
3 0 7 8
3 8 15 16
3 16 21 0
3 0 8 16
3 30 27 28
3 28 29 30
3 35 32 33
3 33 34 35
3 40 37 38
3 38 39 40
3 45 42 43
3 43 44 45
3 50 47 48
3 48 49 50
3 55 52 53
3 53 54 55
3 60 57 58
3 58 59 60
3 65 62 63
3 63 64 65
3 70 67 68
3 68 69 70
3 75 72 73
3 73 74 75
3 80 77 78
3 78 79 80
3 85 82 83
3 83 84 85
3 90 87 88
3 88 89 90
3 95 92 93
3 93 94 95
3 99 100 98
3 105 102 103
3 103 104 105
3 110 107 108
3 108 109 110
3 115 112 113
3 113 114 115
3 120 117 118
3 118 119 120
3 125 122 123
3 123 124 125
3 130 127 128
3 128 129 130
3 135 132 133
3 133 134 135
3 140 137 138
3 138 139 140
3 145 142 143
3 143 144 145
3 147 148 149
3 150 151 152
3 152 153 154
3 154 155 156
3 157 158 159
3 160 161 162
3 162 163 164
3 166 167 168
3 168 169 170
3 170 171 172
3 147 149 150
3 152 154 156
3 157 159 160
3 160 162 164
3 165 166 168
3 168 170 172
3 147 150 152
3 152 156 157
3 157 160 164
3 165 168 172
3 147 152 157
3 157 164 165
3 165 172 147
3 147 157 165
