ply
format ascii 1.0
comment Created by Open3D
element vertex 18
property double x
property double y
property double z
property double nx
property double ny
property double nz
element face 7
property list uchar uint vertex_indices
end_header
-51834.9 -3496.39 17.164 0 0 0
-51835.1 -3496.44 17.164 0 0 0
-51835.5 -3496.3 17.164 0 0 1
-51841.1 -3511.81 17.164 0 0 0
-51840.7 -3511.95 17.164 0 0 1
-51837.4 -3513.13 17.164 0 0 1
-51826.3 -3517.04 17.164 0 0 0
-51825.8 -3517.48 17.164 0 0 0
-51825.5 -3517.48 17.164 0 0 0
-51825.5 -3517.33 17.164 0 0 0
-51825.5 -3517.34 17.164 0 0 1
-51819.8 -3501.83 17.164 0 0 1
-51822.5 -3500.87 17.164 0 0 1
-51822 -3499.57 17.164 0 0 1
-51826.5 -3497.75 17.164 0 0 1
-51827.1 -3499.27 17.164 0 0 1
-51834.7 -3496.57 17.164 0 0 0
-51834.9 -3496.39 17.164 0 0 0
3 12 13 14
3 12 14 15
3 11 12 15
3 5 10 11
3 11 15 2
3 2 4 5
3 5 11 2
