ply
format ascii 1.0
comment Created by Open3D
element vertex 27
property double x
property double y
property double z
property double nx
property double ny
property double nz
element face 24
property list uchar uint vertex_indices
end_header
-51781.5 -3407.41 10.383 0 0 1
-51781.5 -3406.54 10.383 0 0 1
-51783.7 -3405.45 10.383 0 0 1
-51786.1 -3405.21 10.383 0 0 1
-51788.8 -3405.54 10.383 0 0 1
-51791.3 -3406.67 10.383 0 0 1
-51793.3 -3405.51 10.383 0 0 1
-51796.5 -3405.17 10.383 0 0 1
-51799 -3405.71 10.383 0 0 1
-51800.6 -3406.88 10.383 0 0 1
-51800.6 -3407.83 10.383 0 0 1
-51813.7 -3408.12 10.383 0 0 1
-51812.8 -3452.23 10.383 0 0 1
-51800.2 -3451.95 10.383 0 0 1
-51800.2 -3452.55 10.383 0 0 1
-51797.8 -3453.69 10.383 0 0 1
-51795.2 -3454.01 10.383 0 0 1
-51792.5 -3453.53 10.383 0 0 1
-51790.7 -3452.27 10.383 0 0 1
-51788.3 -3453.31 10.383 0 0 1
-51785.7 -3453.63 10.383 0 0 1
-51783 -3453.15 10.383 0 0 1
-51781 -3451.76 10.383 0 0 1
-51781 -3451.53 10.383 0 0 1
-51765.5 -3451.19 10.383 0 0 1
-51766.5 -3407.08 10.383 0 0 1
-51781.5 -3407.41 10.383 0 0 0
3 0 1 2
3 3 4 5
3 5 6 7
3 7 8 9
3 10 11 12
3 13 14 15
3 15 16 17
3 19 20 21
3 21 22 23
3 23 24 25
3 0 2 3
3 5 7 9
3 10 12 13
3 13 15 17
3 18 19 21
3 21 23 25
3 0 3 5
3 5 9 10
3 10 13 17
3 18 21 25
3 0 5 10
3 10 17 18
3 18 25 0
3 0 10 18
