ply
format ascii 1.0
comment Created by Open3D
element vertex 97
property double x
property double y
property double z
property double nx
property double ny
property double nz
element face 46
property list uchar uint vertex_indices
end_header
-51814.4 -3638.58 3.268 0 0 -1
-51750.9 -3529.77 3.268 0 0 -1
-51748.8 -3531.03 3.268 0 0 1
-51745.6 -3532.9 3.268 0 0 -1
-51738.8 -3536.92 3.268 0 0 -1
-51716.9 -3549.79 3.268 0 0 -1
-51720.2 -3555.53 3.268 0 0 0
-51720.2 -3555.55 3.268 0 0 -1
-51732.2 -3576.16 3.268 0 0 1
-51738.9 -3587.59 3.268 0 0 -1
-51738.6 -3587.73 3.268 0 0 -1
-51769 -3639.75 3.268 0 0 -1
-51775.9 -3651.71 3.268 0 0 0
-51775.8 -3651.79 3.268 0 0 0
-51779.8 -3658.77 3.268 0 0 -1
-51814.4 -3638.58 3.268 0 0 0
-51814.4 -3638.58 3.268 -0.86382 0.503801 0
-51814.4 -3638.58 18.515 -0.86382 0.503801 0
-51750.9 -3529.77 18.515 -0.86382 0.503801 0
-51750.9 -3529.77 3.268 -0.86382 0.503801 0
-51814.4 -3638.58 3.268 0 0 0
-51750.9 -3529.77 3.268 0.507602 0.861592 0
-51750.9 -3529.77 18.515 0.507602 0.861592 0
-51748.8 -3531.03 18.515 0.507602 0.861592 0
-51748.8 -3531.03 3.268 0.507602 0.861592 0
-51750.9 -3529.77 3.268 0 0 0
-51748.8 -3531.03 3.268 0.507447 0.861683 0
-51748.8 -3531.03 18.515 0.507447 0.861683 0
-51745.6 -3532.9 18.515 0.507447 0.861683 0
-51745.6 -3532.9 3.268 0.507447 0.861683 0
-51748.8 -3531.03 3.268 0 0 0
-51745.6 -3532.9 3.268 0.50744 0.861687 0
-51745.6 -3532.9 18.515 0.50744 0.861687 0
-51738.8 -3536.92 18.515 0.50744 0.861687 0
-51738.8 -3536.92 3.268 0.50744 0.861687 0
-51745.6 -3532.9 3.268 0 0 0
-51738.8 -3536.92 3.268 0.507452 0.86168 0
-51738.8 -3536.92 18.515 0.507452 0.86168 0
-51716.9 -3549.79 18.515 0.507452 0.86168 0
-51716.9 -3549.79 3.268 0.507452 0.86168 0
-51738.8 -3536.92 3.268 0 0 0
-51716.9 -3549.79 3.268 0.866502 -0.499173 0
-51716.9 -3549.79 18.515 0.866502 -0.499173 0
-51720.2 -3555.53 18.515 0.866502 -0.499173 0
-51720.2 -3555.53 3.268 0.866502 -0.499173 0
-51716.9 -3549.79 3.268 0 0 0
-51720.2 -3555.55 3.268 0.863733 -0.50395 0
-51720.2 -3555.55 18.515 0.863733 -0.50395 0
-51732.2 -3576.16 18.515 0.863733 -0.50395 0
-51732.2 -3576.16 3.268 0.863733 -0.50395 0
-51720.2 -3555.55 3.268 0 0 0
-51732.2 -3576.16 3.268 0.863735 -0.503946 0
-51732.2 -3576.16 18.515 0.863735 -0.503946 0
-51738.9 -3587.59 18.515 0.863735 -0.503946 0
-51738.9 -3587.59 3.268 0.863735 -0.503946 0
-51732.2 -3576.16 3.268 0 0 0
-51738.9 -3587.59 3.268 0.505819 0.86264 0
-51738.9 -3587.59 18.515 0.505819 0.86264 0
-51738.6 -3587.73 18.515 0.505819 0.86264 0
-51738.6 -3587.73 3.268 0.505819 0.86264 0
-51738.9 -3587.59 3.268 0 0 0
-51738.6 -3587.73 3.268 0.863774 -0.50388 0
-51738.6 -3587.73 18.515 0.863774 -0.50388 0
-51769 -3639.75 18.515 0.863774 -0.50388 0
-51769 -3639.75 3.268 0.863774 -0.50388 0
-51738.6 -3587.73 3.268 0 0 0
-51769 -3639.75 3.268 0.863791 -0.50385 0
-51769 -3639.75 18.515 0.863791 -0.50385 0
-51775.9 -3651.71 18.515 0.863791 -0.50385 0
-51775.9 -3651.71 3.268 0.863791 -0.50385 0
-51769 -3639.75 3.268 0 0 0
-51775.8 -3651.79 3.268 0.8666 -0.499003 0
-51775.8 -3651.79 18.515 0.8666 -0.499003 0
-51779.8 -3658.77 18.515 0.8666 -0.499003 0
-51779.8 -3658.77 3.268 0.8666 -0.499003 0
-51775.8 -3651.79 3.268 0 0 0
-51779.8 -3658.77 3.268 -0.504472 -0.863428 0
-51779.8 -3658.77 18.515 -0.504472 -0.863428 0
-51814.4 -3638.58 18.515 -0.504472 -0.863428 0
-51814.4 -3638.58 3.268 -0.504472 -0.863428 0
-51779.8 -3658.77 3.268 0 0 0
-51814.4 -3638.58 18.515 0 0 1
-51779.8 -3658.77 18.515 0 0 1
-51775.8 -3651.79 18.515 0 0 0
-51775.9 -3651.71 18.515 0 0 0
-51769 -3639.75 18.515 0 0 1
-51738.6 -3587.73 18.515 0 0 1
-51738.9 -3587.59 18.515 0 0 1
-51732.2 -3576.16 18.515 0 0 1
-51720.2 -3555.55 18.515 0 0 0
-51720.2 -3555.53 18.515 0 0 1
-51716.9 -3549.79 18.515 0 0 1
-51738.8 -3536.92 18.515 0 0 -1
-51745.6 -3532.9 18.515 0 0 -1
-51748.8 -3531.03 18.515 0 0 -1
-51750.9 -3529.77 18.515 0 0 1
-51814.4 -3638.58 18.515 0 0 0
3 14 0 1
3 1 2 3
3 9 10 11
3 14 1 3
3 14 3 4
3 11 14 4
3 4 5 7
3 7 8 9
3 9 11 4
3 4 7 9
3 19 16 17
3 17 18 19
3 24 21 22
3 22 23 24
3 29 26 27
3 27 28 29
3 34 31 32
3 32 33 34
3 39 36 37
3 37 38 39
3 44 41 42
3 42 43 44
3 49 46 47
3 47 48 49
3 54 51 52
3 52 53 54
3 59 56 57
3 57 58 59
3 64 61 62
3 62 63 64
3 69 66 67
3 67 68 69
3 74 71 72
3 72 73 74
3 79 76 77
3 77 78 79
3 95 81 82
3 85 86 87
3 93 94 95
3 92 93 95
3 91 92 95
3 87 88 90
3 90 91 95
3 95 82 85
3 87 90 95
3 95 85 87
