ply
format ascii 1.0
comment Created by Open3D
element vertex 43
property double x
property double y
property double z
property double nx
property double ny
property double nz
element face 33
property list uchar uint vertex_indices
end_header
-51832.7 -3550.17 23.308 0 0 1
-51833.2 -3549.88 23.308 0 0 1
-51837.4 -3556.92 23.308 0 0 1
-51836.2 -3557.67 23.308 0 0 1
-51838.2 -3560.97 23.308 0 0 1
-51836.7 -3561.83 23.308 0 0 1
-51835.8 -3564.93 23.308 0 0 0
-51835.2 -3565.27 23.308 0 0 -1
-51835.3 -3565.47 23.308 0 0 1
-51820 -3574.68 23.308 0 0 1
-51818.1 -3571.47 23.308 0 0 0
-51818.2 -3571.38 23.308 0 0 1
-51817 -3569.38 23.308 0 0 1
-51811.7 -3572.58 23.308 0 0 1
-51811.4 -3572.83 23.308 0 0 1
-51807.8 -3574.92 23.308 0 0 0
-51807.6 -3574.61 23.308 0 0 1
-51807.4 -3574.25 23.308 0 0 1
-51807.4 -3574.2 23.308 0 0 1
-51810.7 -3572.26 23.308 0 0 1
-51811.1 -3571.93 23.308 0 0 0
-51810.9 -3571.62 23.308 0 0 0
-51810.8 -3571.44 23.308 0 0 1
-51808.3 -3572.97 23.308 0 0 1
-51806.9 -3570.73 23.308 0 0 1
-51805.9 -3571.34 23.308 0 0 1
-51805.2 -3570.18 23.308 0 0 1
-51806.2 -3569.57 23.308 0 0 1
-51805.3 -3568.1 23.308 0 0 1
-51807.4 -3566.86 23.308 0 0 1
-51806.2 -3565.25 23.308 0 0 1
-51807 -3565.04 23.308 0 0 0
-51806.6 -3564.41 23.308 0 0 1
-51816 -3558.79 23.308 0 0 1
-51816.6 -3559.75 23.308 0 0 1
-51819 -3558.29 23.308 0 0 1
-51818.4 -3557.28 23.308 0 0 1
-51823.6 -3554.08 23.308 0 0 1
-51824.2 -3555.17 23.308 0 0 0
-51824.5 -3555.02 23.308 0 0 1
-51822 -3550.72 23.308 0 0 1
-51830.3 -3545.99 23.308 0 0 1
-51832.7 -3550.17 23.308 0 0 0
3 0 1 2
3 3 4 5
3 17 18 19
3 24 25 26
3 27 28 29
3 35 36 37
3 40 41 0
3 0 2 3
3 24 26 27
3 40 0 3
3 24 27 29
3 40 3 5
3 23 24 29
3 22 23 29
3 29 30 32
3 32 33 34
3 35 37 39
3 39 40 5
3 5 7 8
3 8 9 11
3 13 14 16
3 16 17 19
3 22 29 32
3 32 34 35
3 35 39 5
3 5 8 11
3 13 16 19
3 22 32 35
3 35 5 11
3 12 13 19
3 35 11 12
3 12 19 22
3 22 35 12
