ply
format ascii 1.0
comment Created by Open3D
element vertex 271
property double x
property double y
property double z
property double nx
property double ny
property double nz
element face 135
property list uchar uint vertex_indices
end_header
-51832.7 -3550.17 3.476 0 0 -1
-51830.3 -3545.99 3.476 0 0 -1
-51822 -3550.72 3.476 0 0 -1
-51824.5 -3555.02 3.476 0 0 0
-51824.2 -3555.17 3.476 0 0 -1
-51823.6 -3554.08 3.476 0 0 -1
-51818.4 -3557.28 3.476 0 0 -1
-51819 -3558.29 3.476 0 0 -1
-51816.6 -3559.75 3.476 0 0 -1
-51816 -3558.79 3.476 0 0 -1
-51806.6 -3564.41 3.476 0 0 0
-51807 -3565.04 3.476 0 0 -1
-51806.2 -3565.25 3.476 0 0 -1
-51807.4 -3566.86 3.476 0 0 -1
-51805.3 -3568.1 3.476 0 0 -1
-51806.2 -3569.57 3.476 0 0 -1
-51805.2 -3570.18 3.476 0 0 -1
-51805.9 -3571.34 3.476 0 0 -1
-51806.9 -3570.73 3.476 0 0 -1
-51808.3 -3572.97 3.476 0 0 -1
-51810.8 -3571.44 3.476 0 0 0
-51810.9 -3571.62 3.476 0 0 0
-51811.1 -3571.93 3.476 0 0 -1
-51810.7 -3572.26 3.476 0 0 -1
-51807.4 -3574.2 3.476 0 0 -1
-51807.4 -3574.25 3.476 0 0 -1
-51807.6 -3574.61 3.476 0 0 0
-51807.8 -3574.92 3.476 0 0 -1
-51811.4 -3572.83 3.476 0 0 -1
-51811.7 -3572.58 3.476 0 0 -1
-51817 -3569.38 3.476 0 0 -1
-51818.2 -3571.38 3.476 0 0 0
-51818.1 -3571.47 3.476 0 0 -1
-51820 -3574.68 3.476 0 0 -1
-51835.3 -3565.47 3.476 0 0 -1
-51835.2 -3565.27 3.476 0 0 0
-51835.8 -3564.93 3.476 0 0 -1
-51836.7 -3561.83 3.476 0 0 -1
-51838.2 -3560.97 3.476 0 0 -1
-51836.2 -3557.67 3.476 0 0 -1
-51837.4 -3556.92 3.476 0 0 -1
-51833.2 -3549.88 3.476 0 0 -1
-51832.7 -3550.17 3.476 0 0 0
-51832.7 -3550.17 3.476 -0.868647 0.495432 0
-51832.7 -3550.17 23.308 -0.868647 0.495432 0
-51830.3 -3545.99 23.308 -0.868647 0.495432 0
-51830.3 -3545.99 3.476 -0.868647 0.495432 0
-51832.7 -3550.17 3.476 0 0 0
-51830.3 -3545.99 3.476 0.495309 0.868717 0
-51830.3 -3545.99 23.308 0.495309 0.868717 0
-51822 -3550.72 23.308 0.495309 0.868717 0
-51822 -3550.72 3.476 0.495309 0.868717 0
-51830.3 -3545.99 3.476 0 0 0
-51822 -3550.72 3.476 0.868718 -0.495306 0
-51822 -3550.72 23.308 0.868718 -0.495306 0
-51824.5 -3555.02 23.308 0.868718 -0.495306 0
-51824.5 -3555.02 3.476 0.868718 -0.495306 0
-51822 -3550.72 3.476 0 0 0
-51824.5 -3555.02 3.476 0.514198 0.857671 0
-51824.5 -3555.02 23.308 0.514198 0.857671 0
-51824.2 -3555.17 23.308 0.514198 0.857671 0
-51824.2 -3555.17 3.476 0.514198 0.857671 0
-51824.5 -3555.02 3.476 0 0 0
-51824.2 -3555.17 3.476 -0.867978 0.496603 0
-51824.2 -3555.17 23.308 -0.867978 0.496603 0
-51823.6 -3554.08 23.308 -0.867978 0.496603 0
-51823.6 -3554.08 3.476 -0.867978 0.496603 0
-51824.2 -3555.17 3.476 0 0 0
-51823.6 -3554.08 3.476 0.52622 0.850349 0
-51823.6 -3554.08 23.308 0.52622 0.850349 0
-51818.4 -3557.28 23.308 0.52622 0.850349 0
-51818.4 -3557.28 3.476 0.52622 0.850349 0
-51823.6 -3554.08 3.476 0 0 0
-51818.4 -3557.28 3.476 0.868739 -0.49527 0
-51818.4 -3557.28 23.308 0.868739 -0.49527 0
-51819 -3558.29 23.308 0.868739 -0.49527 0
-51819 -3558.29 3.476 0.868739 -0.49527 0
-51818.4 -3557.28 3.476 0 0 0
-51819 -3558.29 3.476 0.514091 0.857735 0
-51819 -3558.29 23.308 0.514091 0.857735 0
-51816.6 -3559.75 23.308 0.514091 0.857735 0
-51816.6 -3559.75 3.476 0.514091 0.857735 0
-51819 -3558.29 3.476 0 0 0
-51816.6 -3559.75 3.476 -0.858289 0.513167 0
-51816.6 -3559.75 23.308 -0.858289 0.513167 0
-51816 -3558.79 23.308 -0.858289 0.513167 0
-51816 -3558.79 3.476 -0.858289 0.513167 0
-51816.6 -3559.75 3.476 0 0 0
-51816 -3558.79 3.476 0.512786 0.858517 0
-51816 -3558.79 23.308 0.512786 0.858517 0
-51806.6 -3564.41 23.308 0.512786 0.858517 0
-51806.6 -3564.41 3.476 0.512786 0.858517 0
-51816 -3558.79 3.476 0 0 0
-51806.6 -3564.41 3.476 0.85847 -0.512864 0
-51806.6 -3564.41 23.308 0.85847 -0.512864 0
-51807 -3565.04 23.308 0.85847 -0.512864 0
-51807 -3565.04 3.476 0.85847 -0.512864 0
-51806.6 -3564.41 3.476 0 0 0
-51807 -3565.04 3.476 0.262831 0.964842 0
-51807 -3565.04 23.308 0.262831 0.964842 0
-51806.2 -3565.25 23.308 0.262831 0.964842 0
-51806.2 -3565.25 3.476 0.262831 0.964842 0
-51807 -3565.04 3.476 0 0 0
-51806.2 -3565.25 3.476 0.806613 -0.59108 0
-51806.2 -3565.25 23.308 0.806613 -0.59108 0
-51807.4 -3566.86 23.308 0.806613 -0.59108 0
-51807.4 -3566.86 3.476 0.806613 -0.59108 0
-51806.2 -3565.25 3.476 0 0 0
-51807.4 -3566.86 3.476 0.514048 0.857761 0
-51807.4 -3566.86 23.308 0.514048 0.857761 0
-51805.3 -3568.1 23.308 0.514048 0.857761 0
-51805.3 -3568.1 3.476 0.514048 0.857761 0
-51807.4 -3566.86 3.476 0 0 0
-51805.3 -3568.1 3.476 0.857637 -0.514255 0
-51805.3 -3568.1 23.308 0.857637 -0.514255 0
-51806.2 -3569.57 23.308 0.857637 -0.514255 0
-51806.2 -3569.57 3.476 0.857637 -0.514255 0
-51805.3 -3568.1 3.476 0 0 0
-51806.2 -3569.57 3.476 0.514102 0.857729 0
-51806.2 -3569.57 23.308 0.514102 0.857729 0
-51805.2 -3570.18 23.308 0.514102 0.857729 0
-51805.2 -3570.18 3.476 0.514102 0.857729 0
-51806.2 -3569.57 3.476 0 0 0
-51805.2 -3570.18 3.476 0.857486 -0.514507 0
-51805.2 -3570.18 23.308 0.857486 -0.514507 0
-51805.9 -3571.34 23.308 0.857486 -0.514507 0
-51805.9 -3571.34 3.476 0.857486 -0.514507 0
-51805.2 -3570.18 3.476 0 0 0
-51805.9 -3571.34 3.476 -0.513929 -0.857833 0
-51805.9 -3571.34 23.308 -0.513929 -0.857833 0
-51806.9 -3570.73 23.308 -0.513929 -0.857833 0
-51806.9 -3570.73 3.476 -0.513929 -0.857833 0
-51805.9 -3571.34 3.476 0 0 0
-51806.9 -3570.73 3.476 0.857483 -0.514513 0
-51806.9 -3570.73 23.308 0.857483 -0.514513 0
-51808.3 -3572.97 23.308 0.857483 -0.514513 0
-51808.3 -3572.97 3.476 0.857483 -0.514513 0
-51806.9 -3570.73 3.476 0 0 0
-51808.3 -3572.97 3.476 -0.514189 -0.857677 0
-51808.3 -3572.97 23.308 -0.514189 -0.857677 0
-51810.8 -3571.44 23.308 -0.514189 -0.857677 0
-51810.8 -3571.44 3.476 -0.514189 -0.857677 0
-51808.3 -3572.97 3.476 0 0 0
-51811.1 -3571.93 3.476 0.662288 0.749249 0
-51811.1 -3571.93 23.308 0 0 0
-51810.7 -3572.26 23.308 0.662288 0.749249 0
-51810.7 -3572.26 3.476 0.662288 0.749249 0
-51811.1 -3571.93 3.476 0 0 0
-51810.7 -3572.26 3.476 0.503067 0.864247 0
-51810.7 -3572.26 23.308 0.503067 0.864247 0
-51807.4 -3574.2 23.308 0.503067 0.864247 0
-51807.4 -3574.2 3.476 0.503067 0.864247 0
-51810.7 -3572.26 3.476 0 0 0
-51807.4 -3574.25 3.476 0.877231 -0.480068 0
-51807.4 -3574.25 23.308 0.877231 -0.480068 0
-51807.6 -3574.61 23.308 0.877231 -0.480068 0
-51807.6 -3574.61 3.476 0.877231 -0.480068 0
-51807.4 -3574.25 3.476 0 0 0
-51807.8 -3574.92 3.476 -0.503075 -0.864243 0
-51807.8 -3574.92 23.308 -0.503075 -0.864243 0
-51811.4 -3572.83 23.308 -0.503075 -0.864243 0
-51811.4 -3572.83 3.476 -0.503075 -0.864243 0
-51807.8 -3574.92 3.476 0 0 0
-51811.4 -3572.83 3.476 -0.662307 -0.749233 0
-51811.4 -3572.83 23.308 0 0 0
-51811.7 -3572.58 23.308 -0.662307 -0.749233 0
-51811.7 -3572.58 3.476 -0.662307 -0.749233 0
-51811.4 -3572.83 3.476 0 0 0
-51811.7 -3572.58 3.476 -0.512686 -0.858576 0
-51811.7 -3572.58 23.308 -0.512686 -0.858576 0
-51817 -3569.38 23.308 -0.512686 -0.858576 0
-51817 -3569.38 3.476 -0.512686 -0.858576 0
-51811.7 -3572.58 3.476 0 0 0
-51817 -3569.38 3.476 0.858543 -0.512742 0
-51817 -3569.38 23.308 0.858543 -0.512742 0
-51818.2 -3571.38 23.308 0.858543 -0.512742 0
-51818.2 -3571.38 3.476 0.858543 -0.512742 0
-51817 -3569.38 3.476 0 0 0
-51818.2 -3571.38 3.476 0.514173 0.857687 0
-51818.2 -3571.38 23.308 0 0 0
-51818.1 -3571.47 23.308 0.514173 0.857687 0
-51818.1 -3571.47 3.476 0.514173 0.857687 0
-51818.2 -3571.38 3.476 0 0 0
-51818.1 -3571.47 3.476 0.857642 -0.514248 0
-51818.1 -3571.47 23.308 0.857642 -0.514248 0
-51820 -3574.68 23.308 0.857642 -0.514248 0
-51820 -3574.68 3.476 0.857642 -0.514248 0
-51818.1 -3571.47 3.476 0 0 0
-51820 -3574.68 3.476 -0.514084 -0.85774 0
-51820 -3574.68 23.308 -0.514084 -0.85774 0
-51835.3 -3565.47 23.308 -0.514084 -0.85774 0
-51835.3 -3565.47 3.476 -0.514084 -0.85774 0
-51820 -3574.68 3.476 0 0 0
-51835.2 -3565.27 3.476 -0.522202 -0.852822 0
-51835.2 -3565.27 23.308 0 0 0
-51835.8 -3564.93 23.308 -0.522202 -0.852822 0
-51835.8 -3564.93 3.476 -0.522202 -0.852822 0
-51835.2 -3565.27 3.476 0 0 0
-51835.8 -3564.93 3.476 -0.956401 -0.292058 0
-51835.8 -3564.93 23.308 -0.956401 -0.292058 0
-51836.7 -3561.83 23.308 -0.956401 -0.292058 0
-51836.7 -3561.83 3.476 -0.956401 -0.292058 0
-51835.8 -3564.93 3.476 0 0 0
-51836.7 -3561.83 3.476 -0.514234 -0.85765 0
-51836.7 -3561.83 23.308 -0.514234 -0.85765 0
-51838.2 -3560.97 23.308 -0.514234 -0.85765 0
-51838.2 -3560.97 3.476 -0.514234 -0.85765 0
-51836.7 -3561.83 3.476 0 0 0
-51838.2 -3560.97 3.476 -0.857807 0.513972 0
-51838.2 -3560.97 23.308 -0.857807 0.513972 0
-51836.2 -3557.67 23.308 -0.857807 0.513972 0
-51836.2 -3557.67 3.476 -0.857807 0.513972 0
-51838.2 -3560.97 3.476 0 0 0
-51836.2 -3557.67 3.476 -0.514102 -0.857729 0
-51836.2 -3557.67 23.308 -0.514102 -0.857729 0
-51837.4 -3556.92 23.308 -0.514102 -0.857729 0
-51837.4 -3556.92 3.476 -0.514102 -0.857729 0
-51836.2 -3557.67 3.476 0 0 0
-51837.4 -3556.92 3.476 -0.857682 0.51418 0
-51837.4 -3556.92 23.308 -0.857682 0.51418 0
-51833.2 -3549.88 23.308 -0.857682 0.51418 0
-51833.2 -3549.88 3.476 -0.857682 0.51418 0
-51837.4 -3556.92 3.476 0 0 0
-51833.2 -3549.88 3.476 0 0 0
-51833.2 -3549.88 23.308 0.513871 0.857867 0
-51832.7 -3550.17 23.308 0.513871 0.857867 0
-51832.7 -3550.17 3.476 0.513871 0.857867 0
-51833.2 -3549.88 3.476 0 0 0
-51832.7 -3550.17 23.308 0 0 1
-51833.2 -3549.88 23.308 0 0 1
-51837.4 -3556.92 23.308 0 0 1
-51836.2 -3557.67 23.308 0 0 1
-51838.2 -3560.97 23.308 0 0 1
-51836.7 -3561.83 23.308 0 0 1
-51835.8 -3564.93 23.308 0 0 0
-51835.2 -3565.27 23.308 0 0 -1
-51835.3 -3565.47 23.308 0 0 1
-51820 -3574.68 23.308 0 0 1
-51818.1 -3571.47 23.308 0 0 0
-51818.2 -3571.38 23.308 0 0 1
-51817 -3569.38 23.308 0 0 1
-51811.7 -3572.58 23.308 0 0 1
-51811.4 -3572.83 23.308 0 0 1
-51807.8 -3574.92 23.308 0 0 0
-51807.6 -3574.61 23.308 0 0 1
-51807.4 -3574.25 23.308 0 0 1
-51807.4 -3574.2 23.308 0 0 1
-51810.7 -3572.26 23.308 0 0 1
-51811.1 -3571.93 23.308 0 0 0
-51810.9 -3571.62 23.308 0 0 0
-51810.8 -3571.44 23.308 0 0 1
-51808.3 -3572.97 23.308 0 0 1
-51806.9 -3570.73 23.308 0 0 1
-51805.9 -3571.34 23.308 0 0 1
-51805.2 -3570.18 23.308 0 0 1
-51806.2 -3569.57 23.308 0 0 1
-51805.3 -3568.1 23.308 0 0 1
-51807.4 -3566.86 23.308 0 0 1
-51806.2 -3565.25 23.308 0 0 1
-51807 -3565.04 23.308 0 0 0
-51806.6 -3564.41 23.308 0 0 1
-51816 -3558.79 23.308 0 0 1
-51816.6 -3559.75 23.308 0 0 1
-51819 -3558.29 23.308 0 0 1
-51818.4 -3557.28 23.308 0 0 1
-51823.6 -3554.08 23.308 0 0 1
-51824.2 -3555.17 23.308 0 0 0
-51824.5 -3555.02 23.308 0 0 1
-51822 -3550.72 23.308 0 0 1
-51830.3 -3545.99 23.308 0 0 1
-51832.7 -3550.17 23.308 0 0 0
3 0 1 2
3 5 6 7
3 13 14 15
3 15 16 17
3 23 24 25
3 37 38 39
3 39 40 41
3 13 15 17
3 37 39 41
3 13 17 18
3 37 41 0
3 13 18 19
3 37 0 2
3 33 34 36
3 36 37 2
3 4 5 7
3 8 9 11
3 11 12 13
3 13 19 22
3 23 25 27
3 27 28 29
3 30 32 33
3 36 2 4
3 7 8 11
3 11 13 22
3 23 27 29
3 30 33 36
3 36 4 7
3 7 11 22
3 22 23 29
3 30 36 7
3 7 22 29
3 29 30 7
3 46 43 44
3 44 45 46
3 51 48 49
3 49 50 51
3 56 53 54
3 54 55 56
3 61 58 59
3 59 60 61
3 66 63 64
3 64 65 66
3 71 68 69
3 69 70 71
3 76 73 74
3 74 75 76
3 81 78 79
3 79 80 81
3 86 83 84
3 84 85 86
3 91 88 89
3 89 90 91
3 96 93 94
3 94 95 96
3 101 98 99
3 99 100 101
3 106 103 104
3 104 105 106
3 111 108 109
3 109 110 111
3 116 113 114
3 114 115 116
3 121 118 119
3 119 120 121
3 126 123 124
3 124 125 126
3 131 128 129
3 129 130 131
3 136 133 134
3 134 135 136
3 141 138 139
3 139 140 141
3 146 143 145
3 151 148 149
3 149 150 151
3 156 153 154
3 154 155 156
3 161 158 159
3 159 160 161
3 166 163 165
3 171 168 169
3 169 170 171
3 176 173 174
3 174 175 176
3 181 178 180
3 186 183 184
3 184 185 186
3 191 188 189
3 189 190 191
3 196 193 195
3 201 198 199
3 199 200 201
3 206 203 204
3 204 205 206
3 211 208 209
3 209 210 211
3 216 213 214
3 214 215 216
3 221 218 219
3 219 220 221
3 225 226 224
3 228 229 230
3 231 232 233
3 245 246 247
3 252 253 254
3 255 256 257
3 263 264 265
3 268 269 228
3 228 230 231
3 252 254 255
3 268 228 231
3 252 255 257
3 268 231 233
3 251 252 257
3 250 251 257
3 257 258 260
3 260 261 262
3 263 265 267
3 267 268 233
3 233 235 236
3 236 237 239
3 241 242 244
3 244 245 247
3 250 257 260
3 260 262 263
3 263 267 233
3 233 236 239
3 241 244 247
3 250 260 263
3 263 233 239
3 240 241 247
3 263 239 240
3 240 247 250
3 250 263 240
