ply
format ascii 1.0
comment Created by Open3D
element vertex 13
property double x
property double y
property double z
property double nx
property double ny
property double nz
element face 8
property list uchar uint vertex_indices
end_header
-51800.9 -3352.63 7.313 0 0 1
-51799.3 -3353.58 7.313 0 0 1
-51799.8 -3354.49 7.313 0 0 1
-51796.5 -3356.42 7.313 0 0 1
-51796 -3355.51 7.313 0 0 1
-51794.3 -3356.49 7.313 0 0 1
-51790.6 -3350.12 7.313 0 0 1
-51792.2 -3349.15 7.313 0 0 0
-51791.8 -3348.43 7.313 0 0 1
-51795.1 -3346.5 7.313 0 0 0
-51795.5 -3347.22 7.313 0 0 1
-51797.2 -3346.27 7.313 0 0 1
-51800.9 -3352.63 7.313 0 0 0
3 11 0 1
3 1 2 3
3 4 5 6
3 11 1 3
3 11 3 4
3 11 4 6
3 6 8 10
3 10 11 6
