ply
format ascii 1.0
comment Created by Open3D
element vertex 14
property double x
property double y
property double z
property double nx
property double ny
property double nz
element face 8
property list uchar uint vertex_indices
end_header
-51773.2 -3350.28 10.8115 0 0 1
-51774.8 -3353.06 10.8115 0 0 0
-51775.2 -3352.8 10.8115 0 0 1
-51776.2 -3354.4 10.8115 0 0 1
-51780.6 -3351.61 10.8115 0 0 1
-51787.2 -3362.89 10.8115 0 0 1
-51782.6 -3365.77 10.8115 0 0 1
-51771.3 -3372.42 10.8115 0 0 1
-51763.7 -3359.53 10.8115 0 0 1
-51764 -3359.36 10.8115 0 0 1
-51762.4 -3356.57 10.8115 0 0 0
-51763.2 -3356.12 10.8115 0 0 1
-51773.1 -3350.33 10.8115 0 0 0
-51773.2 -3350.28 10.8115 0 0 0
3 3 4 5
3 6 7 8
3 3 5 6
3 6 8 9
3 3 6 9
3 11 0 2
3 2 3 9
3 9 11 2
