ply
format ascii 1.0
comment Created by Open3D
element vertex 30
property double x
property double y
property double z
property double nx
property double ny
property double nz
element face 12
property list uchar uint vertex_indices
end_header
-51847.1 -3450.92 3.97781 -0.000116006 7.19563e-05 -1
-51842.6 -3443.12 3.97785 -0.000116004 7.19568e-05 -1
-51835.9 -3447.02 3.97678 -0.000116001 7.19572e-05 -1
-51840.4 -3454.81 3.97674 -0.000116004 7.19568e-05 -1
-51847.1 -3450.92 3.97781 0 0 0
-51835.9 -3447.02 10.9088 0.000116003 -7.1957e-05 1
-51842.6 -3443.12 10.9098 0.000116004 -7.19568e-05 1
-51847.1 -3450.92 10.9098 0.000116004 -7.19567e-05 1
-51840.4 -3454.81 10.9087 0.000116004 -7.19568e-05 1
-51835.9 -3447.02 10.9088 0 0 0
-51842.6 -3443.12 10.9098 -0.866549 0.499093 0.000137021
-51842.6 -3443.12 3.97785 -0.866549 0.499093 0.000137022
-51847.1 -3450.92 3.97781 -0.866549 0.499093 0.000137023
-51847.1 -3450.92 10.9098 -0.866549 0.499093 0.000137022
-51842.6 -3443.12 10.9098 0 0 0
-51847.1 -3450.92 10.9098 -0.498917 -0.86665 -3.77834e-06
-51847.1 -3450.92 3.97781 -0.498917 -0.86665 -3.78029e-06
-51840.4 -3454.81 3.97674 -0.498917 -0.86665 -3.78224e-06
-51840.4 -3454.81 10.9087 -0.498917 -0.86665 -3.78029e-06
-51847.1 -3450.92 10.9098 0 0 0
-51840.4 -3454.81 10.9087 0.866553 -0.499085 -0.000135797
-51840.4 -3454.81 3.97674 0.866553 -0.499085 -0.000135795
-51835.9 -3447.02 3.97678 0.866553 -0.499085 -0.000135794
-51835.9 -3447.02 10.9088 0.866553 -0.499085 -0.000135795
-51840.4 -3454.81 10.9087 0 0 0
-51835.9 -3447.02 10.9088 0.498915 0.866651 5.19116e-06
-51835.9 -3447.02 3.97678 0.498915 0.866651 5.1895e-06
-51842.6 -3443.12 3.97785 0.498915 0.866651 5.18784e-06
-51842.6 -3443.12 10.9098 0.498915 0.866651 5.1895e-06
-51835.9 -3447.02 10.9088 0 0 0
3 3 0 1
3 1 2 3
3 8 5 6
3 6 7 8
3 13 10 11
3 11 12 13
3 18 15 16
3 16 17 18
3 23 20 21
3 21 22 23
3 28 25 26
3 26 27 28
