ply
format ascii 1.0
comment Created by Open3D
element vertex 16
property double x
property double y
property double z
property double nx
property double ny
property double nz
element face 10
property list uchar uint vertex_indices
end_header
-51814.4 -3638.58 18.515 0 0 1
-51779.8 -3658.77 18.515 0 0 1
-51775.8 -3651.79 18.515 0 0 0
-51775.9 -3651.71 18.515 0 0 0
-51769 -3639.75 18.515 0 0 1
-51738.6 -3587.73 18.515 0 0 1
-51738.9 -3587.59 18.515 0 0 1
-51732.2 -3576.16 18.515 0 0 1
-51720.2 -3555.55 18.515 0 0 0
-51720.2 -3555.53 18.515 0 0 1
-51716.9 -3549.79 18.515 0 0 1
-51738.8 -3536.92 18.515 0 0 -1
-51745.6 -3532.9 18.515 0 0 -1
-51748.8 -3531.03 18.515 0 0 -1
-51750.9 -3529.77 18.515 0 0 1
-51814.4 -3638.58 18.515 0 0 0
3 14 0 1
3 4 5 6
3 12 13 14
3 11 12 14
3 10 11 14
3 6 7 9
3 9 10 14
3 14 1 4
3 6 9 14
3 14 4 6
