ply
format ascii 1.0
comment Created by Open3D
element vertex 88
property double x
property double y
property double z
property double nx
property double ny
property double nz
element face 38
property list uchar uint vertex_indices
end_header
-51773.2 -3350.28 3.481 0 0 0
-51773.1 -3350.33 3.481 0 0 -1
-51763.2 -3356.12 3.481 0 0 0
-51762.4 -3356.57 3.481 0 0 -1
-51764 -3359.36 3.481 0 0 -1
-51763.7 -3359.53 3.481 0 0 -1
-51771.3 -3372.42 3.481 0 0 -1
-51782.6 -3365.77 3.481 0 0 -1
-51787.2 -3362.89 3.481 0 0 -1
-51780.6 -3351.61 3.481 0 0 -1
-51776.2 -3354.4 3.481 0 0 -1
-51775.2 -3352.8 3.481 0 0 0
-51774.8 -3353.06 3.481 0 0 -1
-51773.2 -3350.28 3.481 0 0 0
-51773.1 -3350.33 3.481 0.505396 0.862887 0
-51773.1 -3350.33 10.811 0.505396 0.862887 0
-51763.2 -3356.12 10.811 0.505396 0.862887 0
-51763.2 -3356.12 3.481 0.505396 0.862887 0
-51773.1 -3350.33 3.481 0 0 0
-51763.2 -3356.12 3.481 0.505375 0.8629 0
-51763.2 -3356.12 10.811 0.505375 0.8629 0
-51762.4 -3356.57 10.811 0.505375 0.8629 0
-51762.4 -3356.57 3.481 0.505375 0.8629 0
-51763.2 -3356.12 3.481 0 0 0
-51762.4 -3356.57 3.481 0.862843 -0.505472 0
-51762.4 -3356.57 10.811 0.862843 -0.505472 0
-51764 -3359.36 10.811 0.862843 -0.505472 0
-51764 -3359.36 3.481 0.862843 -0.505472 0
-51762.4 -3356.57 3.481 0 0 0
-51764 -3359.36 3.481 0 0 0
-51764 -3359.36 10.811 0.505697 0.862711 0
-51763.7 -3359.53 10.811 0.505697 0.862711 0
-51763.7 -3359.53 3.481 0.505697 0.862711 0
-51764 -3359.36 3.481 0 0 0
-51763.7 -3359.53 3.481 0.862825 -0.505503 0
-51763.7 -3359.53 10.811 0.862825 -0.505503 0
-51771.3 -3372.42 10.811 0.862825 -0.505503 0
-51771.3 -3372.42 3.481 0.862825 -0.505503 0
-51763.7 -3359.53 3.481 0 0 0
-51771.3 -3372.42 3.481 -0.505269 -0.862962 0
-51771.3 -3372.42 10.811 -0.505269 -0.862962 0
-51782.6 -3365.77 10.811 -0.505269 -0.862962 0
-51782.6 -3365.77 3.481 -0.505269 -0.862962 0
-51771.3 -3372.42 3.481 0 0 0
-51782.6 -3365.77 3.481 -0.53208 -0.846694 0
-51782.6 -3365.77 10.811 -0.53208 -0.846694 0
-51787.2 -3362.89 10.811 -0.53208 -0.846694 0
-51787.2 -3362.89 3.481 -0.53208 -0.846694 0
-51782.6 -3365.77 3.481 0 0 0
-51787.2 -3362.89 3.481 -0.862783 0.505575 0
-51787.2 -3362.89 10.811 -0.862783 0.505575 0
-51780.6 -3351.61 10.811 -0.862783 0.505575 0
-51780.6 -3351.61 3.481 -0.862783 0.505575 0
-51787.2 -3362.89 3.481 0 0 0
-51780.6 -3351.61 3.481 0.532507 0.846425 0
-51780.6 -3351.61 10.811 0.532507 0.846425 0
-51776.2 -3354.4 10.811 0.532507 0.846425 0
-51776.2 -3354.4 3.481 0.532507 0.846425 0
-51780.6 -3351.61 3.481 0 0 0
-51776.2 -3354.4 3.481 -0.862783 0.505574 0
-51776.2 -3354.4 10.811 -0.862783 0.505574 0
-51775.2 -3352.8 10.811 -0.862783 0.505574 0
-51775.2 -3352.8 3.481 -0.862783 0.505574 0
-51776.2 -3354.4 3.481 0 0 0
-51775.2 -3352.8 3.481 0 0 0
-51775.2 -3352.8 10.811 0.505445 0.862859 0
-51774.8 -3353.06 10.811 0.505445 0.862859 0
-51774.8 -3353.06 3.481 0.505445 0.862859 0
-51775.2 -3352.8 3.481 0 0 0
-51774.8 -3353.06 3.481 -0.862828 0.505497 0
-51774.8 -3353.06 10.811 -0.862828 0.505497 0
-51773.2 -3350.28 10.811 -0.862828 0.505497 0
-51773.2 -3350.28 3.481 -0.862828 0.505497 0
-51774.8 -3353.06 3.481 0 0 0
-51773.2 -3350.28 10.811 0 0 1
-51774.8 -3353.06 10.811 0 0 0
-51775.2 -3352.8 10.811 0 0 1
-51776.2 -3354.4 10.811 0 0 1
-51780.6 -3351.61 10.811 0 0 1
-51787.2 -3362.89 10.811 0 0 1
-51782.6 -3365.77 10.811 0 0 1
-51771.3 -3372.42 10.811 0 0 1
-51763.7 -3359.53 10.811 0 0 1
-51764 -3359.36 10.811 0 0 1
-51762.4 -3356.57 10.811 0 0 0
-51763.2 -3356.12 10.811 0 0 1
-51773.1 -3350.33 10.811 0 0 0
-51773.2 -3350.28 10.811 0 0 0
3 4 5 6
3 7 8 9
3 4 6 7
3 7 9 10
3 4 7 10
3 12 1 3
3 3 4 10
3 10 12 3
3 17 14 15
3 15 16 17
3 22 19 20
3 20 21 22
3 27 24 25
3 25 26 27
3 31 32 30
3 37 34 35
3 35 36 37
3 42 39 40
3 40 41 42
3 47 44 45
3 45 46 47
3 52 49 50
3 50 51 52
3 57 54 55
3 55 56 57
3 62 59 60
3 60 61 62
3 66 67 65
3 72 69 70
3 70 71 72
3 77 78 79
3 80 81 82
3 77 79 80
3 80 82 83
3 77 80 83
3 85 74 76
3 76 77 83
3 83 85 76
