ply
format ascii 1.0
comment Created by Open3D
element vertex 30
property double x
property double y
property double z
property double nx
property double ny
property double nz
element face 12
property list uchar uint vertex_indices
end_header
-51847.1 -3450.92 3.918 0 0 -1
-51842.6 -3443.12 3.918 0 0 -1
-51835.9 -3447.02 3.918 0 0 -1
-51840.4 -3454.81 3.918 0 0 -1
-51847.1 -3450.92 3.918 0 0 0
-51847.1 -3450.92 3.918 -0.866574 0.499048 0
-51847.1 -3450.92 10.44 -0.866574 0.499048 0
-51842.6 -3443.12 10.44 -0.866574 0.499048 0
-51842.6 -3443.12 3.918 -0.866574 0.499048 0
-51847.1 -3450.92 3.918 0 0 0
-51842.6 -3443.12 3.918 0.498918 0.866649 0
-51842.6 -3443.12 10.44 0.498918 0.866649 0
-51835.9 -3447.02 10.44 0.498918 0.866649 0
-51835.9 -3447.02 3.918 0.498918 0.866649 0
-51842.6 -3443.12 3.918 0 0 0
-51835.9 -3447.02 3.918 0.866574 -0.499048 0
-51835.9 -3447.02 10.44 0.866574 -0.499048 0
-51840.4 -3454.81 10.44 0.866574 -0.499048 0
-51840.4 -3454.81 3.918 0.866574 -0.499048 0
-51835.9 -3447.02 3.918 0 0 0
-51840.4 -3454.81 3.918 -0.498918 -0.866649 0
-51840.4 -3454.81 10.44 -0.498918 -0.866649 0
-51847.1 -3450.92 10.44 -0.498918 -0.866649 0
-51847.1 -3450.92 3.918 -0.498918 -0.866649 0
-51840.4 -3454.81 3.918 0 0 0
-51847.1 -3450.92 10.44 0 0 1
-51840.4 -3454.81 10.44 0 0 1
-51835.9 -3447.02 10.44 0 0 1
-51842.6 -3443.12 10.44 0 0 1
-51847.1 -3450.92 10.44 0 0 0
3 3 0 1
3 1 2 3
3 8 5 6
3 6 7 8
3 13 10 11
3 11 12 13
3 18 15 16
3 16 17 18
3 23 20 21
3 21 22 23
3 28 25 26
3 26 27 28
