ply
format ascii 1.0
comment Created by Open3D
element vertex 86
property double x
property double y
property double z
property double nx
property double ny
property double nz
element face 40
property list uchar uint vertex_indices
end_header
-51800.9 -3352.63 3.602 0 0 -1
-51797.2 -3346.27 3.602 0 0 -1
-51795.5 -3347.22 3.602 0 0 0
-51795.1 -3346.5 3.602 0 0 -1
-51791.8 -3348.43 3.602 0 0 0
-51792.2 -3349.15 3.602 0 0 -1
-51790.6 -3350.12 3.602 0 0 -1
-51794.3 -3356.49 3.602 0 0 -1
-51796 -3355.51 3.602 0 0 -1
-51796.5 -3356.42 3.602 0 0 -1
-51799.8 -3354.49 3.602 0 0 -1
-51799.3 -3353.58 3.602 0 0 -1
-51800.9 -3352.63 3.602 0 0 0
-51800.9 -3352.63 3.602 -0.862829 0.505496 0
-51800.9 -3352.63 7.313 -0.862829 0.505496 0
-51797.2 -3346.27 7.313 -0.862829 0.505496 0
-51797.2 -3346.27 3.602 -0.862829 0.505496 0
-51800.9 -3352.63 3.602 0 0 0
-51797.2 -3346.27 3.602 0.50556 0.862791 0
-51797.2 -3346.27 7.313 0.50556 0.862791 0
-51795.5 -3347.22 7.313 0.50556 0.862791 0
-51795.5 -3347.22 3.602 0.50556 0.862791 0
-51797.2 -3346.27 3.602 0 0 0
-51795.5 -3347.22 3.602 -0.862777 0.505584 0
-51795.5 -3347.22 7.313 -0.862777 0.505584 0
-51795.1 -3346.5 7.313 -0.862777 0.505584 0
-51795.1 -3346.5 3.602 -0.862777 0.505584 0
-51795.5 -3347.22 3.602 0 0 0
-51795.1 -3346.5 3.602 0.505557 0.862793 0
-51795.1 -3346.5 7.313 0.505557 0.862793 0
-51791.8 -3348.43 7.313 0.505557 0.862793 0
-51791.8 -3348.43 3.602 0.505557 0.862793 0
-51795.1 -3346.5 3.602 0 0 0
-51791.8 -3348.43 3.602 0.862882 -0.505406 0
-51791.8 -3348.43 7.313 0.862882 -0.505406 0
-51792.2 -3349.15 7.313 0.862882 -0.505406 0
-51792.2 -3349.15 3.602 0.862882 -0.505406 0
-51791.8 -3348.43 3.602 0 0 0
-51792.2 -3349.15 3.602 0.505559 0.862792 0
-51792.2 -3349.15 7.313 0.505559 0.862792 0
-51790.6 -3350.12 7.313 0.505559 0.862792 0
-51790.6 -3350.12 3.602 0.505559 0.862792 0
-51792.2 -3349.15 3.602 0 0 0
-51790.6 -3350.12 3.602 0.862825 -0.505503 0
-51790.6 -3350.12 7.313 0.862825 -0.505503 0
-51794.3 -3356.49 7.313 0.862825 -0.505503 0
-51794.3 -3356.49 3.602 0.862825 -0.505503 0
-51790.6 -3350.12 3.602 0 0 0
-51794.3 -3356.49 3.602 -0.505287 -0.862951 0
-51794.3 -3356.49 7.313 -0.505287 -0.862951 0
-51796 -3355.51 7.313 -0.505287 -0.862951 0
-51796 -3355.51 3.602 -0.505287 -0.862951 0
-51794.3 -3356.49 3.602 0 0 0
-51796 -3355.51 3.602 0.862732 -0.505661 0
-51796 -3355.51 7.313 0.862732 -0.505661 0
-51796.5 -3356.42 7.313 0.862732 -0.505661 0
-51796.5 -3356.42 3.602 0.862732 -0.505661 0
-51796 -3355.51 3.602 0 0 0
-51796.5 -3356.42 3.602 -0.505294 -0.862947 0
-51796.5 -3356.42 7.313 -0.505294 -0.862947 0
-51799.8 -3354.49 7.313 -0.505294 -0.862947 0
-51799.8 -3354.49 3.602 -0.505294 -0.862947 0
-51796.5 -3356.42 3.602 0 0 0
-51799.8 -3354.49 3.602 -0.86284 0.505478 0
-51799.8 -3354.49 7.313 -0.86284 0.505478 0
-51799.3 -3353.58 7.313 -0.86284 0.505478 0
-51799.3 -3353.58 3.602 -0.86284 0.505478 0
-51799.8 -3354.49 3.602 0 0 0
-51799.3 -3353.58 3.602 -0.505287 -0.862951 0
-51799.3 -3353.58 7.313 -0.505287 -0.862951 0
-51800.9 -3352.63 7.313 -0.505287 -0.862951 0
-51800.9 -3352.63 3.602 -0.505287 -0.862951 0
-51799.3 -3353.58 3.602 0 0 0
-51800.9 -3352.63 7.313 0 0 1
-51799.3 -3353.58 7.313 0 0 1
-51799.8 -3354.49 7.313 0 0 1
-51796.5 -3356.42 7.313 0 0 1
-51796 -3355.51 7.313 0 0 1
-51794.3 -3356.49 7.313 0 0 1
-51790.6 -3350.12 7.313 0 0 1
-51792.2 -3349.15 7.313 0 0 0
-51791.8 -3348.43 7.313 0 0 1
-51795.1 -3346.5 7.313 0 0 0
-51795.5 -3347.22 7.313 0 0 1
-51797.2 -3346.27 7.313 0 0 1
-51800.9 -3352.63 7.313 0 0 0
3 11 0 1
3 6 7 8
3 8 9 10
3 6 8 10
3 6 10 11
3 6 11 1
3 1 3 5
3 5 6 1
3 16 13 14
3 14 15 16
3 21 18 19
3 19 20 21
3 26 23 24
3 24 25 26
3 31 28 29
3 29 30 31
3 36 33 34
3 34 35 36
3 41 38 39
3 39 40 41
3 46 43 44
3 44 45 46
3 51 48 49
3 49 50 51
3 56 53 54
3 54 55 56
3 61 58 59
3 59 60 61
3 66 63 64
3 64 65 66
3 71 68 69
3 69 70 71
3 84 73 74
3 74 75 76
3 77 78 79
3 84 74 76
3 84 76 77
3 84 77 79
3 79 81 83
3 83 84 79
