ply
format ascii 1.0
comment Created by Open3D
element vertex 14
property double x
property double y
property double z
property double nx
property double ny
property double nz
element face 9
property list uchar uint vertex_indices
end_header
-51832.6 -3435.39 13.44 0 0 1
-51835.8 -3433.64 13.44 0 0 1
-51841.8 -3430.17 13.44 0 0 1
-51844.1 -3434.24 13.44 0 0 1
-51845.4 -3433.5 13.44 0 0 1
-51848.2 -3438.39 13.44 0 0 0
-51847.5 -3438.82 13.44 0 0 0
-51847.5 -3438.9 13.44 0 0 1
-51845.9 -3439.87 13.44 0 0 1
-51834.7 -3446.32 13.44 0 0 1
-51833 -3443.28 13.44 0 0 1
-51831.9 -3443.89 13.44 0 0 1
-51828.4 -3437.83 13.44 0 0 1
-51832.6 -3435.39 13.44 0 0 0
3 12 0 1
3 1 2 3
3 8 9 10
3 10 11 12
3 12 1 3
3 8 10 12
3 8 12 3
3 8 3 4
3 8 4 7
