ply
format ascii 1.0
comment Created by Open3D
element vertex 740
property double x
property double y
property double z
property double nx
property double ny
property double nz
element face 223
property list uchar uint vertex_indices
end_header
-51819.8 -3501.83 3.48723 -0.000114249 6.29041e-05 -1
-51825.5 -3517.34 3.4869 -0.000114267 6.28955e-05 -1
-51841.1 -3511.81 3.48903 -0.000114285 6.2887e-05 -1
-51835.5 -3496.3 3.48936 -0.000114267 6.28955e-05 -1
-51819.8 -3501.83 3.48723 0 0 0
-51822.5 -3500.88 9.17359 0.000113331 -6.40667e-05 1
-51822 -3499.57 9.17362 0.000113332 -6.40627e-05 1
-51826.5 -3497.75 9.17424 0.000113332 -6.40591e-05 1
-51827.1 -3499.27 9.17421 0.000113332 -6.40627e-05 1
-51822.5 -3500.88 9.17359 0 0 0
-51825.7 -3516.44 12.128 0 0 0
-51825.7 -3516.45 12.128 0.000113523 -6.14753e-05 1
-51825.4 -3515.49 12.128 0.000113523 -6.14753e-05 1
-51826.1 -3515.53 12.1281 0.000113523 -6.14753e-05 1
-51825.9 -3516.05 12.128 0 0 0
-51825.7 -3516.44 12.128 0 0 0
-51825.9 -3516.05 12.128 0 0 0
-51826 -3516.4 12.128 0.000113663 -6.12827e-05 1
-51826.7 -3516.31 12.1281 0 0 0
-51826.8 -3516.1 12.1281 0 0 0
-51826.6 -3515.56 12.1281 0 0 0
-51826.1 -3515.53 12.1281 0.000114362 -6.30862e-05 1
-51825.4 -3515.49 12.128 0.000114292 -6.29752e-05 1
-51820.5 -3502.13 12.1283 0.000114217 -6.29991e-05 1
-51835.2 -3496.94 12.1303 0.000114296 -6.2957e-05 1
-51840.5 -3511.51 12.13 0.000114369 -6.29301e-05 1
-51827 -3516.27 12.1281 0.000114504 -6.2505e-05 1
-51825.8 -3516.7 12.128 0.000113663 -6.12827e-05 1
-51825.7 -3516.45 12.128 0 0 0
-51825.7 -3516.44 12.128 0 0 0
-51825.9 -3516.05 12.128 0 0 0
-51835.5 -3496.3 12.9304 0.000113127 -6.60742e-05 1
-51835.2 -3496.79 12.9303 0 0 0
-51834.7 -3496.81 12.9302 0 0 0
-51834.8 -3497.06 12.9302 0.000113127 -6.60742e-05 1
-51820.5 -3502.13 12.9283 0 0 0
-51820.3 -3502.05 12.9283 0 0 0
-51820.3 -3502.03 12.9283 0 0 0
-51820.4 -3501.93 12.9283 0 0 0
-51820.3 -3501.84 12.9283 0 0 0
-51820.1 -3501.89 12.9283 0 0 0
-51820.2 -3501.97 12.9283 0 0 0
-51820.2 -3502.01 12.9283 0 0 0
-51819.8 -3501.83 12.9282 0.000113127 -6.60742e-05 1
-51835.5 -3496.3 12.9304 0 0 0
-51841.1 -3511.81 12.93 0.00011725 -6.39686e-05 1
-51840.5 -3511.53 12.93 0 0 0
-51840.5 -3511.44 12.93 0 0 0
-51840.5 -3511.31 12.93 0 0 0
-51840.4 -3511.25 12.93 0.00011771 -6.41198e-05 1
-51835.4 -3497.5 12.9303 0 0 0
-51835.4 -3497.5 12.9303 0.000118274 -6.43056e-05 1
-51835.6 -3496.84 12.9303 0 0 0
-51835.6 -3496.78 12.9303 0 0 0
-51835.2 -3496.79 12.9303 0 0 0
-51835.5 -3496.3 12.9304 0.00011771 -6.41198e-05 1
-51841.1 -3511.81 12.93 0 0 0
-51825.6 -3517.31 12.9279 0 0 0
-51825.6 -3517.3 12.9279 0 0 0
-51825.5 -3517.32 12.9279 0 0 0
-51825.5 -3517.34 12.9279 0.000114718 -6.07318e-05 1
-51825.8 -3516.7 12.928 0.000113625 -6.42776e-05 1
-51840 -3511.67 12.9299 0 0 0
-51840 -3511.7 12.9299 0.000113296 -6.62541e-05 1
-51840.5 -3511.54 12.93 0 0 0
-51840.5 -3511.53 12.93 0.000115829 -6.2104e-05 1
-51841.1 -3511.81 12.93 0 0 0
-51840.7 -3511.94 12.93 0.000115723 -6.17877e-05 1
-51837.4 -3513.13 12.9295 0.000113854 -6.39996e-05 1
-51825.6 -3517.31 12.9279 0 0 0
-51820.5 -3502.13 12.9283 0 0 0
-51820.7 -3502.71 12.9283 0 0 0
-51820.7 -3502.72 12.9283 0 0 0
-51820.7 -3502.72 12.9283 0.00011121 -6.17708e-05 1
-51825.8 -3516.7 12.928 0.000111978 -6.2023e-05 1
-51825.5 -3517.34 12.9279 0.00011121 -6.17708e-05 1
-51819.8 -3501.83 12.9282 0.000110517 -6.15434e-05 1
-51820.2 -3502.01 12.9283 0 0 0
-51820.2 -3501.97 12.9283 0 0 0
-51820.3 -3502.03 12.9283 0 0 0
-51820.3 -3502.05 12.9283 0 0 0
-51820.5 -3502.13 12.9283 0 0 0
-51835.3 -3509.16 21.6321 -0.554905 0.817189 0.15583
-51835 -3508.92 21.3983 -0.554905 0.817189 0.15583
-51838.7 -3510.28 15.2462 -0.554905 0.817189 0.15583
-51839.7 -3510.79 14.27 -0.554905 0.817189 0.15583
-51835.3 -3509.16 21.6321 0 0 0
-51835 -3509.31 20.6075 0 0 0
-51834.6 -3509.44 21.2617 0 0 0
-51834.5 -3509.56 21.2768 0.846895 0.0638896 -0.527909
-51839.7 -3511.44 12.7604 0.846895 0.0638889 -0.527909
-51838.7 -3510.6 14.4913 0.846895 0.0638896 -0.527909
-51835 -3509.24 20.6492 0.846894 0.0638906 -0.527909
-51835 -3509.31 20.6075 0 0 0
-51840.1 -3511.64 12.3876 0.554905 -0.817188 -0.155831
-51839.7 -3511.44 12.7604 0.554905 -0.817189 -0.15583
-51834.5 -3509.56 21.2768 0.554905 -0.817189 -0.15583
-51834.8 -3509.8 21.5107 0.554905 -0.817189 -0.15583
-51839 -3511.31 14.6779 0 0 0
-51838.8 -3511.15 14.4357 0 0 0
-51839.4 -3511.37 13.5559 0.554905 -0.817188 -0.155831
-51839.7 -3511.57 13.2951 0 0 0
-51839.8 -3511.61 13.351 0 0 0
-51840 -3511.7 12.9299 0 0 0
-51840 -3511.67 12.9299 0.554905 -0.817189 -0.155831
-51840.1 -3511.64 12.3876 0 0 0
-51840.5 -3511.54 12.93 0 0 0
-51840 -3511.37 13.7106 -0.846894 -0.0638915 0.52791
-51840 -3511.2 13.7239 0 0 0
-51839.8 -3511.29 14.0743 -0.846894 -0.0638915 0.527909
-51835.2 -3509.61 21.6883 -0.846894 -0.0638915 0.527909
-51835.3 -3509.16 21.6321 -0.846894 -0.0638915 0.527909
-51839.7 -3510.79 14.27 -0.846894 -0.0638915 0.52791
-51840.5 -3511.44 12.93 -0.846894 -0.0638915 0.52791
-51840.5 -3511.53 12.93 0 0 0
-51840.5 -3511.54 12.93 0 0 0
-51838.7 -3510.28 15.2462 0.446102 -0.819632 0.35944
-51838.7 -3510.6 14.4913 0.446102 -0.819632 0.35944
-51835 -3506.31 19.7261 0 0 0
-51835.3 -3506.26 20.1561 0.446102 -0.819632 0.35944
-51838.7 -3510.28 15.2462 0 0 0
-51839.7 -3511.44 12.7604 0.43334 0.524449 -0.732918
-51840.1 -3511.64 12.3876 0 0 0
-51840.4 -3511.54 12.2927 0.43334 0.524449 -0.732918
-51835.7 -3506.03 19.0182 0 0 0
-51835.2 -3506.2 19.1572 0.43334 0.524449 -0.732918
-51839.7 -3511.44 12.7604 0 0 0
-51840.5 -3511.51 12.4678 0 0 0
-51840.4 -3511.25 12.93 -0.446103 0.819631 -0.35944
-51840.5 -3511.31 12.93 -0.446103 0.819631 -0.35944
-51835.9 -3505.97 19.4483 -0.446103 0.819631 -0.35944
-51835.7 -3506.03 19.0182 -0.446103 0.819631 -0.35944
-51840.4 -3511.54 12.2927 0 0 0
-51840.5 -3511.51 12.4678 0 0 0
-51835.7 -3506.08 20.0172 -0.43334 -0.524449 0.732918
-51839.7 -3510.79 14.27 -0.433339 -0.52445 0.732918
-51838.7 -3510.28 15.2462 -0.43334 -0.524449 0.732918
-51835.3 -3506.26 20.1561 -0.433341 -0.524448 0.732918
-51835.7 -3506.08 20.0172 0 0 0
-51835.6 -3496.84 12.9303 -0.879426 0.295204 0.373448
-51835.9 -3505.97 19.4483 -0.879426 0.295204 0.373448
-51840.5 -3511.31 12.93 0 0 0
-51840.5 -3511.44 12.93 0 0 0
-51839.7 -3510.79 14.27 0 0 0
-51835.7 -3506.08 20.0172 0 0 0
-51835.4 -3496.57 13.2254 0 0 0
-51835.6 -3496.78 12.9303 -0.879426 0.295204 0.373448
-51835.6 -3496.84 12.9303 0 0 0
-51835.2 -3497.03 12.5992 0.0280631 -0.581534 -0.813038
-51834.9 -3497.03 12.6088 0.0280644 -0.581535 -0.813037
-51835.2 -3506.2 19.1572 0 0 0
-51835.7 -3506.03 19.0182 0.0280644 -0.581535 -0.813037
-51835.4 -3497.5 12.9303 0 0 0
-51835.4 -3497.5 12.9303 0.0280644 -0.581535 -0.813037
-51835.2 -3497.03 12.5992 0 0 0
-51834.9 -3497.03 12.6088 0.879426 -0.295205 -0.373449
-51834.9 -3497.02 12.6241 0.879426 -0.295205 -0.373449
-51834.8 -3497.06 12.9302 0 0 0
-51834.7 -3496.81 12.9302 0 0 0
-51834.7 -3496.8 12.9343 0.879426 -0.295205 -0.373449
-51835 -3506.31 19.7261 0 0 0
-51838.7 -3510.6 14.4913 0.879426 -0.295204 -0.373449
-51839.7 -3511.44 12.7604 0.879426 -0.295204 -0.373449
-51835.2 -3506.2 19.1572 0.879426 -0.295204 -0.373449
-51834.9 -3497.03 12.6088 0 0 0
-51835.7 -3506.08 20.0172 -0.0280636 0.581535 0.813037
-51835.3 -3506.26 20.1561 -0.0280633 0.581535 0.813037
-51835 -3496.58 13.2426 -0.0280631 0.581535 0.813037
-51835.4 -3496.57 13.2254 -0.0280633 0.581535 0.813037
-51835.7 -3506.08 20.0172 0 0 0
-51839.4 -3511.37 13.5559 0.324129 0.85161 -0.411948
-51838.8 -3511.15 14.4357 0.324129 0.85161 -0.411948
-51831.7 -3511.37 19.6195 0.324129 0.85161 -0.411948
-51826.7 -3515.59 14.8288 0.324128 0.85161 -0.411949
-51825.9 -3516.53 13.4762 0.324129 0.85161 -0.411948
-51831.8 -3511.59 19.0823 0.324129 0.85161 -0.411948
-51839.4 -3511.37 13.5559 0 0 0
-51825.6 -3517.3 12.9279 0 0 0
-51825.9 -3516.53 13.4762 0.862153 0.486604 -0.141102
-51827.7 -3511.11 21.3453 0 0 0
-51827.5 -3511.41 21.6018 0.862153 0.486604 -0.141102
-51825.5 -3517.48 12.8003 0 0 0
-51825.5 -3517.32 12.9157 0.862153 0.486604 -0.141102
-51825.5 -3517.32 12.9279 0 0 0
-51825.6 -3517.3 12.9279 0 0 0
-51827.7 -3511.75 21.7851 0 0 0
-51825.8 -3517.48 13.4769 -0.840366 0.338646 -0.423206
-51825.5 -3517.48 12.8003 -0.840366 0.338646 -0.423206
-51827.5 -3511.41 21.6018 -0.840366 0.338646 -0.423206
-51827.7 -3511.75 21.7851 0 0 0
-51827.7 -3511.75 21.7851 0 0 0
-51828.1 -3511.79 21.7118 -0.0218032 -0.82527 0.564318
-51826.6 -3516.53 14.8295 -0.0218032 -0.82527 0.564318
-51825.8 -3517.48 13.4769 -0.0218032 -0.82527 0.564318
-51827.7 -3511.75 21.7851 0 0 0
-51828.3 -3511.48 21.4552 0 0 0
-51828.3 -3511.36 21.3877 0 0 0
-51828 -3511.43 20.854 -0.840366 0.338646 -0.423206
-51826.7 -3515.59 14.8288 -0.840366 0.338646 -0.423206
-51827 -3515.59 15.5054 -0.840366 0.338646 -0.423206
-51828.3 -3511.48 21.4552 0 0 0
-51828.1 -3511.79 21.7118 0 0 0
-51828.3 -3511.48 21.4552 -0.862153 -0.486604 0.141102
-51827 -3515.59 15.5054 -0.862153 -0.486604 0.141102
-51826.6 -3516.53 14.8295 -0.862153 -0.486604 0.141102
-51828.1 -3511.79 21.7118 0 0 0
-51828 -3511.43 20.854 0 0 0
-51827.9 -3511.47 20.7981 0.0218015 0.82527 -0.564318
-51827.8 -3511.11 21.3285 0 0 0
-51827.7 -3511.11 21.3453 0.0218015 0.82527 -0.564318
-51825.9 -3516.53 13.4762 0 0 0
-51826.7 -3515.59 14.8288 0.0218015 0.82527 -0.564318
-51828 -3511.43 20.854 0 0 0
-51825.8 -3517.48 13.4769 -0.783204 -0.480166 -0.39501
-51832 -3512.26 19.4034 -0.783204 -0.480166 -0.39501
-51831.9 -3512.04 18.9742 -0.783204 -0.480166 -0.395009
-51825.5 -3517.48 12.8003 -0.783204 -0.480166 -0.39501
-51825.8 -3517.48 13.4769 0 0 0
-51831.9 -3512.04 18.9742 -0.459098 0.371462 -0.806998
-51831.8 -3511.59 19.0823 -0.459098 0.371462 -0.806998
-51825.9 -3516.53 13.4762 -0.459098 0.371462 -0.806998
-51825.6 -3517.3 12.9279 0 0 0
-51825.6 -3517.31 12.9279 0 0 0
-51825.5 -3517.32 12.9157 0 0 0
-51825.5 -3517.48 12.8003 0 0 0
-51831.9 -3512.04 18.9742 0 0 0
-51827 -3515.59 15.5054 0.783204 0.480166 0.39501
-51826.7 -3515.59 14.8288 0.783204 0.480166 0.39501
-51831.7 -3511.37 19.6195 0.783204 0.480166 0.395009
-51831.8 -3511.58 20.0487 0.783204 0.480166 0.39501
-51827 -3515.59 15.5054 0 0 0
-51826.6 -3516.53 14.8295 0.459099 -0.37146 0.806998
-51827 -3515.59 15.5054 0.459099 -0.371461 0.806998
-51831.8 -3511.58 20.0487 0.459098 -0.371462 0.806998
-51831.9 -3512.03 19.9406 0.459099 -0.371461 0.806998
-51826.6 -3516.53 14.8295 0 0 0
-51831.9 -3512.03 19.9406 0 0 0
-51831.8 -3511.58 20.0487 -0.586493 0.0276993 0.809481
-51840.2 -3511.33 13.9242 -0.586493 0.0276993 0.809481
-51840.2 -3511.78 13.928 -0.586493 0.0276993 0.809481
-51831.9 -3512.03 19.9406 0 0 0
-51825.8 -3517.48 13.4769 -0.324128 -0.85161 0.411949
-51826.6 -3516.53 14.8295 -0.324129 -0.85161 0.411948
-51831.9 -3512.03 19.9406 -0.324129 -0.85161 0.411948
-51840.2 -3511.78 13.928 -0.324129 -0.85161 0.411948
-51840 -3512.02 13.6144 -0.324129 -0.85161 0.411948
-51832 -3512.26 19.4034 -0.324129 -0.85161 0.411948
-51825.8 -3517.48 13.4769 0 0 0
-51839 -3511.31 14.6779 0 0 0
-51839.8 -3511.29 14.0743 0 0 0
-51840 -3511.2 13.7239 0 0 0
-51840.2 -3511.33 13.9242 -0.262334 0.879307 0.397492
-51831.8 -3511.58 20.0487 0 0 0
-51831.7 -3511.37 19.6195 -0.262334 0.879307 0.397492
-51838.8 -3511.15 14.4357 -0.262334 0.879307 0.397492
-51839 -3511.31 14.6779 0 0 0
-51831.9 -3512.04 18.9742 0 0 0
-51832 -3512.26 19.4034 0.262334 -0.879307 -0.397492
-51840 -3512.02 13.6144 0.262334 -0.879307 -0.397492
-51839.8 -3511.81 13.2971 0.262334 -0.879307 -0.397492
-51831.9 -3512.04 18.9742 0 0 0
-51839.8 -3511.81 13.2971 0 0 0
-51839.7 -3511.57 13.2951 0.586492 -0.027701 -0.809481
-51839.4 -3511.37 13.5559 0.586492 -0.027701 -0.809481
-51831.8 -3511.59 19.0823 0.586492 -0.027701 -0.809481
-51831.9 -3512.04 18.9742 0 0 0
-51839.8 -3511.81 13.2971 0 0 0
-51825.8 -3504.58 21.5162 0 0 0
-51825.8 -3504.58 21.5087 -0.2253 -0.911619 -0.343788
-51825.7 -3504.37 20.9226 -0.225299 -0.911619 -0.343788
-51821.7 -3502.97 14.532 -0.2253 -0.911619 -0.343788
-51821.4 -3503.18 14.9686 -0.225299 -0.911619 -0.343788
-51825.6 -3504.64 21.5886 -0.225299 -0.911619 -0.343788
-51825.8 -3504.58 21.5162 0 0 0
-51825.6 -3504.64 21.5886 0.596959 -0.774687 0.208565
-51821.4 -3503.18 14.9686 0.596959 -0.774687 0.208565
-51820.6 -3502.71 14.2955 0.596959 -0.774688 0.208565
-51825.4 -3504.37 21.8215 0.596959 -0.774687 0.208565
-51825.6 -3504.64 21.5886 0 0 0
-51825.5 -3503.93 21.8566 0.822279 0.136929 0.552366
-51825.4 -3504.37 21.8215 0.822279 0.136928 0.552366
-51820.6 -3502.71 14.2955 0.82228 0.136926 0.552365
-51820 -3502.02 13.1858 0.822279 0.136928 0.552366
-51825.5 -3503.93 21.8566 0 0 0
-51820.3 -3501.84 12.9283 0 0 0
-51825.8 -3503.77 21.6589 0.225299 0.911619 0.343788
-51825.5 -3503.93 21.8566 0.225299 0.911619 0.343788
-51820 -3502.02 13.1858 0.225299 0.911619 0.343788
-51820.1 -3501.89 12.9283 0 0 0
-51820.3 -3501.84 12.9283 0 0 0
-51820.4 -3501.93 12.9283 0 0 0
-51821 -3502.28 13.4222 0 0 0
-51826.1 -3504.03 21.3754 0 0 0
-51826.1 -3504.02 21.4398 -0.596959 0.774687 -0.208565
-51825.8 -3503.77 21.6589 -0.596959 0.774687 -0.208565
-51820.3 -3501.84 12.9283 -0.596959 0.774687 -0.208565
-51820.4 -3501.93 12.9283 0 0 0
-51825.7 -3504.16 20.7711 -0.822279 -0.136927 -0.552365
-51826.1 -3504.03 21.3754 -0.822279 -0.136927 -0.552365
-51821 -3502.28 13.4222 -0.822279 -0.136927 -0.552365
-51821.7 -3502.97 14.532 -0.822279 -0.136928 -0.552365
-51825.7 -3504.37 20.9226 -0.822279 -0.136929 -0.552366
-51825.7 -3504.16 20.7711 0 0 0
-51820.1 -3501.89 12.9283 0.411817 -0.716676 -0.562834
-51820 -3502.02 13.1858 0.411818 -0.716676 -0.562834
-51825 -3509.53 19.049 0.411818 -0.716676 -0.562834
-51825.3 -3509.37 18.661 0.411818 -0.716676 -0.562834
-51820.3 -3502.03 12.9283 0 0 0
-51820.2 -3501.97 12.9283 0 0 0
-51820.1 -3501.89 12.9283 0 0 0
-51820.3 -3502.03 12.9283 0 0 0
-51825.3 -3509.37 18.661 0 0 0
-51825.7 -3509.22 18.8483 0.471136 0.324058 0.820376
-51821 -3502.28 13.4222 0.471136 0.324058 0.820376
-51820.4 -3501.93 12.9283 0.471136 0.324058 0.820376
-51820.3 -3502.03 12.9283 0 0 0
-51825 -3509.53 19.049 0.882915 -0.392621 0.257506
-51820 -3502.02 13.1858 0.882915 -0.392621 0.257506
-51820.6 -3502.71 14.2955 0.882915 -0.392621 0.257506
-51825.2 -3509.53 19.6243 0.882915 -0.392621 0.257506
-51826.1 -3516.5 12.232 0 0 0
-51826 -3516.4 12.128 0.882915 -0.392621 0.257506
-51825.9 -3516.05 12.128 0.882915 -0.392621 0.257506
-51825 -3509.53 19.049 0 0 0
-51821.4 -3503.18 14.9686 -0.411817 0.716676 0.562834
-51821.7 -3502.97 14.532 -0.411817 0.716676 0.562834
-51825.9 -3509.23 19.4236 -0.411818 0.716676 0.562834
-51825.6 -3509.38 19.8116 -0.411817 0.716676 0.562834
-51821.4 -3503.18 14.9686 0 0 0
-51820.6 -3502.71 14.2955 0 0 0
-51821.4 -3503.18 14.9686 -0.471136 -0.324058 -0.820376
-51825.6 -3509.38 19.8116 -0.471136 -0.324058 -0.820376
-51825.2 -3509.53 19.6243 0 0 0
-51820.6 -3502.71 14.2955 -0.471136 -0.324058 -0.820376
-51825.3 -3509.37 18.661 0 0 0
-51825 -3509.53 19.049 0.840158 0.337096 -0.424854
-51825.9 -3516.05 12.128 0.840158 0.337096 -0.424854
-51826.1 -3515.53 12.1281 0.840158 0.337096 -0.424854
-51825.3 -3509.37 18.661 0 0 0
-51825.7 -3509.22 18.8483 0 0 0
-51825.3 -3509.37 18.661 -0.0427691 0.729743 -0.682383
-51826.1 -3515.53 12.1281 -0.0427691 0.729743 -0.682383
-51826.6 -3515.56 12.1281 -0.0427691 0.729743 -0.682383
-51825.7 -3509.22 18.8483 0 0 0
-51826.8 -3516.1 12.1281 0 0 0
-51826.7 -3516.31 12.1281 -0.840158 -0.337096 0.424854
-51826.6 -3516.4 12.2029 0 0 0
-51826.6 -3516.43 12.3377 -0.840158 -0.337096 0.424854
-51825.6 -3509.38 19.8116 -0.840158 -0.337096 0.424854
-51825.9 -3509.23 19.4236 -0.840158 -0.337096 0.424854
-51826.8 -3516.1 12.1281 0 0 0
-51825.9 -3509.23 19.4236 -0.882915 0.392621 -0.257506
-51821.7 -3502.97 14.532 -0.882915 0.392621 -0.257506
-51821 -3502.28 13.4222 -0.882915 0.392621 -0.257506
-51825.7 -3509.22 18.8483 -0.882915 0.392621 -0.257505
-51826.6 -3515.56 12.1281 -0.882915 0.392621 -0.257506
-51826.8 -3516.1 12.1281 -0.882915 0.392621 -0.257506
-51825.9 -3509.23 19.4236 0 0 0
-51833.2 -3502.06 21.5547 -0.849388 0.315239 0.423279
-51832.9 -3501.71 21.7346 -0.849388 0.315239 0.423279
-51834.9 -3496.39 13.8097 -0.849387 0.31524 0.423279
-51835.2 -3496.48 13.2422 -0.849388 0.315239 0.423279
-51833.2 -3502.06 21.5547 0 0 0
-51833.2 -3502.06 21.5547 -0.84677 -0.514646 -0.13461
-51835.2 -3496.48 13.2422 -0.84677 -0.514646 -0.13461
-51834.8 -3497.39 13.8988 -0.84677 -0.514646 -0.13461
-51832.9 -3502.36 21.2997 -0.84677 -0.514646 -0.13461
-51833.2 -3502.06 21.5547 0 0 0
-51832.3 -3501.96 21.4047 0.849388 -0.315239 -0.423278
-51832.4 -3502.1 21.3306 0.849388 -0.315239 -0.423278
-51832.6 -3502.03 20.8135 0.849388 -0.315239 -0.423279
-51834 -3498.21 15.1229 0.849388 -0.315239 -0.423279
-51833.7 -3498.12 15.6904 0.849388 -0.315239 -0.423279
-51832.3 -3501.96 21.4047 0 0 0
-51832.5 -3501.66 21.6596 0.84677 0.514646 0.134611
-51832.3 -3501.96 21.4047 0.84677 0.514646 0.134611
-51833.7 -3498.12 15.6904 0 0 0
-51834.2 -3497.21 15.0338 0.84677 0.514646 0.134611
-51832.5 -3501.66 21.6596 0 0 0
-51832.9 -3501.71 21.7346 -0.00260356 0.829905 0.557899
-51832.5 -3501.66 21.6596 -0.00260249 0.829905 0.557899
-51834.2 -3497.21 15.0338 -0.00260121 0.829905 0.557899
-51834.9 -3496.39 13.8097 -0.00260249 0.829905 0.557899
-51832.9 -3501.71 21.7346 0 0 0
-51833.7 -3498.12 15.6904 0 0 0
-51834 -3498.21 15.1229 -0.750325 -0.446341 0.48764
-51828.6 -3502.39 19.6637 -0.750325 -0.446341 0.48764
-51828.5 -3502.16 20.0761 -0.750325 -0.446341 0.48764
-51833.7 -3498.12 15.6904 0 0 0
-51834.2 -3497.21 15.0338 -0.373786 0.414648 0.829669
-51833.7 -3498.12 15.6904 -0.373785 0.414649 0.829669
-51828.5 -3502.16 20.0761 -0.373785 0.41465 0.829669
-51828.3 -3501.72 19.9303 -0.373785 0.414649 0.829669
-51834.2 -3497.21 15.0338 0 0 0
-51834.9 -3496.39 13.8097 0.750325 0.44634 -0.48764
-51828.3 -3501.52 19.3721 0 0 0
-51828.4 -3501.75 18.9597 0.750325 0.44634 -0.48764
-51835.2 -3496.48 13.2422 0.750325 0.44634 -0.48764
-51834.9 -3496.39 13.8097 0 0 0
-51835.2 -3496.48 13.2422 0.373786 -0.414648 -0.829669
-51828.4 -3501.75 18.9597 0 0 0
-51828.6 -3502.19 19.1055 0.373786 -0.414648 -0.829669
-51834.8 -3497.39 13.8988 0.373786 -0.414648 -0.829669
-51835.2 -3496.48 13.2422 0 0 0
-51828.3 -3501.52 19.3721 -0.300542 0.868669 -0.393813
-51820.7 -3502.06 12.4182 -0.300542 0.868669 -0.393813
-51821 -3502.28 12.1382 -0.300542 0.868669 -0.393813
-51828.4 -3501.75 18.9597 -0.300542 0.868669 -0.393813
-51828.3 -3501.52 19.3721 0 0 0
-51828.4 -3501.75 18.9597 -0.677122 0.00770464 -0.73583
-51821 -3502.28 12.1382 -0.677122 0.00770484 -0.73583
-51821 -3502.73 12.1516 -0.677122 0.00770505 -0.73583
-51828.6 -3502.19 19.1055 -0.677122 0.00770484 -0.73583
-51828.4 -3501.75 18.9597 0 0 0
-51820.8 -3502.95 12.4788 0.300542 -0.868669 0.393813
-51820.7 -3502.72 12.9283 0 0 0
-51820.7 -3502.72 12.9283 0.300542 -0.868669 0.393813
-51828.5 -3502.16 20.0761 0.300542 -0.868669 0.393813
-51828.6 -3502.39 19.6637 0.300542 -0.868669 0.393813
-51820.8 -3502.95 12.4788 0 0 0
-51820.5 -3502.28 12.7892 0.677122 -0.00770503 0.73583
-51828.3 -3501.72 19.9303 0.677122 -0.00770463 0.73583
-51828.5 -3502.16 20.0761 0.677122 -0.00770503 0.73583
-51820.7 -3502.72 12.9283 0 0 0
-51820.7 -3502.71 12.9283 0.677122 -0.00770543 0.73583
-51820.5 -3502.28 12.7892 0 0 0
-51821 -3502.73 12.1516 -0.376552 -0.860961 -0.341987
-51820.8 -3502.93 12.4125 0 0 0
-51820.8 -3502.95 12.4788 -0.376552 -0.860961 -0.341987
-51828.6 -3502.39 19.6637 -0.376552 -0.860961 -0.341987
-51834 -3498.21 15.1229 -0.376552 -0.860961 -0.341988
-51834.8 -3497.39 13.8988 -0.376552 -0.860961 -0.341987
-51828.6 -3502.19 19.1055 -0.376552 -0.860961 -0.341986
-51821 -3502.73 12.1516 0 0 0
-51834.2 -3497.21 15.0338 0.376551 0.860961 0.341988
-51828.3 -3501.72 19.9303 0.376552 0.860961 0.341987
-51820.5 -3502.28 12.7892 0.376552 0.860961 0.341987
-51820.5 -3502.23 12.6366 0.376552 0.860961 0.341987
-51820.7 -3502.06 12.4182 0.376552 0.860961 0.341987
-51828.3 -3501.52 19.3721 0.376552 0.860961 0.341986
-51834.9 -3496.39 13.8097 0.376552 0.860961 0.341987
-51834.2 -3497.21 15.0338 0 0 0
-51831.7 -3503.2 50.7645 0 0 0
-51827 -3504.64 50.7639 0 0 0
-51827.1 -3504.97 50.7639 0.000113028 -6.2526e-05 1
-51828.9 -3510.78 50.7637 0 0 0
-51829.2 -3510.69 50.7637 0.000114232 -6.18386e-05 1
-51833.9 -3509.25 50.7644 0 0 0
-51833.8 -3508.92 50.7644 0.000115087 -6.27165e-05 1
-51832 -3503.1 50.7645 0 0 0
-51832 -3503.11 50.7645 0 0 0
-51831.8 -3502.29 50.7646 0.000114705 -6.3109e-05 1
-51832.7 -3501.99 50.7647 0.00011532 -6.32522e-05 1
-51832.3 -3500.58 50.7647 0.000114738 -6.38065e-05 1
-51834.2 -3500.01 50.765 0.000115407 -6.33267e-05 1
-51837.4 -3510.5 50.7647 0.000115121 -6.24277e-05 1
-51826.8 -3513.73 50.7633 0.000113647 -6.22034e-05 1
-51823.6 -3503.24 50.7636 0.000113563 -6.26734e-05 1
-51825.2 -3502.74 50.7638 0.000112992 -6.25909e-05 1
-51825.6 -3504.16 50.7637 0.000112901 -6.24792e-05 1
-51826.8 -3503.81 50.7639 0.000113266 -6.25894e-05 1
-51827 -3504.63 50.7639 0 0 0
-51831.7 -3503.2 50.7645 0 0 0
-51832 -3503.11 50.7645 0 0 0
-51831.7 -3503.2 50.7645 0.000114009 -6.39051e-05 1
-51827 -3504.63 50.7639 0.000114073 -6.3421e-05 1
-51826.8 -3503.81 50.7639 0.000113958 -6.37567e-05 1
-51825.6 -3504.16 50.7637 0.000113566 -6.34469e-05 1
-51825.2 -3502.74 50.7638 0.00011398 -6.38231e-05 1
-51832.3 -3500.58 50.7647 0.000114032 -6.35909e-05 1
-51832.7 -3501.99 50.7647 0.000114014 -6.37781e-05 1
-51831.8 -3502.29 50.7646 0 0 0
-51832 -3503.11 50.7645 0 0 0
-51832 -3503.16 52.1245 0.000114267 -6.28751e-05 1
-51833.8 -3509.24 52.1244 0.000114267 -6.28743e-05 1
-51829 -3510.75 52.1237 0.000114266 -6.28736e-05 1
-51827.1 -3504.66 52.1239 0.000114267 -6.28743e-05 1
-51832 -3503.16 52.1245 0 0 0
-51822 -3499.57 8.67362 0 0 0
-51826.5 -3497.75 8.67424 0.378188 0.925729 1.65615e-05
-51826.5 -3497.75 9.17424 0.378188 0.925729 1.65615e-05
-51822 -3499.57 9.17362 0.378188 0.925729 1.65615e-05
-51822 -3499.57 8.67362 0 0 0
-51827.1 -3499.27 9.17421 -0.92975 0.368191 0.000129295
-51826.5 -3497.75 9.17424 0 0 0
-51826.5 -3497.75 8.67424 -0.92975 0.368191 0.000129295
-51827.1 -3499.27 8.67421 -0.92975 0.368191 0.000129295
-51827.1 -3499.27 9.17421 0 0 0
-51835.5 -3496.3 9.17536 0.333683 0.942685 2.24493e-05
-51835.5 -3496.3 12.9304 0.333683 0.942685 2.24503e-05
-51819.8 -3501.83 12.9282 0.333683 0.942685 2.24517e-05
-51819.8 -3501.83 3.48723 0.333683 0.942685 2.24513e-05
-51835.5 -3496.3 3.48936 0.333683 0.942685 2.24489e-05
-51835.5 -3496.3 8.67536 0.333683 0.942685 2.2451e-05
-51827.1 -3499.27 8.67421 -0.333683 -0.942685 -0.000372913
-51822.5 -3500.88 8.67359 0.333683 0.942685 2.24534e-05
-51822.5 -3500.88 9.17359 0.333683 0.942685 2.24513e-05
-51827.1 -3499.27 9.17421 0.333683 0.942685 2.24492e-05
-51835.5 -3496.3 9.17536 0 0 0
-51840.7 -3511.95 11.8124 0 0 0
-51840.7 -3511.95 11.7979 0 0 0
-51840.7 -3511.94 11.7957 0 0 0
-51840.7 -3511.94 11.8133 -0.333725 -0.94267 -1.98632e-05
-51840.7 -3511.94 12.93 0 0 0
-51841.1 -3511.81 12.93 -0.333725 -0.94267 -1.98554e-05
-51841.1 -3511.81 3.48903 -0.333725 -0.94267 -1.98576e-05
-51825.5 -3517.34 3.4869 -0.333725 -0.94267 -1.98597e-05
-51825.5 -3517.34 12.9279 0 0 0
-51825.5 -3517.32 12.9279 0 0 0
-51825.5 -3517.32 12.9157 0 0 0
-51825.6 -3517.31 12.9279 -0.333725 -0.94267 -1.98578e-05
-51837.4 -3513.13 12.9295 -0.333725 -0.94267 -1.98632e-05
-51840.7 -3511.95 11.8124 0 0 0
-51840.7 -3511.94 11.8133 0 0 0
-51840.7 -3511.95 11.8124 -0.333725 -0.94267 -1.98563e-05
-51837.4 -3513.13 12.9295 -0.333725 -0.94267 -1.98563e-05
-51840.7 -3511.94 12.93 -0.333725 -0.94267 -1.98563e-05
-51840.7 -3511.94 11.8133 0 0 0
-51835.5 -3496.3 9.17536 -0.939466 0.342642 0.000130174
-51835.5 -3496.3 8.67536 0.943459 0.33149 -8.71322e-05
-51835.5 -3496.3 3.48936 -0.939466 0.342642 0.000130177
-51841.1 -3511.81 3.48903 -0.939466 0.342642 0.000130179
-51841.1 -3511.81 12.93 -0.939466 0.342642 0.000130177
-51835.5 -3496.3 12.9304 -0.939466 0.342642 0.000130176
-51835.5 -3496.3 9.17536 0 0 0
-51825.5 -3517.34 3.4869 0.939496 -0.34256 -0.000127573
-51819.8 -3501.83 3.48723 0.939496 -0.34256 -0.000127572
-51819.8 -3501.83 12.9282 0.939496 -0.34256 -0.00012757
-51825.5 -3517.34 12.9279 0.939496 -0.34256 -0.000127572
-51825.5 -3517.34 3.4869 0 0 0
-51827.1 -3499.27 8.67421 0 0 0
-51835.5 -3496.3 8.67536 0.333683 0.942685 2.24372e-05
-51835.5 -3496.3 9.17536 0.333683 0.942685 2.24372e-05
-51827.1 -3499.27 9.17421 0.333683 0.942685 2.24372e-05
-51827.1 -3499.27 8.67421 0 0 0
-51840.5 -3511.51 12.4678 0 0 0
-51840.5 -3511.51 12.13 0.939466 -0.342642 -0.000130108
-51835.2 -3496.94 12.1303 0.939466 -0.342642 -0.000130111
-51835.2 -3496.94 12.7272 0 0 0
-51835.2 -3497.03 12.5992 0.939466 -0.342642 -0.000130106
-51835.4 -3497.5 12.9303 0.939466 -0.342642 -0.000130098
-51840.4 -3511.25 12.93 0.939466 -0.342642 -0.000130104
-51840.5 -3511.51 12.4678 0 0 0
-51825.9 -3516.68 12.3642 0 0 0
-51825.8 -3516.7 12.2193 0 0 0
-51825.8 -3516.7 12.128 0.333725 0.94267 1.98824e-05
-51827 -3516.27 12.1281 0 0 0
-51826.6 -3516.4 12.2029 0.333725 0.94267 1.98824e-05
-51826.4 -3516.49 12.257 0.333725 0.94267 1.98824e-05
-51825.9 -3516.68 12.3642 0 0 0
-51840 -3511.67 12.9299 0.333725 0.94267 1.99189e-05
-51825.8 -3516.7 12.928 0 0 0
-51825.8 -3516.7 12.2193 0 0 0
-51825.9 -3516.68 12.3642 0 0 0
-51826.4 -3516.49 12.257 0.333725 0.94267 1.99162e-05
-51826.6 -3516.43 12.3377 0 0 0
-51826.6 -3516.4 12.2029 0 0 0
-51827 -3516.27 12.1281 0.333725 0.94267 1.99051e-05
-51840.5 -3511.51 12.13 0 0 0
-51840.5 -3511.51 12.4678 0 0 0
-51840.4 -3511.54 12.2927 0.333725 0.94267 1.99051e-05
-51840.1 -3511.64 12.3876 0.333725 0.94267 1.99189e-05
-51840 -3511.67 12.9299 0 0 0
-51820.7 -3502.71 12.9283 0 0 0
-51820.5 -3502.13 12.9283 -0.939496 0.34256 0.000127649
-51820.5 -3502.13 12.1283 -0.939496 0.34256 0.000127652
-51825.4 -3515.49 12.128 -0.939496 0.34256 0.000127651
-51825.7 -3516.45 12.128 0 0 0
-51825.8 -3516.7 12.128 0 0 0
-51825.8 -3516.7 12.2193 0 0 0
-51825.8 -3516.7 12.928 -0.939496 0.34256 0.000127652
-51820.7 -3502.72 12.9283 -0.939496 0.34256 0.000127652
-51820.8 -3502.95 12.4788 0 0 0
-51820.8 -3502.93 12.4125 0 0 0
-51820.5 -3502.23 12.6366 0 0 0
-51820.5 -3502.28 12.7892 0 0 0
-51820.7 -3502.71 12.9283 0 0 0
-51827.9 -3511.47 21.5464 0 0 0
-51827.9 -3511.47 21.5509 0 0 0
-51828 -3511.44 21.5085 0 0 0
-51828.3 -3511.36 21.3877 0 0 0
-51828.3 -3511.48 21.4552 0 0 0
-51828.1 -3511.79 21.7118 0 0 0
-51827.7 -3511.75 21.7851 -0.182643 0.558318 0.809273
-51827.5 -3511.41 21.6018 -0.182643 0.558318 0.809273
-51827.7 -3511.11 21.3453 -0.182643 0.558318 0.809273
-51827.8 -3511.11 21.3285 0 0 0
-51827.9 -3511.4 21.5085 0 0 0
-51827.9 -3511.47 21.5464 0 0 0
-51825.8 -3503.77 21.6589 0 0 0
-51826.1 -3504.02 21.4398 0 0 0
-51826 -3504.06 21.5088 0 0 0
-51825.7 -3504.15 21.6716 0 0 0
-51825.7 -3504.16 21.6859 -0.527158 -0.182746 0.829885
-51825.8 -3504.58 21.5162 0 0 0
-51825.6 -3504.64 21.5886 -0.527158 -0.182746 0.829885
-51825.4 -3504.37 21.8215 -0.527158 -0.182746 0.829885
-51825.5 -3503.93 21.8566 0 0 0
-51825.8 -3503.77 21.6589 0 0 0
-51832.4 -3502.1 21.3306 0 0 0
-51832.3 -3501.96 21.4047 0 0 0
-51832.5 -3501.66 21.6596 0 0 0
-51832.9 -3501.71 21.7346 0.20257 -0.545974 0.812944
-51833.2 -3502.06 21.5547 0 0 0
-51832.9 -3502.36 21.2997 0.20257 -0.545974 0.812944
-51832.8 -3502.35 21.2831 0.20257 -0.545974 0.812944
-51832.7 -3501.99 21.4954 0 0 0
-51832.4 -3502.1 21.3306 0 0 0
-51834.9 -3508.97 21.3497 0 0 0
-51835 -3509.31 21.4867 0 0 0
-51835 -3509.31 21.5095 -0.956378 0.292133 0.000128199
-51832.7 -3501.99 21.5097 0 0 0
-51832.7 -3501.99 21.4954 0 0 0
-51832.8 -3502.35 21.2831 -0.956378 0.292133 0.000128195
-51832.7 -3501.99 20.7532 -0.956378 0.292133 0.000128199
-51832.7 -3501.99 20.5097 -0.956378 0.292133 0.00012821
-51835 -3509.31 20.5095 0 0 0
-51835 -3509.31 20.6075 -0.956378 0.292133 0.000128195
-51835 -3509.24 20.6492 -0.956378 0.292133 0.000128195
-51834.9 -3508.97 21.3497 0 0 0
-51835 -3509.31 21.5095 -0.292057 -0.956401 -2.61787e-05
-51835 -3509.31 21.4867 -0.292057 -0.956401 -2.60302e-05
-51834.6 -3509.44 21.2617 -0.292057 -0.956401 -2.61949e-05
-51835 -3509.31 20.6075 0 0 0
-51835 -3509.31 20.5095 -0.292057 -0.956401 -2.61925e-05
-51827.9 -3511.47 20.5085 0 0 0
-51827.9 -3511.47 20.7981 0 0 0
-51828 -3511.43 20.854 -0.292057 -0.956401 -2.61951e-05
-51828.3 -3511.36 21.3877 -0.292057 -0.956401 -2.61907e-05
-51828 -3511.44 21.5085 -0.292057 -0.956401 -2.61486e-05
-51835 -3509.31 21.5095 0 0 0
-51827.9 -3511.4 21.5085 0 0 0
-51827.8 -3511.11 21.3285 0 0 0
-51827.9 -3511.47 20.7981 0 0 0
-51827.9 -3511.47 20.5085 0.95638 -0.292124 -0.000127022
-51825.7 -3504.16 20.5087 0 0 0
-51825.7 -3504.16 20.7711 0 0 0
-51825.7 -3504.37 20.9226 0.95638 -0.292124 -0.000127022
-51825.8 -3504.58 21.5087 0.95638 -0.292124 -0.000127022
-51827.9 -3511.4 21.5085 0 0 0
-51826 -3504.06 21.5088 0 0 0
-51826.1 -3504.02 21.4398 0 0 0
-51826.1 -3504.03 21.3754 0.292055 0.956401 2.73936e-05
-51825.7 -3504.16 20.7711 0 0 0
-51825.7 -3504.16 20.5087 0.292055 0.956401 2.73927e-05
-51832.7 -3501.99 20.5097 0 0 0
-51832.7 -3501.99 20.7532 0 0 0
-51832.6 -3502.03 20.8135 0 0 0
-51832.4 -3502.1 21.3306 0.292055 0.956401 2.73936e-05
-51832.7 -3501.99 21.4954 0.292055 0.956401 2.73982e-05
-51832.7 -3501.99 21.5097 0 0 0
-51826 -3504.06 21.5088 0 0 0
-51835 -3509.31 21.5095 -0.955802 0.291957 0.0346884
-51833.9 -3509.25 50.3644 0 0 0
-51833.8 -3508.83 50.3644 -0.955802 0.291957 0.0346884
-51832.7 -3501.99 21.5097 -0.955802 0.291957 0.0346884
-51835 -3509.31 21.5095 0 0 0
-51832.7 -3501.99 21.5097 -0.956041 0.291196 0.0344998
-51833.8 -3508.83 50.3644 -0.956041 0.291196 0.0344998
-51832 -3503.09 50.3645 -0.956041 0.291196 0.0344998
-51832.7 -3501.99 21.5097 0 0 0
-51835 -3509.31 21.5095 -0.294333 -0.955615 0.0129414
-51829.3 -3510.67 50.3637 -0.294333 -0.955615 0.0129414
-51833.9 -3509.25 50.3644 -0.294333 -0.955615 0.0129414
-51835 -3509.31 21.5095 0 0 0
-51829.3 -3510.67 50.3637 -0.292032 -0.956327 0.0124556
-51835 -3509.31 21.5095 -0.292032 -0.956327 0.0124556
-51828 -3511.44 21.5085 0 0 0
-51827.9 -3511.47 21.5509 -0.292032 -0.956327 0.0124556
-51828.9 -3510.79 50.3637 -0.292032 -0.956327 0.0124556
-51829.3 -3510.67 50.3637 0 0 0
-51827.9 -3511.47 21.5509 0 0 0
-51827.9 -3511.47 21.5464 0.955542 -0.292092 0.0402674
-51827.1 -3505.06 50.3639 0.955542 -0.292092 0.0402674
-51828.9 -3510.79 50.3637 0.955542 -0.292092 0.0402674
-51827.9 -3511.47 21.5509 0 0 0
-51827.9 -3511.47 21.5464 0 0 0
-51827.9 -3511.4 21.5085 0.955606 -0.291889 0.0402207
-51825.8 -3504.58 21.5087 0 0 0
-51825.8 -3504.58 21.5162 0.955606 -0.291889 0.0402207
-51825.7 -3504.16 21.6859 0.955606 -0.291889 0.0402207
-51827 -3504.63 50.3639 0.955606 -0.291889 0.0402207
-51827.1 -3505.06 50.3639 0.955606 -0.291889 0.0402207
-51827.9 -3511.47 21.5464 0 0 0
-51831.6 -3503.21 50.3645 0.291935 0.955994 0.0291431
-51825.7 -3504.15 21.6716 0.291935 0.955994 0.0291431
-51826 -3504.06 21.5088 0.291935 0.955994 0.0291431
-51832.7 -3501.99 21.5097 0.291935 0.955994 0.0291431
-51832 -3503.09 50.3645 0 0 0
-51832 -3503.09 50.3645 0.291935 0.955994 0.0291431
-51831.6 -3503.21 50.3645 0 0 0
-51825.7 -3504.16 21.6859 0 0 0
-51825.7 -3504.15 21.6716 0.294439 0.955209 0.0296872
-51831.6 -3503.21 50.3645 0.294439 0.955209 0.0296872
-51827 -3504.63 50.3639 0.294439 0.955209 0.0296872
-51825.7 -3504.16 21.6859 0 0 0
-51833.8 -3508.92 50.7644 -0.956041 0.291196 0.0344996
-51833.8 -3509.24 52.1244 -0.956041 0.291196 0.0344996
-51832 -3503.16 52.1245 -0.956041 0.291196 0.0344996
-51832 -3503.1 50.7645 -0.956041 0.291196 0.0344996
-51833.8 -3508.92 50.7644 0 0 0
-51829.2 -3510.69 50.7637 -0.294333 -0.955615 0.0129413
-51829 -3510.75 52.1237 -0.294333 -0.955615 0.0129413
-51833.8 -3509.24 52.1244 -0.294333 -0.955615 0.0129413
-51833.9 -3509.25 50.7644 -0.294333 -0.955615 0.0129413
-51829.2 -3510.69 50.7637 0 0 0
-51827.1 -3504.97 50.7639 0.955542 -0.292092 0.0402672
-51827.1 -3504.66 52.1239 0.955542 -0.292092 0.0402672
-51829 -3510.75 52.1237 0.955542 -0.292092 0.0402672
-51828.9 -3510.78 50.7637 0.955542 -0.292092 0.0402672
-51827.1 -3504.97 50.7639 0 0 0
-51831.7 -3503.2 50.7645 0.294439 0.955209 0.029687
-51832 -3503.16 52.1245 0.294439 0.955209 0.029687
-51827.1 -3504.66 52.1239 0.294439 0.955209 0.029687
-51827 -3504.64 50.7639 0.294439 0.955209 0.029687
-51831.7 -3503.2 50.7645 0 0 0
-51834.2 -3500.01 50.365 0 0 0
-51837.4 -3510.5 50.3647 -0.956404 0.292045 0.000128492
-51837.4 -3510.5 50.7647 -0.956404 0.292045 0.000128492
-51834.2 -3500.01 50.765 -0.956404 0.292045 0.000128492
-51834.2 -3500.01 50.365 0 0 0
-51826.8 -3513.73 50.3633 -0.291977 -0.956425 -2.59062e-05
-51826.8 -3513.73 50.7633 -0.291977 -0.956425 -2.59062e-05
-51837.4 -3510.5 50.7647 0 0 0
-51837.4 -3510.5 50.3647 -0.291977 -0.956425 -2.59062e-05
-51826.8 -3513.73 50.3633 0 0 0
-51826.8 -3513.73 50.3633 0.956398 -0.292065 -0.00012674
-51823.6 -3503.24 50.3636 0 0 0
-51823.6 -3503.24 50.7636 0.956398 -0.292065 -0.00012674
-51826.8 -3513.73 50.7633 0.956398 -0.292065 -0.00012674
-51826.8 -3513.73 50.3633 0 0 0
-51834.2 -3500.01 50.365 0.292054 0.956402 2.76275e-05
-51834.2 -3500.01 50.765 0.292054 0.956402 2.76182e-05
-51832.3 -3500.58 50.7647 -0.292047 -0.956377 -0.00720746
-51825.2 -3502.74 50.7638 -0.292053 -0.956398 -0.00270925
-51823.6 -3503.24 50.7636 0.292054 0.956402 2.76129e-05
-51823.6 -3503.24 50.3636 0.292054 0.956402 2.76143e-05
-51825.2 -3502.74 50.3638 0.292054 0.956402 2.76251e-05
-51832.3 -3500.58 50.3647 0.292054 0.956402 2.76451e-05
-51834.2 -3500.01 50.365 0 0 0
3 3 0 1
3 1 2 3
3 8 5 6
3 6 7 8
3 12 13 11
3 22 23 24
3 22 24 25
3 21 22 25
3 26 21 25
3 27 17 26
3 31 34 43
3 49 51 55
3 55 45 49
3 63 65 67
3 68 60 61
3 63 67 68
3 68 61 63
3 75 76 73
3 73 74 75
3 85 82 83
3 83 84 85
3 91 92 89
3 89 90 91
3 94 95 96
3 100 104 94
3 96 97 100
3 100 94 96
3 107 112 113
3 109 110 111
3 116 117 119
3 121 123 125
3 128 129 130
3 128 130 131
3 134 135 136
3 136 137 134
3 146 139 140
3 149 151 153
3 153 148 149
3 163 155 156
3 161 162 163
3 156 159 163
3 168 165 166
3 166 167 168
3 175 170 171
3 172 173 174
3 175 171 172
3 172 174 175
3 182 178 180
3 187 186 188
3 192 193 191
3 198 199 197
3 203 204 202
3 207 209 211
3 216 213 214
3 214 215 216
3 218 219 220
3 229 226 227
3 227 228 229
3 234 231 232
3 232 233 234
3 238 239 237
3 246 241 242
3 243 244 245
3 246 242 243
3 243 245 246
3 254 251 253
3 258 259 257
3 263 264 262
3 269 270 271
3 269 271 272
3 269 272 268
3 277 274 275
3 275 276 277
3 282 279 280
3 280 281 282
3 286 287 285
3 294 295 293
3 297 298 299
3 300 301 297
3 297 299 300
3 304 305 306
3 304 306 303
3 313 312 314
3 316 317 318
3 316 318 319
3 322 316 319
3 322 319 321
3 327 324 325
3 325 326 327
3 330 333 331
3 336 337 335
3 341 342 340
3 349 345 347
3 347 348 349
3 351 352 353
3 354 355 356
3 351 353 354
3 354 356 351
3 361 358 359
3 359 360 361
3 366 363 364
3 364 365 366
3 368 369 370
3 370 371 372
3 372 368 370
3 377 374 375
3 382 379 380
3 380 381 382
3 386 387 385
3 392 389 390
3 390 391 392
3 397 394 396
3 402 399 401
3 407 404 405
3 405 406 407
3 412 409 410
3 410 411 412
3 417 418 414
3 417 414 416
3 420 421 422
3 420 422 424
3 429 430 431
3 429 431 432
3 429 432 426
3 429 426 428
3 440 434 435
3 436 437 438
3 439 440 435
3 435 436 438
3 438 439 435
3 452 453 454
3 456 457 458
3 452 454 455
3 456 458 459
3 456 459 460
3 448 451 452
3 456 460 444
3 448 452 455
3 456 444 446
3 446 448 455
3 455 456 446
3 464 465 466
3 466 467 468
3 468 469 470
3 464 466 468
3 468 470 464
3 476 473 474
3 474 475 476
3 480 481 479
3 486 483 485
3 497 488 489
3 491 492 493
3 493 494 495
3 496 497 489
3 491 493 495
3 496 489 490
3 491 495 496
3 496 490 491
3 505 506 510
3 510 511 502
3 504 505 510
3 515 516 514
3 518 519 520
3 520 521 522
3 522 523 518
3 518 520 522
3 528 525 526
3 526 527 528
3 532 533 531
3 536 537 539
3 539 540 541
3 541 536 539
3 548 545 547
3 554 557 560
3 561 550 554
3 565 566 570
3 571 564 565
3 565 570 571
3 584 585 583
3 596 593 595
3 605 602 604
3 614 615 617
3 618 610 613
3 613 614 617
3 617 618 613
3 620 621 622
3 628 629 620
3 628 620 622
3 622 624 627
3 627 628 622
3 638 634 637
3 642 644 648
3 648 649 642
3 655 652 654
3 659 657 658
3 663 661 662
3 669 665 666
3 669 666 668
3 673 674 672
3 680 681 682
3 682 677 679
3 679 680 682
3 684 685 686
3 684 686 687
3 684 687 689
3 693 694 692
3 699 696 697
3 697 698 699
3 704 701 702
3 702 703 704
3 709 706 707
3 707 708 709
3 714 711 712
3 712 713 714
3 718 719 717
3 721 722 724
3 729 726 728
3 738 731 732
3 732 733 734
3 735 736 737
3 737 738 732
3 732 734 735
3 735 737 732
