ply
format ascii 1.0
comment Created by Open3D
element vertex 198
property double x
property double y
property double z
property double nx
property double ny
property double nz
element face 78
property list uchar uint vertex_indices
end_header
-51754 -3532.25 3.5013 -0.000106173 5.48725e-05 -1
-51788.9 -3592.6 3.50169 -0.000104606 5.3445e-05 -1
-51809.1 -3580.92 3.50449 -0.000107998 5.26596e-05 -1
-51792.3 -3551.72 3.5042 -0.000108326 5.26328e-05 -1
-51787.3 -3554.58 3.50351 -9.90505e-05 5.20725e-05 -1
-51769.3 -3523.43 3.5034 -0.000102648 5.38725e-05 -1
-51754 -3532.25 3.5013 0 0 0
-51769.4 -3523.69 9.3814 0.000105012 -5.99026e-05 1
-51771 -3522.84 9.38161 0.00010502 -5.99046e-05 1
-51773.9 -3528.19 9.3816 0.000105029 -5.99068e-05 1
-51772.5 -3528.97 9.3814 0.00010502 -5.99046e-05 1
-51769.4 -3523.69 9.3814 0 0 0
-51772.6 -3563.1 10.8945 0.000104925 -5.71513e-05 1
-51754.9 -3532.47 10.8944 0.000104921 -5.71458e-05 1
-51769.6 -3523.95 10.8964 0.000104918 -5.71404e-05 1
-51787.3 -3554.58 10.8965 0.000104921 -5.71458e-05 1
-51772.6 -3563.1 10.8945 0 0 0
-51772 -3563.4 12.8944 0.000103703 -5.64997e-05 1
-51754 -3532.25 12.8943 0.000102715 -5.7204e-05 1
-51769.3 -3523.43 12.8964 0.000103472 -5.95467e-05 1
-51769.6 -3523.95 12.8964 0.000103141 -6.01672e-05 1
-51754.9 -3532.47 12.8944 0.000101782 -5.6908e-05 1
-51772.6 -3563.1 12.8945 0.000102511 -5.57831e-05 1
-51772 -3563.4 12.8944 0 0 0
-51777 -3533.38 9.21662 0.000105973 -5.82514e-05 1
-51780 -3538.73 9.21662 0.000105976 -5.82546e-05 1
-51778.6 -3539.5 9.21643 0.00010598 -5.82581e-05 1
-51775.5 -3534.21 9.21641 0.000105976 -5.82546e-05 1
-51777 -3533.38 9.21662 0 0 0
-51783 -3543.55 9.19167 0.000106907 -5.66565e-05 1
-51785.9 -3548.9 9.19168 0.00010691 -5.66586e-05 1
-51784.5 -3549.7 9.19148 0.000106912 -5.6661e-05 1
-51781.4 -3544.42 9.19145 0.00010691 -5.66586e-05 1
-51783 -3543.55 9.19167 0 0 0
-51772.9 -3563.62 19.6045 0.000108025 -5.26843e-05 1
-51792.6 -3552.24 19.6072 0.000108032 -5.26838e-05 1
-51808.8 -3580.4 19.6075 0.000108038 -5.26832e-05 1
-51789.1 -3591.79 19.6048 0.000108032 -5.26838e-05 1
-51772.9 -3563.62 19.6045 0 0 0
-51792.3 -3551.72 20.6072 0 0 0
-51792.6 -3552.24 20.6072 0.000105808 -5.6522e-05 1
-51772.9 -3563.62 20.6045 0.000104841 -5.29059e-05 1
-51789.1 -3591.79 20.6048 0 0 0
-51808.8 -3580.4 20.6075 0 0 0
-51809.1 -3580.92 20.6075 0 0 0
-51788.9 -3592.61 20.6047 0.000104188 -5.04662e-05 1
-51772 -3563.4 20.6044 0.000104841 -5.29059e-05 1
-51792.3 -3551.72 20.6072 0 0 0
-51771 -3522.84 8.98161 0 0 0
-51773.9 -3528.19 8.9816 -0.876352 0.481672 0.000120999
-51773.9 -3528.19 9.3816 -0.876352 0.481672 0.000120999
-51771 -3522.84 9.38161 -0.876352 0.481672 0.000120999
-51771 -3522.84 8.98161 0 0 0
-51772.5 -3528.97 9.3814 -0.481433 -0.876483 -1.47461e-06
-51773.9 -3528.19 9.3816 0 0 0
-51773.9 -3528.19 8.9816 -0.481433 -0.876483 -1.47461e-06
-51772.5 -3528.97 8.9814 -0.481433 -0.876483 -1.47461e-06
-51772.5 -3528.97 9.3814 0 0 0
-51769.4 -3523.69 8.9814 0 0 0
-51771 -3522.84 8.98161 0.481682 0.876346 2.38796e-06
-51771 -3522.84 9.38161 0.481682 0.876346 2.38796e-06
-51769.4 -3523.69 9.3814 0.481682 0.876346 2.38796e-06
-51769.4 -3523.69 8.9814 0 0 0
-51787.3 -3554.58 8.98151 -0.865747 0.500483 0.000120755
-51784.5 -3549.7 8.98148 -0.865747 0.500483 0.000120748
-51784.5 -3549.7 8.79148 0.865747 -0.500483 -0.000120848
-51781.4 -3544.42 8.79145 -0.865747 0.500483 0.000120749
-51781.4 -3544.42 8.98145 -0.865747 0.500483 0.000120747
-51778.6 -3539.5 8.98143 0 0 0
-51778.6 -3539.5 8.81643 -0.865747 0.500483 0.000120747
-51775.5 -3534.21 8.81641 0 0 0
-51775.5 -3534.21 8.98141 -0.865747 0.500483 0.000120746
-51772.5 -3528.97 8.9814 0 0 0
-51769.4 -3523.69 8.9814 0 0 0
-51769.4 -3523.69 9.3814 0 0 0
-51772.5 -3528.97 9.3814 -0.865747 0.500483 0.000120744
-51787.3 -3554.58 9.38151 -0.865747 0.500483 0.000120751
-51787.3 -3554.58 10.8965 -0.865747 0.500483 0.000120746
-51769.6 -3523.95 10.8964 0.865741 -0.500479 0.00365754
-51769.3 -3523.43 10.8964 -0.865747 0.500483 0.000120743
-51769.3 -3523.43 3.5034 -0.865747 0.500483 0.000120751
-51787.3 -3554.58 3.50351 -0.865747 0.500483 0.000120756
-51787.3 -3554.58 8.98151 0 0 0
-51754 -3532.25 12.8943 0.500352 0.865822 -1.49282e-07
-51754 -3532.25 3.5013 0.500352 0.865822 -1.5156e-07
-51769.3 -3523.43 3.5034 0.500352 0.865822 -1.53611e-07
-51769.3 -3523.43 10.8964 0.500352 0.865822 -1.53838e-07
-51769.3 -3523.43 12.8964 0.500352 0.865822 -1.50229e-07
-51754 -3532.25 12.8943 0 0 0
-51787.3 -3554.58 9.38151 0 0 0
-51772.5 -3528.97 9.3814 0 0 0
-51772.5 -3528.97 8.9814 0.865747 -0.500483 0.000256269
-51775.5 -3534.21 8.98141 -0.865747 0.500483 0.000120747
-51775.5 -3534.21 9.21641 0 0 0
-51778.6 -3539.5 9.21643 -0.865747 0.500483 0.000120747
-51778.6 -3539.5 8.98143 0 0 0
-51781.4 -3544.42 8.98145 -0.865747 0.500483 0.000120776
-51781.4 -3544.42 9.19145 0 0 0
-51784.5 -3549.7 9.19148 -0.865747 0.500483 0.000120733
-51784.5 -3549.7 8.98148 0 0 0
-51787.3 -3554.58 8.98151 -0.865747 0.500483 0.000120808
-51787.3 -3554.58 9.38151 0 0 0
-51769.3 -3523.43 12.8964 0 0 0
-51769.3 -3523.43 10.8964 -0.865747 0.500483 0.000120742
-51769.6 -3523.95 10.8964 -0.865747 0.500483 0.000120742
-51769.6 -3523.95 12.8964 -0.865747 0.500483 0.000120742
-51769.3 -3523.43 12.8964 0 0 0
-51769.6 -3523.95 12.8964 -0.500352 -0.865822 2.47291e-07
-51769.6 -3523.95 10.8964 -0.500352 -0.865822 2.44803e-07
-51754.9 -3532.47 10.8944 -0.500352 -0.865822 2.42315e-07
-51754.9 -3532.47 12.8944 -0.500352 -0.865822 2.44803e-07
-51769.6 -3523.95 12.8964 0 0 0
-51772.6 -3563.1 12.8945 -0.865755 0.500469 0.000118081
-51754.9 -3532.47 12.8944 -0.865755 0.500469 0.000118073
-51754.9 -3532.47 10.8944 -0.865755 0.500469 0.000118065
-51772.6 -3563.1 10.8945 -0.865755 0.500469 0.000118073
-51772.6 -3563.1 12.8945 0 0 0
-51780 -3538.73 8.81662 -0.876314 0.481741 0.000121036
-51780 -3538.73 9.21662 -0.876314 0.481741 0.000121047
-51777 -3533.38 9.21662 -0.876314 0.481741 0.000121058
-51777 -3533.38 8.81662 -0.876314 0.481741 0.000121047
-51780 -3538.73 8.81662 0 0 0
-51780 -3538.73 9.21662 0 0 0
-51780 -3538.73 8.81662 -0.482038 -0.87615 5.05893e-07
-51778.6 -3539.5 8.81643 0 0 0
-51778.6 -3539.5 8.98143 -0.482038 -0.87615 5.05893e-07
-51778.6 -3539.5 9.21643 -0.482038 -0.87615 5.05893e-07
-51780 -3538.73 9.21662 0 0 0
-51777 -3533.38 8.81662 0.481625 0.876377 5.01766e-07
-51777 -3533.38 9.21662 0.481625 0.876377 5.01766e-07
-51775.5 -3534.21 9.21641 0 0 0
-51775.5 -3534.21 8.98141 0 0 0
-51775.5 -3534.21 8.81641 0.481625 0.876377 5.01766e-07
-51777 -3533.38 8.81662 0 0 0
-51785.9 -3548.9 8.79168 -0.876313 0.481742 0.000121104
-51785.9 -3548.9 9.19168 -0.876313 0.481742 0.000121104
-51783 -3543.55 9.19167 0 0 0
-51783 -3543.55 8.79167 -0.876313 0.481742 0.000121104
-51785.9 -3548.9 8.79168 0 0 0
-51785.9 -3548.9 9.19168 0 0 0
-51785.9 -3548.9 8.79168 -0.481529 -0.87643 2.29237e-06
-51784.5 -3549.7 8.79148 -0.481529 -0.87643 2.29237e-06
-51784.5 -3549.7 8.98148 -0.481529 -0.87643 2.29237e-06
-51784.5 -3549.7 9.19148 0 0 0
-51785.9 -3548.9 9.19168 0 0 0
-51783 -3543.55 8.79167 0.4814 0.876501 -1.32722e-06
-51783 -3543.55 9.19167 0.4814 0.876501 -1.32722e-06
-51781.4 -3544.42 9.19145 0 0 0
-51781.4 -3544.42 8.98145 0 0 0
-51781.4 -3544.42 8.79145 0.4814 0.876501 -1.32722e-06
-51783 -3543.55 8.79167 0 0 0
-51754 -3532.25 12.8943 0.865747 -0.500482 -0.000117974
-51772 -3563.4 12.8944 0.865747 -0.500482 -0.000117973
-51772 -3563.4 20.6044 0.865747 -0.500482 -0.000117984
-51788.9 -3592.61 20.6047 0.865747 -0.500482 -0.00011799
-51788.9 -3592.6 3.50169 0.865747 -0.500482 -0.000117995
-51754 -3532.25 3.5013 0.865747 -0.500482 -0.000117988
-51754 -3532.25 12.8943 0 0 0
-51792.3 -3551.72 3.5042 -0.865748 0.500479 0.000121659
-51809.1 -3580.92 3.50449 -0.865748 0.500479 0.000121664
-51809.1 -3580.92 20.6075 0 0 0
-51808.8 -3580.4 20.6075 -0.865748 0.500479 0.000121664
-51808.8 -3580.4 19.6075 -0.865748 0.500479 0.000121659
-51792.6 -3552.24 19.6072 -0.865748 0.500479 0.000121654
-51792.6 -3552.24 20.6072 -0.865748 0.500479 0.000121656
-51792.3 -3551.72 20.6072 -0.865748 0.500479 0.000121654
-51792.3 -3551.72 3.5042 0 0 0
-51788.9 -3592.6 3.50169 -0.500386 -0.865803 1.10829e-05
-51788.9 -3592.61 20.6047 -0.500386 -0.865803 1.10863e-05
-51809.1 -3580.92 20.6075 -0.500386 -0.865803 1.10898e-05
-51809.1 -3580.92 3.50449 -0.500386 -0.865803 1.10863e-05
-51788.9 -3592.6 3.50169 0 0 0
-51772 -3563.4 20.6044 0.500343 0.865827 -5.78938e-06
-51772 -3563.4 12.8944 0.500343 0.865827 -5.78889e-06
-51772.6 -3563.1 12.8945 0.500343 0.865827 -5.79153e-06
-51772.6 -3563.1 10.8945 0.500343 0.865827 -5.78741e-06
-51787.3 -3554.58 10.8965 0.500343 0.865827 -5.79408e-06
-51787.3 -3554.58 9.38151 0.944169 -0.329462 -0.000119704
-51787.3 -3554.58 8.98151 0.500343 0.865827 -5.79452e-06
-51787.3 -3554.58 3.50351 0.500343 0.865827 -5.79399e-06
-51792.3 -3551.72 3.5042 0.500343 0.865827 -5.79506e-06
-51792.3 -3551.72 20.6072 0.500343 0.865827 -5.79267e-06
-51772 -3563.4 20.6044 0 0 0
-51792.6 -3552.24 20.6072 -0.500343 -0.865827 5.89024e-06
-51792.6 -3552.24 19.6072 -0.500343 -0.865827 5.88576e-06
-51772.9 -3563.62 19.6045 -0.500343 -0.865827 5.88127e-06
-51772.9 -3563.62 20.6045 -0.500343 -0.865827 5.88576e-06
-51792.6 -3552.24 20.6072 0 0 0
-51789.1 -3591.79 20.6048 0.500386 0.865803 -1.09857e-05
-51789.1 -3591.79 19.6048 0.500386 0.865803 -1.09906e-05
-51808.8 -3580.4 19.6075 0.500386 0.865803 -1.09955e-05
-51808.8 -3580.4 20.6075 0.500386 0.865803 -1.09906e-05
-51789.1 -3591.79 20.6048 0 0 0
-51772.9 -3563.62 20.6045 -0.865747 0.500482 0.000118082
-51772.9 -3563.62 19.6045 -0.865747 0.500482 0.000118085
-51789.1 -3591.79 19.6048 -0.865747 0.500482 0.000118089
-51789.1 -3591.79 20.6048 -0.865747 0.500482 0.000118085
-51772.9 -3563.62 20.6045 0 0 0
3 5 0 1
3 1 2 3
3 4 5 1
3 1 3 4
3 10 7 8
3 8 9 10
3 15 12 13
3 13 14 15
3 22 17 18
3 18 19 20
3 21 22 18
3 18 20 21
3 27 24 25
3 25 26 27
3 32 29 30
3 30 31 32
3 37 34 35
3 35 36 37
3 41 45 46
3 46 40 41
3 50 51 49
3 56 53 55
3 60 61 59
3 63 64 65
3 75 76 77
3 77 78 79
3 80 81 63
3 63 65 66
3 75 77 79
3 80 63 66
3 80 66 67
3 75 79 80
3 80 67 69
3 71 75 80
3 80 69 71
3 87 83 84
3 84 85 86
3 86 87 84
3 96 94 92
3 100 98 96
3 91 100 96
3 104 105 103
3 110 107 108
3 108 109 110
3 115 112 113
3 113 114 115
3 120 117 118
3 118 119 120
3 126 123 125
3 128 129 132
3 134 135 137
3 141 142 140
3 145 146 149
3 156 151 152
3 152 153 154
3 154 155 156
3 156 152 154
3 163 164 165
3 163 165 158
3 162 163 158
3 162 158 159
3 162 159 161
3 170 167 168
3 168 169 170
3 172 173 174
3 174 175 176
3 176 177 178
3 178 179 180
3 181 172 174
3 176 178 180
3 181 174 176
3 176 180 181
3 186 183 184
3 184 185 186
3 191 188 189
3 189 190 191
3 196 193 194
3 194 195 196
