ply
format ascii 1.0
comment Created by Open3D
element vertex 171
property double x
property double y
property double z
property double nx
property double ny
property double nz
element face 75
property list uchar uint vertex_indices
end_header
-51835.8 -3433.64 3.81575 -0.000115486 7.36596e-05 -1
-51832.6 -3435.39 3.81526 -0.000114884 7.3389e-05 -1
-51828.4 -3437.83 3.8146 -0.000114547 7.34185e-05 -1
-51831.9 -3443.89 3.81455 -0.000114768 7.34494e-05 -1
-51833 -3443.28 3.81472 -0.000115512 7.32946e-05 -1
-51834.7 -3446.32 3.8147 -0.000115674 7.31162e-05 -1
-51845.9 -3439.88 3.81646 -0.000115675 7.31127e-05 -1
-51844.2 -3436.89 3.81648 -0.000115652 7.35975e-05 -1
-51845.3 -3436.24 3.81666 -0.000116236 7.43755e-05 -1
-51841.8 -3430.17 3.8167 -0.000115876 7.42484e-05 -1
-51835.8 -3433.64 3.81575 0 0 0
-51833 -3436.01 12.8593 -0.578584 0.33335 0.744391
-51832.6 -3435.39 12.8593 -0.578584 0.33335 0.744391
-51833.3 -3435.83 12.5352 -0.578584 0.33335 0.744391
-51833 -3436.01 12.8593 0 0 0
-51833.3 -3435.83 12.5352 -0.578543 0.333222 0.74448
-51832.6 -3435.39 12.8593 -0.578543 0.333222 0.74448
-51835.8 -3433.64 9.63475 0 0 0
-51836.1 -3434.21 9.63475 -0.578543 0.333222 0.74448
-51833.3 -3435.83 12.5352 0 0 0
-51845.3 -3436.24 9.63566 0.000116236 -7.43756e-05 1
-51844.2 -3436.89 9.63548 0.000116361 -7.44199e-05 1
-51841 -3431.39 9.63552 0.000116022 -7.47802e-05 1
-51836.1 -3434.21 9.63475 0 0 0
-51835.8 -3433.64 9.63475 0.000115165 -7.53388e-05 1
-51841.8 -3430.17 9.6357 0.000116111 -7.46124e-05 1
-51845.3 -3436.24 9.63566 0 0 0
-51844.2 -3434.31 4.80567 0.000116545 -7.41209e-05 1
-51844.7 -3434 4.80576 0.000117238 -7.42968e-05 1
-51847.5 -3438.9 4.80573 0.000116879 -7.3842e-05 1
-51845.9 -3439.86 4.80546 0.000116688 -7.36949e-05 1
-51844.2 -3436.89 4.80548 0.000116676 -7.36739e-05 1
-51845.3 -3436.24 4.80566 0.000116963 -7.39868e-05 1
-51844.2 -3434.31 4.80567 0 0 0
-51844.1 -3434.24 7.22067 0.000116605 -7.41681e-05 1
-51845.4 -3433.5 7.22088 0.000116954 -7.41511e-05 1
-51848.2 -3438.39 7.22085 0.000116868 -7.38603e-05 1
-51845.8 -3439.78 7.22046 0.000116744 -7.37313e-05 1
-51844.2 -3436.89 7.22048 0.000116727 -7.36851e-05 1
-51845.3 -3436.24 7.22066 0.000116883 -7.39998e-05 1
-51844.1 -3434.24 7.22067 0 0 0
-51832.6 -3435.39 12.8593 0 0 0
-51833 -3436.01 12.8593 0.000114051 -7.44761e-05 1
-51829.8 -3437.83 12.8588 0.000114163 -7.33538e-05 1
-51833 -3443.28 12.8587 0.000114324 -7.32249e-05 1
-51831.9 -3443.89 12.8586 0.00011418 -7.31757e-05 1
-51828.4 -3437.83 12.8586 0.000114051 -7.34428e-05 1
-51832.6 -3435.39 12.8593 0 0 0
-51829.8 -3437.83 14.0588 0.000115426 -7.3542e-05 1
-51841 -3431.39 14.0605 0.000115428 -7.3541e-05 1
-51845.9 -3439.88 14.0605 0.000115431 -7.354e-05 1
-51834.7 -3446.32 14.0587 0.000115428 -7.3541e-05 1
-51829.8 -3437.83 14.0588 0 0 0
-51832.6 -3435.39 12.8593 0.487236 0.87327 8.85328e-06
-51832.6 -3435.39 3.81526 0.487236 0.87327 8.85267e-06
-51835.8 -3433.64 3.81575 0.487236 0.87327 8.85173e-06
-51835.8 -3433.64 9.63475 0.487236 0.87327 8.85267e-06
-51832.6 -3435.39 12.8593 0 0 0
-51845.3 -3436.24 3.81666 0 0 0
-51845.3 -3436.24 4.45566 -0.866595 0.499012 0.000137904
-51844.2 -3434.31 4.45567 0 0 0
-51844.2 -3434.31 4.80567 -0.866595 0.499012 0.000137916
-51845.3 -3436.24 4.80566 -0.866595 0.499012 0.000137919
-51845.3 -3436.24 6.87066 -0.866595 0.499012 0.000137916
-51844.1 -3434.24 6.87067 -0.866595 0.499012 0.00013792
-51844.1 -3434.24 7.22067 -0.866595 0.499012 0.000137916
-51845.3 -3436.24 7.22066 -0.866595 0.499012 0.000137917
-51845.3 -3436.24 9.63566 -0.866595 0.499012 0.000137915
-51841.8 -3430.17 9.6357 -0.866595 0.499012 0.000137917
-51841.8 -3430.17 3.8167 -0.866595 0.499012 0.000137914
-51845.3 -3436.24 3.81666 0 0 0
-51845.3 -3436.24 4.45566 -0.49894 -0.866637 -5.90659e-06
-51845.3 -3436.24 3.81666 -0.49894 -0.866637 -5.90749e-06
-51844.2 -3436.89 3.81648 -0.49894 -0.866637 -5.90839e-06
-51844.2 -3436.89 4.45548 -0.49894 -0.866637 -5.90749e-06
-51845.3 -3436.24 4.45566 0 0 0
-51835.8 -3433.64 9.63475 0.499043 0.866577 6.99549e-06
-51835.8 -3433.64 3.81575 0.499043 0.866577 6.99409e-06
-51841.8 -3430.17 3.8167 0.499043 0.866577 6.99269e-06
-51841.8 -3430.17 9.6357 0.499043 0.866577 6.99409e-06
-51835.8 -3433.64 9.63475 0 0 0
-51844.2 -3436.89 4.80548 -0.49894 -0.866637 -5.91315e-06
-51844.2 -3436.89 6.87048 -0.49894 -0.866637 -5.91373e-06
-51845.3 -3436.24 6.87066 -0.49894 -0.866637 -5.91431e-06
-51845.3 -3436.24 4.80566 -0.49894 -0.866637 -5.91373e-06
-51844.2 -3436.89 4.80548 0 0 0
-51844.2 -3436.89 7.22048 -0.49894 -0.866637 -5.9126e-06
-51844.2 -3436.89 9.63548 -0.49894 -0.866637 -5.91426e-06
-51845.3 -3436.24 9.63566 -0.49894 -0.866637 -5.91591e-06
-51845.3 -3436.24 7.22066 -0.49894 -0.866637 -5.91426e-06
-51844.2 -3436.89 7.22048 0 0 0
-51844.2 -3434.31 4.45567 0 0 0
-51844.7 -3434 4.45576 0.499001 0.866602 6.24478e-06
-51844.7 -3434 4.80576 0.499001 0.866602 6.24478e-06
-51844.2 -3434.31 4.80567 0.499001 0.866602 6.24478e-06
-51844.2 -3434.31 4.45567 0 0 0
-51847.5 -3438.9 4.45573 0 0 0
-51847.5 -3438.9 4.80573 -0.866522 0.499139 0.000138013
-51844.7 -3434 4.80576 -0.866522 0.499139 0.000138013
-51844.7 -3434 4.45576 -0.866522 0.499139 0.000138013
-51847.5 -3438.9 4.45573 0 0 0
-51845.9 -3439.86 4.80546 0 0 0
-51847.5 -3438.9 4.80573 -0.498899 -0.86666 -5.36794e-06
-51847.5 -3438.9 4.45573 -0.498899 -0.86666 -5.36794e-06
-51845.9 -3439.86 4.45546 -0.498899 -0.86666 -5.36794e-06
-51845.9 -3439.86 4.80546 0 0 0
-51844.1 -3434.24 6.87067 0.499124 0.86653 6.24938e-06
-51845.4 -3433.5 6.87088 0 0 0
-51845.4 -3433.5 7.22088 0.499124 0.86653 6.24938e-06
-51844.1 -3434.24 7.22067 0.499124 0.86653 6.24938e-06
-51844.1 -3434.24 6.87067 0 0 0
-51845.4 -3433.5 6.87088 -0.866448 0.499267 0.00013816
-51848.2 -3438.39 6.87085 0 0 0
-51848.2 -3438.39 7.22085 -0.866448 0.499267 0.00013816
-51845.4 -3433.5 7.22088 -0.866448 0.499267 0.00013816
-51845.4 -3433.5 6.87088 0 0 0
-51845.8 -3439.78 7.22046 -0.498898 -0.86666 -5.39342e-06
-51848.2 -3438.39 7.22085 -0.498898 -0.86666 -5.38822e-06
-51848.2 -3438.39 6.87085 -0.498898 -0.86666 -5.38302e-06
-51845.8 -3439.78 6.87046 -0.498898 -0.86666 -5.38822e-06
-51845.8 -3439.78 7.22046 0 0 0
-51833 -3443.28 3.81472 -0.499147 -0.866517 -5.89133e-06
-51831.9 -3443.89 3.81455 -0.499147 -0.866517 -5.89193e-06
-51831.9 -3443.89 12.8586 -0.499147 -0.866517 -5.89253e-06
-51833 -3443.28 12.8587 -0.499147 -0.866517 -5.89193e-06
-51833 -3443.28 3.81472 0 0 0
-51831.9 -3443.89 3.81455 0.866545 -0.4991 -0.000135494
-51828.4 -3437.83 3.8146 0.866545 -0.4991 -0.000135493
-51828.4 -3437.83 12.8586 0.866545 -0.4991 -0.000135491
-51831.9 -3443.89 12.8586 0.866545 -0.4991 -0.000135493
-51831.9 -3443.89 3.81455 0 0 0
-51828.4 -3437.83 12.8586 0.499085 0.866553 6.99888e-06
-51828.4 -3437.83 3.8146 0.499085 0.866553 6.99851e-06
-51832.6 -3435.39 3.81526 0.499085 0.866553 6.99815e-06
-51832.6 -3435.39 12.8593 0.499085 0.866553 6.99851e-06
-51828.4 -3437.83 12.8586 0 0 0
-51841 -3431.39 14.0605 -0.866535 0.499116 0.000137714
-51841 -3431.39 9.63552 -0.866535 0.499116 0.000137714
-51844.2 -3436.89 9.63548 -0.866535 0.499116 0.000137715
-51844.2 -3436.89 7.22048 -0.866535 0.499116 0.000137715
-51845.8 -3439.78 7.22046 -0.866535 0.499116 0.000137716
-51845.8 -3439.78 6.87046 -0.866535 0.499116 0.000137716
-51844.2 -3436.89 6.87048 -0.866535 0.499116 0.000137715
-51844.2 -3436.89 4.80548 -0.866535 0.499116 0.000137715
-51845.9 -3439.86 4.80546 0 0 0
-51845.9 -3439.86 4.45546 0 0 0
-51844.2 -3436.89 4.45548 -0.866535 0.499116 0.000137717
-51844.2 -3436.89 3.81648 -0.866535 0.499116 0.000137715
-51845.9 -3439.88 3.81646 -0.866535 0.499116 0.000137717
-51845.9 -3439.88 14.0605 -0.866535 0.499116 0.000137715
-51841 -3431.39 14.0605 0 0 0
-51834.7 -3446.32 3.8147 -0.498993 -0.866606 -5.36651e-06
-51834.7 -3446.32 14.0587 -0.498993 -0.866606 -5.36437e-06
-51845.9 -3439.88 14.0605 -0.498993 -0.866606 -5.36223e-06
-51845.9 -3439.88 3.81646 -0.498993 -0.866606 -5.36437e-06
-51834.7 -3446.32 3.8147 0 0 0
-51829.8 -3437.83 12.8588 0.866542 -0.499103 -0.000135688
-51829.8 -3437.83 14.0588 0.866542 -0.499103 -0.000135688
-51834.7 -3446.32 14.0587 0.866542 -0.499103 -0.000135687
-51834.7 -3446.32 3.8147 0.866542 -0.499103 -0.000135687
-51833 -3443.28 3.81472 0.866542 -0.499103 -0.000135687
-51833 -3443.28 12.8587 0.866542 -0.499103 -0.000135687
-51829.8 -3437.83 12.8588 0 0 0
-51829.8 -3437.83 14.0588 0.498992 0.866607 6.90506e-06
-51829.8 -3437.83 12.8588 0.498992 0.866607 6.90376e-06
-51833 -3436.01 12.8593 0 0 0
-51833.3 -3435.83 12.5352 0.498992 0.866607 6.89976e-06
-51836.1 -3434.21 9.63475 0.498992 0.866607 6.89908e-06
-51841 -3431.39 9.63552 0.498992 0.866607 6.8989e-06
-51841 -3431.39 14.0605 0.498992 0.866607 6.90051e-06
-51829.8 -3437.83 14.0588 0 0 0
3 1 2 3
3 4 5 6
3 7 8 9
3 0 1 3
3 4 6 7
3 7 9 0
3 0 3 4
3 4 7 0
3 13 11 12
3 15 16 18
3 25 20 21
3 25 21 22
3 25 22 24
3 32 27 28
3 29 30 31
3 32 28 29
3 29 31 32
3 39 34 35
3 36 37 38
3 39 35 36
3 36 38 39
3 43 44 45
3 43 45 46
3 43 46 42
3 51 48 49
3 49 50 51
3 56 53 54
3 54 55 56
3 62 63 64
3 65 66 67
3 65 67 68
3 64 65 68
3 62 64 68
3 69 59 61
3 61 62 68
3 68 69 61
3 74 71 72
3 72 73 74
3 79 76 77
3 77 78 79
3 84 81 82
3 82 83 84
3 89 86 87
3 87 88 89
3 93 94 92
3 98 99 97
3 103 104 102
3 109 106 108
3 114 111 113
3 119 116 117
3 117 118 119
3 124 121 122
3 122 123 124
3 129 126 127
3 127 128 129
3 134 131 132
3 132 133 134
3 149 136 137
3 138 139 140
3 141 142 143
3 146 147 148
3 149 137 138
3 149 138 140
3 149 140 141
3 141 146 148
3 154 151 152
3 152 153 154
3 161 156 157
3 158 159 160
3 161 157 158
3 158 160 161
3 169 163 164
3 167 168 169
3 169 164 166
3 166 167 169
