ply
format ascii 1.0
comment Created by Open3D
element vertex 93
property double x
property double y
property double z
property double nx
property double ny
property double nz
element face 42
property list uchar uint vertex_indices
end_header
-51832.6 -3435.39 3.756 0 0 -1
-51828.4 -3437.83 3.756 0 0 -1
-51831.9 -3443.89 3.756 0 0 -1
-51833 -3443.28 3.756 0 0 -1
-51834.7 -3446.32 3.756 0 0 -1
-51845.9 -3439.87 3.756 0 0 -1
-51847.5 -3438.9 3.756 0 0 0
-51847.5 -3438.82 3.756 0 0 0
-51848.2 -3438.39 3.756 0 0 -1
-51845.4 -3433.5 3.756 0 0 -1
-51844.1 -3434.24 3.756 0 0 -1
-51841.8 -3430.17 3.756 0 0 -1
-51835.8 -3433.64 3.756 0 0 -1
-51832.6 -3435.39 3.756 0 0 0
-51832.6 -3435.39 3.756 0.499085 0.866553 0
-51832.6 -3435.39 13.44 0.499085 0.866553 0
-51828.4 -3437.83 13.44 0.499085 0.866553 0
-51828.4 -3437.83 3.756 0.499085 0.866553 0
-51832.6 -3435.39 3.756 0 0 0
-51828.4 -3437.83 3.756 0.86659 -0.49902 0
-51828.4 -3437.83 13.44 0.86659 -0.49902 0
-51831.9 -3443.89 13.44 0.86659 -0.49902 0
-51831.9 -3443.89 3.756 0.86659 -0.49902 0
-51828.4 -3437.83 3.756 0 0 0
-51831.9 -3443.89 3.756 -0.499142 -0.86652 0
-51831.9 -3443.89 13.44 -0.499142 -0.86652 0
-51833 -3443.28 13.44 -0.499142 -0.86652 0
-51833 -3443.28 3.756 -0.499142 -0.86652 0
-51831.9 -3443.89 3.756 0 0 0
-51833 -3443.28 3.756 0.866539 -0.49911 0
-51833 -3443.28 13.44 0.866539 -0.49911 0
-51834.7 -3446.32 13.44 0.866539 -0.49911 0
-51834.7 -3446.32 3.756 0.866539 -0.49911 0
-51833 -3443.28 3.756 0 0 0
-51834.7 -3446.32 3.756 -0.499875 -0.866097 0
-51834.7 -3446.32 13.44 -0.499875 -0.866097 0
-51845.9 -3439.87 13.44 -0.499875 -0.866097 0
-51845.9 -3439.87 3.756 -0.499875 -0.866097 0
-51834.7 -3446.32 3.756 0 0 0
-51845.9 -3439.87 3.756 -0.50476 -0.86326 0
-51845.9 -3439.87 13.44 -0.50476 -0.86326 0
-51847.5 -3438.9 13.44 -0.50476 -0.86326 0
-51847.5 -3438.9 3.756 -0.50476 -0.86326 0
-51845.9 -3439.87 3.756 0 0 0
-51847.5 -3438.9 3.756 0 0 0
-51847.5 -3438.9 13.44 -0.866622 0.498964 0
-51847.5 -3438.82 13.44 -0.866622 0.498964 0
-51847.5 -3438.82 3.756 -0.866622 0.498964 0
-51847.5 -3438.9 3.756 0 0 0
-51847.5 -3438.82 3.756 0 0 0
-51847.5 -3438.82 13.44 -0.498864 -0.86668 0
-51848.2 -3438.39 13.44 -0.498864 -0.86668 0
-51848.2 -3438.39 3.756 -0.498864 -0.86668 0
-51847.5 -3438.82 3.756 0 0 0
-51848.2 -3438.39 3.756 -0.866452 0.49926 0
-51848.2 -3438.39 13.44 -0.866452 0.49926 0
-51845.4 -3433.5 13.44 -0.866452 0.49926 0
-51845.4 -3433.5 3.756 -0.866452 0.49926 0
-51848.2 -3438.39 3.756 0 0 0
-51845.4 -3433.5 3.756 0.499116 0.866535 0
-51845.4 -3433.5 13.44 0.499116 0.866535 0
-51844.1 -3434.24 13.44 0.499116 0.866535 0
-51844.1 -3434.24 3.756 0.499116 0.866535 0
-51845.4 -3433.5 3.756 0 0 0
-51844.1 -3434.24 3.756 -0.866591 0.499019 0
-51844.1 -3434.24 13.44 -0.866591 0.499019 0
-51841.8 -3430.17 13.44 -0.866591 0.499019 0
-51841.8 -3430.17 3.756 -0.866591 0.499019 0
-51844.1 -3434.24 3.756 0 0 0
-51841.8 -3430.17 3.756 0.499049 0.866574 0
-51841.8 -3430.17 13.44 0.499049 0.866574 0
-51835.8 -3433.64 13.44 0.499049 0.866574 0
-51835.8 -3433.64 3.756 0.499049 0.866574 0
-51841.8 -3430.17 3.756 0 0 0
-51835.8 -3433.64 3.756 0.48725 0.873262 0
-51835.8 -3433.64 13.44 0.48725 0.873262 0
-51832.6 -3435.39 13.44 0.48725 0.873262 0
-51832.6 -3435.39 3.756 0.48725 0.873262 0
-51835.8 -3433.64 3.756 0 0 0
-51832.6 -3435.39 13.44 0 0 1
-51835.8 -3433.64 13.44 0 0 1
-51841.8 -3430.17 13.44 0 0 1
-51844.1 -3434.24 13.44 0 0 1
-51845.4 -3433.5 13.44 0 0 1
-51848.2 -3438.39 13.44 0 0 0
-51847.5 -3438.82 13.44 0 0 0
-51847.5 -3438.9 13.44 0 0 1
-51845.9 -3439.87 13.44 0 0 1
-51834.7 -3446.32 13.44 0 0 1
-51833 -3443.28 13.44 0 0 1
-51831.9 -3443.89 13.44 0 0 1
-51828.4 -3437.83 13.44 0 0 1
-51832.6 -3435.39 13.44 0 0 0
3 12 0 1
3 1 2 3
3 3 4 5
3 10 11 12
3 12 1 3
3 10 12 3
3 9 10 3
3 9 3 5
3 9 5 8
3 17 14 15
3 15 16 17
3 22 19 20
3 20 21 22
3 27 24 25
3 25 26 27
3 32 29 30
3 30 31 32
3 37 34 35
3 35 36 37
3 42 39 40
3 40 41 42
3 46 47 45
3 51 52 50
3 57 54 55
3 55 56 57
3 62 59 60
3 60 61 62
3 67 64 65
3 65 66 67
3 72 69 70
3 70 71 72
3 77 74 75
3 75 76 77
3 91 79 80
3 80 81 82
3 87 88 89
3 89 90 91
3 91 80 82
3 87 89 91
3 87 91 82
3 87 82 83
3 87 83 86
