ply
format ascii 1.0
comment Created by Open3D
element vertex 311
property double x
property double y
property double z
property double nx
property double ny
property double nz
element face 139
property list uchar uint vertex_indices
end_header
-51804.3 -3514.13 3.32072 -0.000110854 6.0965e-05 -1
-51793.5 -3520.38 3.31916 -0.00010999 6.00589e-05 -1
-51802.4 -3535.73 3.31922 -0.00011076 5.99917e-05 -1
-51823.6 -3523.43 3.32232 -0.000111198 6.00545e-05 -1
-51817.4 -3512.79 3.32227 0 0 0
-51817.5 -3512.78 3.32227 -0.000111179 6.18589e-05 -1
-51808.5 -3497.38 3.32225 -0.000110827 6.29725e-05 -1
-51798.1 -3503.45 3.32071 -0.000110474 6.30626e-05 -1
-51804.3 -3514.13 3.32072 0 0 0
-51801.2 -3515.91 14.0603 0.000110621 -6.21128e-05 1
-51800.7 -3515.11 14.0603 0.000110621 -6.21128e-05 1
-51813.4 -3507.75 14.0621 0 0 0
-51813.9 -3508.55 14.0621 0.000110621 -6.21128e-05 1
-51801.2 -3515.91 14.0603 0 0 0
-51793.5 -3520.38 15.8442 0.000110811 -6.05347e-05 1
-51814.7 -3508.08 15.8473 0.000110815 -6.05327e-05 1
-51823.6 -3523.43 15.8473 0.000110819 -6.05308e-05 1
-51802.4 -3535.73 15.8442 0.000110815 -6.05327e-05 1
-51793.5 -3520.38 15.8442 0 0 0
-51794.5 -3519.79 15.5343 0.00010871 -6.10221e-05 1
-51793.9 -3518.79 15.5343 0.00010871 -6.10217e-05 1
-51795.8 -3517.71 15.5346 0.00010871 -6.10213e-05 1
-51796.3 -3518.71 15.5346 0.00010871 -6.10217e-05 1
-51794.5 -3519.79 15.5343 0 0 0
-51804.8 -3504.83 10.8964 0.000110407 -6.32033e-05 1
-51806.5 -3503.81 10.8966 0.000110411 -6.32012e-05 1
-51807.1 -3504.87 10.8966 0.000110415 -6.3199e-05 1
-51805.4 -3505.89 10.8964 0.000110411 -6.32012e-05 1
-51804.8 -3504.83 10.8964 0 0 0
-51800.6 -3507.24 8.89575 0.000109688 -6.30021e-05 1
-51798.9 -3504.27 8.89575 0.000109504 -6.31036e-05 1
-51799.8 -3503.74 8.89588 0.000109361 -6.30707e-05 1
-51800.7 -3505.36 8.89588 0.000109865 -6.30833e-05 1
-51804 -3503.44 8.89637 0.000110193 -6.32724e-05 1
-51803.1 -3501.82 8.89637 0.000110124 -6.36052e-05 1
-51804.3 -3501.16 8.89654 0.000110203 -6.35982e-05 1
-51805.7 -3503.59 8.89654 0.000110415 -6.32409e-05 1
-51810.2 -3500.94 8.89721 0.000110749 -6.35623e-05 1
-51810.6 -3501.47 8.89721 0.00011062 -6.36635e-05 1
-51806.5 -3503.81 8.89662 -0.501295 -0.865273 0.00249883
-51804.8 -3504.83 8.89636 0.000110058 -6.33458e-05 1
-51800.6 -3507.24 8.89575 0 0 0
-51798.9 -3504.27 8.89575 0.000109335 -6.33945e-05 1
-51798.5 -3503.56 8.89575 0.000109556 -6.38185e-05 1
-51803.8 -3500.44 8.89654 0.000109688 -6.35912e-05 1
-51804.3 -3501.16 8.89654 0.000109467 -6.40477e-05 1
-51803.1 -3501.82 8.89637 -0.501295 -0.86524 -0.00792766
-51799.8 -3503.74 8.89588 0.000109224 -6.43929e-05 1
-51798.9 -3504.27 8.89575 0 0 0
-51807.1 -3504.87 8.89662 0.000110797 -6.33973e-05 1
-51806.5 -3503.81 8.89662 0.000110863 -6.34677e-05 1
-51810.6 -3501.47 8.89721 0.000110886 -6.34928e-05 1
-51811.7 -3503.46 8.89722 0.000111008 -6.34528e-05 1
-51809 -3505.05 8.89681 0.000110818 -6.33236e-05 1
-51805.7 -3506.97 8.89632 0.000110097 -6.28912e-05 1
-51801.8 -3509.23 8.89575 0.000109963 -6.28509e-05 1
-51800.6 -3507.24 8.89575 0.000109957 -6.28765e-05 1
-51804.8 -3504.83 8.89636 0.000109943 -6.29336e-05 1
-51805.4 -3505.89 8.89636 0.000110197 -6.29069e-05 1
-51807.1 -3504.87 8.89662 0 0 0
-51804.5 -3513.98 8.89576 0.000110748 -6.25993e-05 1
-51801.8 -3509.23 8.89575 0.000110718 -6.20834e-05 1
-51805.7 -3506.97 8.89632 0.000110128 -6.25657e-05 1
-51806.6 -3508.59 8.89633 0.000110883 -6.08154e-05 1
-51809.9 -3506.67 8.89681 0.0001113 -6.26974e-05 1
-51809 -3505.05 8.89681 0.000111173 -6.31685e-05 1
-51811.7 -3503.46 8.89722 0.000111387 -6.30484e-05 1
-51814.5 -3508.22 8.89722 0.000110964 -6.22097e-05 1
-51804.5 -3513.98 8.89576 0 0 0
-51804.5 -3513.98 9.49576 0 0 0
-51804.3 -3514.13 9.49572 0.000110472 -6.30616e-05 1
-51798.1 -3503.45 9.49571 0.000110472 -6.30616e-05 1
-51808.5 -3497.38 9.49725 0 0 0
-51808.5 -3497.41 9.49725 0.000110472 -6.30616e-05 1
-51803.7 -3500.21 9.49654 0.000109638 -6.36775e-05 1
-51803.8 -3500.44 9.49654 0.000109638 -6.36775e-05 1
-51798.5 -3503.56 9.49575 0.000109638 -6.36775e-05 1
-51804.5 -3513.98 9.49576 0 0 0
-51814.7 -3508.08 9.49726 0 0 0
-51814.5 -3508.22 9.49722 0.000122033 -6.89047e-05 1
-51810.2 -3500.94 9.49721 0 0 0
-51810.5 -3500.79 9.49725 0.000122033 -6.89047e-05 1
-51817.5 -3512.78 9.49727 0.000122033 -6.89047e-05 1
-51817.4 -3512.8 9.49727 0 0 0
-51814.7 -3508.08 9.49726 0 0 0
-51805.7 -3506.97 12.2013 0.000110693 -6.28992e-05 1
-51809 -3505.05 12.2018 0.000110694 -6.28985e-05 1
-51809.9 -3506.67 12.2018 0.000110695 -6.28979e-05 1
-51806.6 -3508.59 12.2013 0.000110694 -6.28985e-05 1
-51805.7 -3506.97 12.2013 0 0 0
-51799.8 -3503.74 11.3859 0.000109774 -6.34014e-05 1
-51803.1 -3501.82 11.3864 0.000109774 -6.34016e-05 1
-51804 -3503.44 11.3864 0.000109774 -6.34018e-05 1
-51800.7 -3505.36 11.3859 0.000109774 -6.34016e-05 1
-51799.8 -3503.74 11.3859 0 0 0
-51808.5 -3497.41 12.1973 0.000110589 -6.38832e-05 1
-51810.5 -3500.79 12.1973 0.000110589 -6.38849e-05 1
-51805.7 -3503.59 12.1965 0.000110589 -6.38867e-05 1
-51803.7 -3500.21 12.1965 0.000110589 -6.38849e-05 1
-51808.5 -3497.41 12.1973 0 0 0
-51800.7 -3515.11 13.6603 0.501318 0.865263 -1.65226e-06
-51813.4 -3507.75 13.6621 0 0 0
-51813.4 -3507.75 14.0621 0.501318 0.865263 -1.65226e-06
-51800.7 -3515.11 14.0603 0.501318 0.865263 -1.65226e-06
-51800.7 -3515.11 13.6603 0 0 0
-51813.9 -3508.55 14.0621 0 0 0
-51813.4 -3507.75 14.0621 -0.865322 0.501217 0.000127968
-51813.4 -3507.75 13.6621 -0.865322 0.501217 0.000127968
-51813.9 -3508.55 13.6621 -0.865322 0.501217 0.000127968
-51813.9 -3508.55 14.0621 0 0 0
-51801.2 -3515.91 13.6603 0 0 0
-51800.7 -3515.11 13.6603 0.865192 -0.501441 -0.000125679
-51800.7 -3515.11 14.0603 0.865192 -0.501441 -0.000125679
-51801.2 -3515.91 14.0603 0.865192 -0.501441 -0.000125679
-51801.2 -3515.91 13.6603 0 0 0
-51814.7 -3508.08 15.8473 0.501348 0.865246 -1.9898e-06
-51793.5 -3520.38 15.8442 0.501348 0.865246 -1.782e-06
-51793.5 -3520.38 14.0592 0.501348 0.865246 -1.77981e-06
-51801.2 -3515.91 14.0603 0.501348 0.865246 -1.79223e-06
-51813.9 -3508.55 14.0621 0.501348 0.865246 -1.79942e-06
-51813.9 -3508.55 13.6621 0.501348 0.865246 -1.79108e-06
-51801.2 -3515.91 13.6603 0.501348 0.865246 -1.78714e-06
-51793.5 -3520.38 13.6592 0.501348 0.865246 -1.78634e-06
-51793.5 -3520.38 3.31916 0.501348 0.865246 -1.78743e-06
-51804.3 -3514.13 3.32072 0.501348 0.865246 -1.78916e-06
-51804.3 -3514.13 9.49572 0.501348 0.865246 -1.78822e-06
-51804.5 -3513.98 9.49576 0.501348 0.865246 -1.79106e-06
-51814.5 -3508.22 9.49722 0.501348 0.865245 0.00142247
-51814.7 -3508.08 9.49726 0.501348 0.865246 -1.79435e-06
-51814.7 -3508.08 15.1373 0.501348 0.865246 -1.7951e-06
-51796.3 -3518.71 15.1346 0.501348 0.865246 -1.78782e-06
-51794.5 -3519.79 15.1343 0.501348 0.865246 -1.78045e-06
-51794.5 -3519.79 15.5343 0.501348 0.865246 -1.90435e-06
-51796.3 -3518.71 15.5346 0.501348 0.865246 -1.9898e-06
-51814.7 -3508.08 15.5373 0 0 0
-51814.7 -3508.08 15.8473 0 0 0
-51817.4 -3512.79 3.32227 -0.865225 0.501383 0.000128132
-51823.6 -3523.43 3.32232 -0.865225 0.501383 0.000128134
-51823.6 -3523.43 15.8473 -0.865225 0.501383 0.000128133
-51814.7 -3508.08 15.8473 0 0 0
-51814.7 -3508.08 15.5373 -0.865225 0.501383 0.000128128
-51814.7 -3508.08 15.1373 -0.865225 0.501383 0.00012813
-51814.7 -3508.08 9.49726 -0.865225 0.501383 0.000128129
-51817.4 -3512.8 9.49727 -0.865225 0.501383 0.000128132
-51817.4 -3512.79 3.32227 0 0 0
-51823.6 -3523.43 15.8473 -0.501311 -0.865267 4.5694e-06
-51823.6 -3523.43 3.32232 -0.501311 -0.865267 4.56592e-06
-51802.4 -3535.73 3.31922 -0.501311 -0.865267 4.56244e-06
-51802.4 -3535.73 15.8442 -0.501311 -0.865267 4.56592e-06
-51823.6 -3523.43 15.8473 0 0 0
-51802.4 -3535.73 15.8442 0.865187 -0.501449 -0.000124279
-51802.4 -3535.73 3.31922 0.865187 -0.501449 -0.000124277
-51793.5 -3520.38 3.31916 0.865187 -0.501449 -0.000124274
-51793.5 -3520.38 13.6592 0 0 0
-51793.5 -3520.38 14.0592 0.617458 -0.786604 -0.00011474
-51793.5 -3520.38 15.8442 0.865187 -0.501449 -0.000124277
-51802.4 -3535.73 15.8442 0 0 0
-51796.3 -3518.71 15.1346 0.501348 0.865246 -1.78005e-06
-51814.7 -3508.08 15.1373 0.501348 0.865246 -1.77828e-06
-51814.7 -3508.08 15.5373 0.501348 0.865246 -1.7765e-06
-51796.3 -3518.71 15.5346 0.501348 0.865246 -1.77828e-06
-51796.3 -3518.71 15.1346 0 0 0
-51801.2 -3515.91 14.0603 0.501348 0.865246 -1.79133e-06
-51793.5 -3520.38 14.0592 0.501348 0.865246 -1.7927e-06
-51793.5 -3520.38 13.6592 0.501348 0.865246 -1.79407e-06
-51801.2 -3515.91 13.6603 0.501348 0.865246 -1.7927e-06
-51801.2 -3515.91 14.0603 0 0 0
-51804.5 -3513.98 9.49576 0.501348 0.865246 -1.80743e-06
-51804.5 -3513.98 8.89576 0.501348 0.865246 -1.79708e-06
-51814.5 -3508.22 8.89722 0.501348 0.865246 -1.78673e-06
-51814.5 -3508.22 9.49722 0.501348 0.865246 -1.79708e-06
-51804.5 -3513.98 9.49576 0 0 0
-51793.9 -3518.79 15.1343 0.501335 0.865253 -1.59583e-06
-51795.8 -3517.71 15.1346 0 0 0
-51795.8 -3517.71 15.5346 0.501335 0.865253 -1.59583e-06
-51793.9 -3518.79 15.5343 0.501335 0.865253 -1.59583e-06
-51793.9 -3518.79 15.1343 0 0 0
-51796.3 -3518.71 15.5346 -0.865046 0.501693 0.000124799
-51795.8 -3517.71 15.5346 -0.865046 0.501693 0.000124803
-51795.8 -3517.71 15.1346 -0.865046 0.501693 0.000124808
-51796.3 -3518.71 15.1346 -0.865046 0.501693 0.000124803
-51796.3 -3518.71 15.5346 0 0 0
-51794.5 -3519.79 15.1343 0.865183 -0.501457 -0.000124449
-51793.9 -3518.79 15.1343 0.865183 -0.501457 -0.000124461
-51793.9 -3518.79 15.5343 0.865183 -0.501457 -0.000124473
-51794.5 -3519.79 15.5343 0.865183 -0.501457 -0.000124461
-51794.5 -3519.79 15.1343 0 0 0
-51806.5 -3503.81 8.89662 -0.865461 0.500977 0.000127348
-51807.1 -3504.87 8.89662 -0.865461 0.500977 0.000127349
-51807.1 -3504.87 10.8966 -0.865461 0.500977 0.00012735
-51806.5 -3503.81 10.8966 -0.865461 0.500977 0.000127349
-51806.5 -3503.81 8.89662 0 0 0
-51807.1 -3504.87 8.89662 -0.50172 -0.86503 8.14335e-07
-51805.4 -3505.89 8.89636 -0.50172 -0.86503 8.16908e-07
-51805.4 -3505.89 10.8964 -0.50172 -0.86503 8.19481e-07
-51807.1 -3504.87 10.8966 -0.50172 -0.86503 8.16908e-07
-51807.1 -3504.87 8.89662 0 0 0
-51805.4 -3505.89 8.89636 0.864759 -0.502188 -0.000127029
-51804.8 -3504.83 8.89636 0.864759 -0.502188 -0.000127031
-51804.8 -3504.83 10.8964 0.864759 -0.502188 -0.000127032
-51805.4 -3505.89 10.8964 0.864759 -0.502188 -0.000127031
-51805.4 -3505.89 8.89636 0 0 0
-51804.8 -3504.83 8.89636 0.501297 0.865275 -5.63077e-07
-51806.5 -3503.81 8.89662 0.501297 0.865275 -5.64418e-07
-51806.5 -3503.81 10.8966 0.501297 0.865275 -5.65759e-07
-51804.8 -3504.83 10.8964 0.501297 0.865275 -5.64418e-07
-51804.8 -3504.83 8.89636 0 0 0
-51804.5 -3513.98 9.49576 0 0 0
-51798.5 -3503.56 9.49575 -0.865195 0.501435 0.000126285
-51798.5 -3503.56 8.89575 0 0 0
-51798.9 -3504.27 8.89575 -0.865195 0.501435 0.000126279
-51800.6 -3507.24 8.89575 -0.865195 0.501435 0.000126273
-51801.8 -3509.23 8.89575 -0.865195 0.501435 0.000126287
-51804.5 -3513.98 8.89576 -0.865195 0.501435 0.000126296
-51804.5 -3513.98 9.49576 0 0 0
-51803.8 -3500.44 8.89654 0 0 0
-51798.5 -3503.56 8.89575 -0.501297 -0.865275 -1.06938e-07
-51798.5 -3503.56 9.49575 -0.501297 -0.865275 -1.06938e-07
-51803.8 -3500.44 9.49654 -0.501297 -0.865275 -1.06938e-07
-51803.8 -3500.44 8.89654 0 0 0
-51814.5 -3508.22 8.89722 0.865225 -0.501383 -0.000128081
-51811.7 -3503.46 8.89722 0.865225 -0.501383 -0.00012808
-51810.6 -3501.47 8.89721 0.865225 -0.501383 -0.00012809
-51810.2 -3500.94 8.89721 0.865225 -0.501383 -0.000128081
-51810.2 -3500.94 9.49721 0.865225 -0.501383 -0.00012808
-51814.5 -3508.22 9.49722 0.865225 -0.501383 -0.000128078
-51814.5 -3508.22 8.89722 0 0 0
-51798.1 -3503.45 9.49571 0.501297 0.865275 1.55824e-07
-51798.1 -3503.45 3.32071 0.501297 0.865275 1.52991e-07
-51808.5 -3497.38 3.32225 0.501297 0.865275 1.50158e-07
-51808.5 -3497.38 9.49725 0.501297 0.865275 1.52991e-07
-51798.1 -3503.45 9.49571 0 0 0
-51808.5 -3497.41 9.49725 0 0 0
-51808.5 -3497.38 9.49725 -0.865225 0.501383 0.000128129
-51808.5 -3497.38 3.32225 -0.865225 0.501383 0.000128132
-51817.5 -3512.78 3.32227 -0.865225 0.501383 0.000128133
-51817.5 -3512.78 9.49727 -0.865225 0.501383 0.000128132
-51810.5 -3500.79 9.49725 -0.865225 0.501383 0.000128129
-51810.5 -3500.79 12.1973 -0.865225 0.501383 0.000128128
-51808.5 -3497.41 12.1973 -0.865225 0.501383 0.000128127
-51808.5 -3497.41 9.49725 0 0 0
-51817.4 -3512.8 9.49727 -0.501276 -0.865287 2.63667e-06
-51817.5 -3512.78 9.49727 -0.501276 -0.865287 2.63667e-06
-51817.5 -3512.78 3.32227 0 0 0
-51817.4 -3512.79 3.32227 -0.501276 -0.865287 2.63667e-06
-51817.4 -3512.8 9.49727 0 0 0
-51804.3 -3514.13 3.32072 0.865195 -0.501435 -0.000126231
-51798.1 -3503.45 3.32071 0.865195 -0.501435 -0.000126229
-51798.1 -3503.45 9.49571 0.865195 -0.501435 -0.000126227
-51804.3 -3514.13 9.49572 0.865195 -0.501435 -0.000126229
-51804.3 -3514.13 3.32072 0 0 0
-51809.9 -3506.67 8.89681 -0.865381 0.501114 0.000127587
-51809.9 -3506.67 12.2018 -0.865381 0.501114 0.000127586
-51809 -3505.05 12.2018 -0.865381 0.501114 0.000127585
-51809 -3505.05 8.89681 -0.865381 0.501114 0.000127586
-51809.9 -3506.67 8.89681 0 0 0
-51806.6 -3508.59 12.2013 -0.501421 -0.865203 1.23454e-06
-51809.9 -3506.67 12.2018 -0.501421 -0.865203 1.23527e-06
-51809.9 -3506.67 8.89681 -0.501421 -0.865203 1.236e-06
-51806.6 -3508.59 8.89633 -0.501421 -0.865203 1.23527e-06
-51806.6 -3508.59 12.2013 0 0 0
-51805.7 -3506.97 12.2013 0.865164 -0.501488 -0.000126985
-51806.6 -3508.59 12.2013 0.865164 -0.501488 -0.000126985
-51806.6 -3508.59 8.89633 0.865164 -0.501488 -0.000126985
-51805.7 -3506.97 8.89632 0.865164 -0.501488 -0.000126985
-51805.7 -3506.97 12.2013 0 0 0
-51809 -3505.05 12.2018 0.501314 0.865266 -9.26364e-07
-51805.7 -3506.97 12.2013 0.501314 0.865266 -9.25424e-07
-51805.7 -3506.97 8.89632 0.501314 0.865266 -9.24483e-07
-51809 -3505.05 8.89681 0.501314 0.865266 -9.25424e-07
-51809 -3505.05 12.2018 0 0 0
-51803.1 -3501.82 8.89637 -0.865164 0.501489 0.000127042
-51804 -3503.44 8.89637 -0.865164 0.501489 0.000127041
-51804 -3503.44 11.3864 -0.865164 0.501489 0.00012704
-51803.1 -3501.82 11.3864 -0.865164 0.501489 0.000127041
-51803.1 -3501.82 8.89637 0 0 0
-51804 -3503.44 8.89637 -0.501311 -0.865267 3.20892e-07
-51800.7 -3505.36 8.89588 -0.501311 -0.865267 3.19166e-07
-51800.7 -3505.36 11.3859 -0.501311 -0.865267 3.1744e-07
-51804 -3503.44 11.3864 -0.501311 -0.865267 3.19166e-07
-51804 -3503.44 8.89637 0 0 0
-51800.7 -3505.36 8.89588 0.865167 -0.501484 -0.000126443
-51799.8 -3503.74 8.89588 0.865167 -0.501484 -0.000126442
-51799.8 -3503.74 11.3859 0.865167 -0.501484 -0.000126441
-51800.7 -3505.36 11.3859 0.865167 -0.501484 -0.000126442
-51800.7 -3505.36 8.89588 0 0 0
-51799.8 -3503.74 8.89588 0.50131 0.865268 -2.37711e-08
-51803.1 -3501.82 8.89637 0.50131 0.865268 -2.60942e-08
-51803.1 -3501.82 11.3864 0.50131 0.865268 -2.84173e-08
-51799.8 -3503.74 11.3859 0.50131 0.865268 -2.60942e-08
-51799.8 -3503.74 8.89588 0 0 0
-51805.7 -3503.59 12.1965 -0.501175 -0.865346 4.44431e-07
-51810.5 -3500.79 12.1973 -0.501175 -0.865346 4.4657e-07
-51810.5 -3500.79 9.49725 -0.501175 -0.865346 4.46876e-07
-51810.2 -3500.94 9.49721 0 0 0
-51810.2 -3500.94 8.89721 -0.501175 -0.865346 4.35902e-07
-51805.7 -3503.59 8.89654 -0.501175 -0.865346 4.45648e-07
-51805.7 -3503.59 12.1965 0 0 0
-51805.7 -3503.59 8.89654 0.865174 -0.501472 -0.000127252
-51804.3 -3501.16 8.89654 0.865174 -0.501472 -0.000127251
-51803.8 -3500.44 8.89654 0 0 0
-51803.8 -3500.44 9.49654 0 0 0
-51803.7 -3500.21 9.49654 0.865174 -0.501472 -0.000127251
-51803.7 -3500.21 12.1965 0.865174 -0.501472 -0.000127251
-51805.7 -3503.59 12.1965 0.865174 -0.501472 -0.000127251
-51805.7 -3503.59 8.89654 0 0 0
-51808.5 -3497.41 12.1973 0.501304 0.865271 1.43479e-07
-51803.7 -3500.21 12.1965 0.501304 0.865271 1.45025e-07
-51803.7 -3500.21 9.49654 0.501304 0.865271 1.4657e-07
-51808.5 -3497.41 9.49725 0.501304 0.865271 1.45025e-07
-51808.5 -3497.41 12.1973 0 0 0
3 0 1 2
3 6 7 0
3 0 2 3
3 0 3 5
3 5 6 0
3 9 10 12
3 17 14 15
3 15 16 17
3 22 19 20
3 20 21 22
3 27 24 25
3 25 26 27
3 29 30 31
3 33 34 35
3 36 37 38
3 38 39 40
3 29 31 32
3 33 35 36
3 36 38 40
3 40 29 32
3 32 33 36
3 36 40 32
3 47 42 43
3 43 44 45
3 45 46 47
3 47 43 45
3 49 50 51
3 51 52 53
3 54 55 56
3 56 57 58
3 49 51 53
3 54 56 58
3 58 49 53
3 53 54 58
3 67 60 61
3 61 62 63
3 64 65 66
3 67 61 63
3 64 66 67
3 67 63 64
3 74 75 76
3 70 71 73
3 82 79 81
3 88 85 86
3 86 87 88
3 93 90 91
3 91 92 93
3 98 95 96
3 96 97 98
3 103 100 102
3 107 108 106
3 112 113 111
3 121 122 123
3 123 124 125
3 126 127 128
3 121 123 125
3 121 125 126
3 120 121 126
3 120 126 128
3 120 128 129
3 119 120 129
3 118 119 129
3 118 129 130
3 117 118 130
3 117 130 131
3 116 117 131
3 116 131 132
3 132 133 115
3 143 136 137
3 141 142 143
3 143 137 138
3 141 143 138
3 141 138 140
3 148 145 146
3 146 147 148
3 155 150 151
3 155 151 152
3 155 152 154
3 160 157 158
3 158 159 160
3 165 162 163
3 163 164 165
3 170 167 168
3 168 169 170
3 175 172 174
3 180 177 178
3 178 179 180
3 185 182 183
3 183 184 185
3 190 187 188
3 188 189 190
3 195 192 193
3 193 194 195
3 200 197 198
3 198 199 200
3 205 202 203
3 203 204 205
3 208 210 211
3 212 213 208
3 208 211 212
3 217 218 216
3 225 220 221
3 222 223 224
3 224 225 221
3 221 222 224
3 230 227 228
3 228 229 230
3 234 235 236
3 237 238 239
3 234 236 237
3 237 239 233
3 233 234 237
3 241 242 244
3 249 246 247
3 247 248 249
3 254 251 252
3 252 253 254
3 259 256 257
3 257 258 259
3 264 261 262
3 262 263 264
3 269 266 267
3 267 268 269
3 274 271 272
3 272 273 274
3 279 276 277
3 277 278 279
3 284 281 282
3 282 283 284
3 289 286 287
3 287 288 289
3 296 291 292
3 296 292 293
3 296 293 295
3 304 298 299
3 303 304 299
3 303 299 302
3 309 306 307
3 307 308 309
