ply
format ascii 1.0
comment Created by Open3D
element vertex 101
property double x
property double y
property double z
property double nx
property double ny
property double nz
element face 39
property list uchar uint vertex_indices
end_header
-51834.9 -3496.39 3.434 0 0 0
-51834.7 -3496.57 3.434 0 0 -1
-51827.1 -3499.27 3.434 0 0 -1
-51826.5 -3497.75 3.434 0 0 -1
-51822 -3499.57 3.434 0 0 -1
-51822.5 -3500.87 3.434 0 0 -1
-51819.8 -3501.83 3.434 0 0 -1
-51825.5 -3517.34 3.434 0 0 0
-51825.5 -3517.33 3.434 0 0 0
-51825.5 -3517.48 3.434 0 0 0
-51825.8 -3517.48 3.434 0 0 0
-51826.3 -3517.04 3.434 0 0 -1
-51837.4 -3513.13 3.434 0 0 -1
-51840.7 -3511.95 3.434 0 0 0
-51841.1 -3511.81 3.434 0 0 -1
-51835.5 -3496.3 3.434 0 0 0
-51835.1 -3496.44 3.434 0 0 0
-51834.9 -3496.39 3.434 0 0 0
-51834.9 -3496.39 3.434 0.609661 0.792662 0
-51834.9 -3496.39 17.164 0 0 0
-51834.7 -3496.57 17.164 0.609661 0.792662 0
-51834.7 -3496.57 3.434 0.609661 0.792662 0
-51834.9 -3496.39 3.434 0 0 0
-51834.7 -3496.57 3.434 0.333679 0.942687 0
-51834.7 -3496.57 17.164 0.333679 0.942687 0
-51827.1 -3499.27 17.164 0.333679 0.942687 0
-51827.1 -3499.27 3.434 0.333679 0.942687 0
-51834.7 -3496.57 3.434 0 0 0
-51827.1 -3499.27 3.434 -0.929742 0.368212 0
-51827.1 -3499.27 17.164 -0.929742 0.368212 0
-51826.5 -3497.75 17.164 -0.929742 0.368212 0
-51826.5 -3497.75 3.434 -0.929742 0.368212 0
-51827.1 -3499.27 3.434 0 0 0
-51826.5 -3497.75 3.434 0.378203 0.925723 0
-51826.5 -3497.75 17.164 0.378203 0.925723 0
-51822 -3499.57 17.164 0.378203 0.925723 0
-51822 -3499.57 3.434 0.378203 0.925723 0
-51826.5 -3497.75 3.434 0 0 0
-51822 -3499.57 3.434 0.929801 -0.368063 0
-51822 -3499.57 17.164 0.929801 -0.368063 0
-51822.5 -3500.87 17.164 0.929801 -0.368063 0
-51822.5 -3500.87 3.434 0.929801 -0.368063 0
-51822 -3499.57 3.434 0 0 0
-51822.5 -3500.87 3.434 0.333719 0.942673 0
-51822.5 -3500.87 17.164 0.333719 0.942673 0
-51819.8 -3501.83 17.164 0.333719 0.942673 0
-51819.8 -3501.83 3.434 0.333719 0.942673 0
-51822.5 -3500.87 3.434 0 0 0
-51819.8 -3501.83 3.434 0.939508 -0.342526 0
-51819.8 -3501.83 17.164 0.939508 -0.342526 0
-51825.5 -3517.34 17.164 0.939508 -0.342526 0
-51825.5 -3517.34 3.434 0.939508 -0.342526 0
-51819.8 -3501.83 3.434 0 0 0
-51825.8 -3517.48 3.434 -0.644812 -0.764341 0
-51825.8 -3517.48 17.164 -0.644812 -0.764341 0
-51826.3 -3517.04 17.164 -0.644812 -0.764341 0
-51826.3 -3517.04 3.434 -0.644812 -0.764341 0
-51825.8 -3517.48 3.434 0 0 0
-51826.3 -3517.04 3.434 -0.333725 -0.94267 0
-51826.3 -3517.04 17.164 -0.333725 -0.94267 0
-51837.4 -3513.13 17.164 -0.333725 -0.94267 0
-51837.4 -3513.13 3.434 -0.333725 -0.94267 0
-51826.3 -3517.04 3.434 0 0 0
-51837.4 -3513.13 3.434 -0.333223 -0.942848 0
-51837.4 -3513.13 17.164 -0.333223 -0.942848 0
-51840.7 -3511.95 17.164 -0.333223 -0.942848 0
-51840.7 -3511.95 3.434 -0.333223 -0.942848 0
-51837.4 -3513.13 3.434 0 0 0
-51840.7 -3511.95 3.434 -0.338333 -0.941027 0
-51840.7 -3511.95 17.164 -0.338333 -0.941027 0
-51841.1 -3511.81 17.164 -0.338333 -0.941027 0
-51841.1 -3511.81 3.434 -0.338333 -0.941027 0
-51840.7 -3511.95 3.434 0 0 0
-51841.1 -3511.81 3.434 -0.939479 0.342607 0
-51841.1 -3511.81 17.164 -0.939479 0.342607 0
-51835.5 -3496.3 17.164 -0.939479 0.342607 0
-51835.5 -3496.3 3.434 -0.939479 0.342607 0
-51841.1 -3511.81 3.434 0 0 0
-51835.5 -3496.3 3.434 0.333755 0.94266 0
-51835.5 -3496.3 17.164 0.333755 0.94266 0
-51835.1 -3496.44 17.164 0.333755 0.94266 0
-51835.1 -3496.44 3.434 0.333755 0.94266 0
-51835.5 -3496.3 3.434 0 0 0
-51834.9 -3496.39 17.164 0 0 0
-51835.1 -3496.44 17.164 0 0 0
-51835.5 -3496.3 17.164 0 0 1
-51841.1 -3511.81 17.164 0 0 0
-51840.7 -3511.95 17.164 0 0 1
-51837.4 -3513.13 17.164 0 0 1
-51826.3 -3517.04 17.164 0 0 0
-51825.8 -3517.48 17.164 0 0 0
-51825.5 -3517.48 17.164 0 0 0
-51825.5 -3517.33 17.164 0 0 0
-51825.5 -3517.34 17.164 0 0 1
-51819.8 -3501.83 17.164 0 0 1
-51822.5 -3500.87 17.164 0 0 1
-51822 -3499.57 17.164 0 0 1
-51826.5 -3497.75 17.164 0 0 1
-51827.1 -3499.27 17.164 0 0 1
-51834.7 -3496.57 17.164 0 0 0
-51834.9 -3496.39 17.164 0 0 0
3 2 3 4
3 2 4 5
3 2 5 6
3 12 14 1
3 1 2 6
3 6 11 12
3 12 1 6
3 21 18 20
3 26 23 24
3 24 25 26
3 31 28 29
3 29 30 31
3 36 33 34
3 34 35 36
3 41 38 39
3 39 40 41
3 46 43 44
3 44 45 46
3 51 48 49
3 49 50 51
3 56 53 54
3 54 55 56
3 61 58 59
3 59 60 61
3 66 63 64
3 64 65 66
3 71 68 69
3 69 70 71
3 76 73 74
3 74 75 76
3 81 78 79
3 79 80 81
3 95 96 97
3 95 97 98
3 94 95 98
3 88 93 94
3 94 98 85
3 85 87 88
3 88 94 85
