ply
format ascii 1.0
comment Created by Open3D
element vertex 184
property double x
property double y
property double z
property double nx
property double ny
property double nz
element face 129
property list uchar uint vertex_indices
end_header
-51800.9 -3352.63 7.313 0 0 1
-51799.3 -3353.58 7.313 0 0 1
-51799.8 -3354.49 7.313 0 0 1
-51796.5 -3356.42 7.313 0 0 1
-51796 -3355.51 7.313 0 0 1
-51794.3 -3356.49 7.313 0 0 1
-51790.6 -3350.12 7.313 0 0 1
-51792.2 -3349.15 7.313 0 0 0
-51791.8 -3348.43 7.313 0 0 1
-51795.1 -3346.5 7.313 0 0 0
-51795.5 -3347.22 7.313 0 0 1
-51797.2 -3346.27 7.313 0 0 1
-51800.9 -3352.63 7.313 0 0 0
-51781.5 -3407.41 10.383 0 0 1
-51781.5 -3406.54 10.383 0 0 1
-51783.7 -3405.45 10.383 0 0 1
-51786.1 -3405.21 10.383 0 0 1
-51788.8 -3405.54 10.383 0 0 1
-51791.3 -3406.67 10.383 0 0 1
-51793.3 -3405.51 10.383 0 0 1
-51796.5 -3405.17 10.383 0 0 1
-51799 -3405.71 10.383 0 0 1
-51800.6 -3406.88 10.383 0 0 1
-51800.6 -3407.83 10.383 0 0 1
-51813.7 -3408.12 10.383 0 0 1
-51812.8 -3452.23 10.383 0 0 1
-51800.2 -3451.95 10.383 0 0 1
-51800.2 -3452.55 10.383 0 0 1
-51797.8 -3453.69 10.383 0 0 1
-51795.2 -3454.01 10.383 0 0 1
-51792.5 -3453.53 10.383 0 0 1
-51790.7 -3452.27 10.383 0 0 1
-51788.3 -3453.31 10.383 0 0 1
-51785.7 -3453.63 10.383 0 0 1
-51783 -3453.15 10.383 0 0 1
-51781 -3451.76 10.383 0 0 1
-51781 -3451.53 10.383 0 0 1
-51765.5 -3451.19 10.383 0 0 1
-51766.5 -3407.08 10.383 0 0 1
-51781.5 -3407.41 10.383 0 0 0
-51780 -3538.73 19.469 0 0 1
-51778.6 -3539.5 19.469 0 0 1
-51781.4 -3544.42 19.469 0 0 1
-51783 -3543.55 19.469 0 0 1
-51785.9 -3548.9 19.469 0 0 1
-51784.5 -3549.7 19.469 0 0 1
-51787.3 -3554.58 19.469 0 0 1
-51792.3 -3551.72 19.469 0 0 1
-51809.1 -3580.92 19.469 0 0 1
-51788.9 -3592.6 19.469 0 0 1
-51772 -3563.4 19.469 0 0 1
-51754 -3532.25 19.469 0 0 1
-51769.3 -3523.43 19.469 0 0 1
-51769.4 -3523.68 19.469 0 0 1
-51771 -3522.84 19.469 0 0 1
-51773.9 -3528.19 19.469 0 0 1
-51772.5 -3528.97 19.469 0 0 1
-51775.5 -3534.21 19.469 0 0 1
-51777 -3533.38 19.469 0 0 1
-51780 -3538.73 19.469 0 0 0
-51814.4 -3638.58 18.515 0 0 1
-51779.8 -3658.77 18.515 0 0 1
-51775.8 -3651.79 18.515 0 0 0
-51775.9 -3651.71 18.515 0 0 0
-51769 -3639.75 18.515 0 0 1
-51738.6 -3587.73 18.515 0 0 1
-51738.9 -3587.59 18.515 0 0 1
-51732.2 -3576.16 18.515 0 0 1
-51720.2 -3555.55 18.515 0 0 0
-51720.2 -3555.53 18.515 0 0 1
-51716.9 -3549.79 18.515 0 0 1
-51738.8 -3536.92 18.515 0 0 -1
-51745.6 -3532.9 18.515 0 0 -1
-51748.8 -3531.03 18.515 0 0 -1
-51750.9 -3529.77 18.515 0 0 1
-51814.4 -3638.58 18.515 0 0 0
-51832.6 -3435.39 13.44 0 0 1
-51835.8 -3433.64 13.44 0 0 1
-51841.8 -3430.17 13.44 0 0 1
-51844.1 -3434.24 13.44 0 0 1
-51845.4 -3433.5 13.44 0 0 1
-51848.2 -3438.39 13.44 0 0 0
-51847.5 -3438.82 13.44 0 0 0
-51847.5 -3438.9 13.44 0 0 1
-51845.9 -3439.87 13.44 0 0 1
-51834.7 -3446.32 13.44 0 0 1
-51833 -3443.28 13.44 0 0 1
-51831.9 -3443.89 13.44 0 0 1
-51828.4 -3437.83 13.44 0 0 1
-51832.6 -3435.39 13.44 0 0 0
-51834.9 -3496.39 17.164 0 0 0
-51835.1 -3496.44 17.164 0 0 0
-51835.5 -3496.3 17.164 0 0 1
-51841.1 -3511.81 17.164 0 0 0
-51840.7 -3511.95 17.164 0 0 1
-51837.4 -3513.13 17.164 0 0 1
-51826.3 -3517.04 17.164 0 0 0
-51825.8 -3517.48 17.164 0 0 0
-51825.5 -3517.48 17.164 0 0 0
-51825.5 -3517.33 17.164 0 0 0
-51825.5 -3517.34 17.164 0 0 1
-51819.8 -3501.83 17.164 0 0 1
-51822.5 -3500.87 17.164 0 0 1
-51822 -3499.57 17.164 0 0 1
-51826.5 -3497.75 17.164 0 0 1
-51827.1 -3499.27 17.164 0 0 1
-51834.7 -3496.57 17.164 0 0 0
-51834.9 -3496.39 17.164 0 0 0
-51832.7 -3550.17 23.308 0 0 1
-51833.2 -3549.88 23.308 0 0 1
-51837.4 -3556.92 23.308 0 0 1
-51836.2 -3557.67 23.308 0 0 1
-51838.2 -3560.97 23.308 0 0 1
-51836.7 -3561.83 23.308 0 0 1
-51835.8 -3564.93 23.308 0 0 0
-51835.2 -3565.27 23.308 0 0 -1
-51835.3 -3565.47 23.308 0 0 1
-51820 -3574.68 23.308 0 0 1
-51818.1 -3571.47 23.308 0 0 0
-51818.2 -3571.38 23.308 0 0 1
-51817 -3569.38 23.308 0 0 1
-51811.7 -3572.58 23.308 0 0 1
-51811.4 -3572.83 23.308 0 0 1
-51807.8 -3574.92 23.308 0 0 0
-51807.6 -3574.61 23.308 0 0 1
-51807.4 -3574.25 23.308 0 0 1
-51807.4 -3574.2 23.308 0 0 1
-51810.7 -3572.26 23.308 0 0 1
-51811.1 -3571.93 23.308 0 0 0
-51810.9 -3571.62 23.308 0 0 0
-51810.8 -3571.44 23.308 0 0 1
-51808.3 -3572.97 23.308 0 0 1
-51806.9 -3570.73 23.308 0 0 1
-51805.9 -3571.34 23.308 0 0 1
-51805.2 -3570.18 23.308 0 0 1
-51806.2 -3569.57 23.308 0 0 1
-51805.3 -3568.1 23.308 0 0 1
-51807.4 -3566.86 23.308 0 0 1
-51806.2 -3565.25 23.308 0 0 1
-51807 -3565.04 23.308 0 0 0
-51806.6 -3564.41 23.308 0 0 1
-51816 -3558.79 23.308 0 0 1
-51816.6 -3559.75 23.308 0 0 1
-51819 -3558.29 23.308 0 0 1
-51818.4 -3557.28 23.308 0 0 1
-51823.6 -3554.08 23.308 0 0 1
-51824.2 -3555.17 23.308 0 0 0
-51824.5 -3555.02 23.308 0 0 1
-51822 -3550.72 23.308 0 0 1
-51830.3 -3545.99 23.308 0 0 1
-51832.7 -3550.17 23.308 0 0 0
-51798.1 -3503.45 15.742 0 0 1
-51808.5 -3497.38 15.742 0 0 1
-51817.4 -3512.79 15.742 0 0 1
-51823.6 -3523.43 15.742 0 0 1
-51802.4 -3535.73 15.742 0 0 1
-51793.5 -3520.38 15.742 0 0 1
-51794.5 -3519.79 15.742 0 0 1
-51793.9 -3518.79 15.742 0 0 1
-51795.8 -3517.71 15.742 0 0 1
-51796.3 -3518.71 15.742 0 0 1
-51801.2 -3515.91 15.742 0 0 1
-51800.7 -3515.11 15.742 0 0 1
-51803.8 -3513.34 15.742 0 0 1
-51798.1 -3503.45 15.742 0 0 0
-51773.2 -3350.28 10.8115 0 0 1
-51774.8 -3353.06 10.8115 0 0 0
-51775.2 -3352.8 10.8115 0 0 1
-51776.2 -3354.4 10.8115 0 0 1
-51780.6 -3351.61 10.8115 0 0 1
-51787.2 -3362.89 10.8115 0 0 1
-51782.6 -3365.77 10.8115 0 0 1
-51771.3 -3372.42 10.8115 0 0 1
-51763.7 -3359.53 10.8115 0 0 1
-51764 -3359.36 10.8115 0 0 1
-51762.4 -3356.57 10.8115 0 0 0
-51763.2 -3356.12 10.8115 0 0 1
-51773.1 -3350.33 10.8115 0 0 0
-51773.2 -3350.28 10.8115 0 0 0
-51847.1 -3450.92 10.44 0 0 1
-51840.4 -3454.81 10.44 0 0 1
-51835.9 -3447.02 10.44 0 0 1
-51842.6 -3443.12 10.44 0 0 1
-51847.1 -3450.92 10.44 0 0 0
3 11 0 1
3 1 2 3
3 4 5 6
3 11 1 3
3 11 3 4
3 11 4 6
3 6 8 10
3 10 11 6
3 13 14 15
3 16 17 18
3 18 19 20
3 20 21 22
3 23 24 25
3 26 27 28
3 28 29 30
3 32 33 34
3 34 35 36
3 36 37 38
3 13 15 16
3 18 20 22
3 23 25 26
3 26 28 30
3 31 32 34
3 34 36 38
3 13 16 18
3 18 22 23
3 23 26 30
3 31 34 38
3 13 18 23
3 23 30 31
3 31 38 13
3 13 23 31
3 58 40 41
3 42 43 44
3 46 47 48
3 48 49 50
3 50 51 52
3 53 54 55
3 57 58 41
3 42 44 45
3 46 48 50
3 50 52 53
3 53 55 56
3 57 41 42
3 42 45 46
3 50 53 56
3 57 42 46
3 50 56 57
3 57 46 50
3 74 60 61
3 64 65 66
3 72 73 74
3 71 72 74
3 70 71 74
3 66 67 69
3 69 70 74
3 74 61 64
3 66 69 74
3 74 64 66
3 88 76 77
3 77 78 79
3 84 85 86
3 86 87 88
3 88 77 79
3 84 86 88
3 84 88 79
3 84 79 80
3 84 80 83
3 102 103 104
3 102 104 105
3 101 102 105
3 95 100 101
3 101 105 92
3 92 94 95
3 95 101 92
3 108 109 110
3 111 112 113
3 125 126 127
3 132 133 134
3 135 136 137
3 143 144 145
3 148 149 108
3 108 110 111
3 132 134 135
3 148 108 111
3 132 135 137
3 148 111 113
3 131 132 137
3 130 131 137
3 137 138 140
3 140 141 142
3 143 145 147
3 147 148 113
3 113 115 116
3 116 117 119
3 121 122 124
3 124 125 127
3 130 137 140
3 140 142 143
3 143 147 113
3 113 116 119
3 121 124 127
3 130 140 143
3 143 113 119
3 120 121 127
3 143 119 120
3 120 127 130
3 130 143 120
3 163 151 152
3 153 154 155
3 155 156 157
3 157 158 159
3 161 162 163
3 163 152 153
3 153 155 157
3 157 159 160
3 161 163 153
3 153 157 160
3 160 161 153
3 168 169 170
3 171 172 173
3 168 170 171
3 171 173 174
3 168 171 174
3 176 165 167
3 167 168 174
3 174 176 167
3 182 179 180
3 180 181 182
