ply
format ascii 1.0
comment Created by Open3D
element vertex 127
property double x
property double y
property double z
property double nx
property double ny
property double nz
element face 47
property list uchar uint vertex_indices
end_header
-51776.2 -3354.4 3.54055 -0.000105656 8.54563e-05 -1
-51775.2 -3352.8 3.54059 -0.000104744 8.637e-05 -1
-51763.7 -3359.53 3.53881 -0.000105096 8.55185e-05 -1
-51771.3 -3372.42 3.5385 -0.00010544 8.54982e-05 -1
-51782.6 -3365.77 3.54026 0 0 0
-51782.6 -3365.78 3.54026 -8.29765e-05 0.000123554 -1
-51787.2 -3362.89 3.541 -0.000105891 8.56921e-05 -1
-51780.6 -3351.61 3.54127 -0.000106613 8.61308e-05 -1
-51776.2 -3354.4 3.54055 0 0 0
-51764 -3359.36 8.12285 0.000104532 -8.67061e-05 1
-51762.4 -3356.57 8.12293 0.000104533 -8.67046e-05 1
-51773.2 -3350.28 8.12459 0.000104533 -8.67031e-05 1
-51774.8 -3353.06 8.12452 0.000104533 -8.67046e-05 1
-51764 -3359.36 8.12285 0 0 0
-51782.7 -3365.71 10.4743 -0.084524 0.049509 0.995191
-51777.1 -3369.05 11.1234 -0.0845243 0.049509 0.995191
-51775.2 -3352.8 10.4696 -0.0845265 0.0495091 0.99519
-51776.2 -3354.4 10.4696 -0.0845265 0.0495091 0.99519
-51776.1 -3354.43 10.4745 -0.084524 0.049509 0.995191
-51782.7 -3365.71 10.4743 0 0 0
-51775.2 -3352.8 10.4696 -0.0850643 0.0495673 0.995142
-51777.1 -3369.05 11.1234 -0.0850643 0.0495673 0.995142
-51769.5 -3356.15 11.1237 -0.0850643 0.0495673 0.995142
-51775.2 -3352.8 10.4696 0 0 0
-51771.3 -3372.42 10.4675 0.0845542 -0.0493179 0.995198
-51769.5 -3356.15 11.1237 0.0845542 -0.0493179 0.995198
-51777.1 -3369.05 11.1234 0.0845542 -0.0493179 0.995198
-51771.3 -3372.42 10.4675 0 0 0
-51771.3 -3372.42 10.4675 0.0840405 -0.049264 0.995244
-51763.7 -3359.53 10.4678 0.0840405 -0.049264 0.995244
-51769.5 -3356.15 11.1237 0.0840405 -0.049264 0.995244
-51771.3 -3372.42 10.4675 0 0 0
-51782.6 -3365.77 10.4743 0 0 0
-51782.7 -3365.71 10.4743 0.00010657 -8.60773e-05 1
-51776.1 -3354.43 10.4745 0.000106589 -8.61027e-05 1
-51780.6 -3351.61 10.4753 0.000106609 -8.61282e-05 1
-51787.2 -3362.89 10.475 0.000106589 -8.61027e-05 1
-51782.6 -3365.78 10.4743 0 0 0
-51782.6 -3365.77 10.4743 0 0 0
-51774.8 -3353.06 8.12452 -0.862829 0.505496 0.000134969
-51773.2 -3350.28 8.12459 -0.862829 0.505496 0.000134972
-51773.2 -3350.28 7.77459 -0.862829 0.505496 0.000134974
-51774.8 -3353.06 7.77452 -0.862829 0.505496 0.000134972
-51774.8 -3353.06 8.12452 0 0 0
-51764 -3359.36 7.77285 0.862833 -0.505489 -0.000132996
-51763.2 -3357.88 7.77289 0.862833 -0.505489 -0.000133012
-51762.4 -3356.57 7.77293 0.862833 -0.505489 -0.00013303
-51762.4 -3356.57 8.12293 0.862833 -0.505489 -0.000133012
-51764 -3359.36 8.12285 0 0 0
-51764 -3359.36 7.77285 0 0 0
-51762.4 -3356.57 7.77293 0 0 0
-51763.2 -3356.12 7.77304 0.505398 0.862887 2.22405e-05
-51773.1 -3350.33 7.77458 0 0 0
-51773.2 -3350.28 7.77459 0 0 0
-51773.2 -3350.28 8.12459 0.505398 0.862887 2.22405e-05
-51762.4 -3356.57 8.12293 0.505398 0.862887 2.22405e-05
-51762.4 -3356.57 7.77293 0 0 0
-51763.7 -3359.53 10.4678 0.505449 0.862856 2.17256e-05
-51763.7 -3359.53 8.12281 0.505449 0.862856 2.17228e-05
-51764 -3359.36 8.12285 0.505449 0.862856 2.17205e-05
-51774.8 -3353.06 8.12452 0 0 0
-51774.8 -3353.06 7.77452 0.505449 0.862856 2.17169e-05
-51773.1 -3354.07 7.77425 0.505449 0.862856 2.17185e-05
-51764 -3359.36 7.77285 -0.50523 -0.862475 -0.029656
-51763.7 -3359.53 7.77281 0.505449 0.862856 2.17216e-05
-51763.7 -3359.53 3.53881 0.505449 0.862856 2.17245e-05
-51775.2 -3352.8 3.54059 0.505449 0.862856 2.17222e-05
-51775.2 -3352.8 10.4696 0.505449 0.862856 2.17204e-05
-51763.7 -3359.53 10.4678 0 0 0
-51769.5 -3356.15 11.1237 0.505448 0.862854 0.00214193
-51763.7 -3359.53 10.4678 0.505448 0.862854 0.00214193
-51775.2 -3352.8 10.4696 0.505448 0.862854 0.00214193
-51769.5 -3356.15 11.1237 0 0 0
-51771.3 -3372.42 3.5385 0.862809 -0.50553 -0.000132968
-51763.7 -3359.53 3.53881 0.862809 -0.50553 -0.000132966
-51763.7 -3359.53 7.77281 0.862809 -0.50553 -0.000132962
-51763.7 -3359.53 8.12281 0.862809 -0.50553 -0.000132964
-51763.7 -3359.53 10.4678 0.862809 -0.50553 -0.000132965
-51771.3 -3372.42 10.4675 0.862809 -0.50553 -0.000132966
-51771.3 -3372.42 3.5385 0 0 0
-51776.2 -3354.4 10.4696 -0.862769 0.505598 0.000135057
-51775.2 -3352.8 10.4696 -0.862769 0.505598 0.000135057
-51775.2 -3352.8 3.54059 -0.862769 0.505598 0.000135057
-51776.2 -3354.4 3.54055 -0.862769 0.505598 0.000135057
-51776.2 -3354.4 10.4696 0 0 0
-51782.6 -3365.77 3.54026 -0.505484 -0.862836 -1.93719e-05
-51771.3 -3372.42 3.5385 -0.505484 -0.862836 -1.93741e-05
-51771.3 -3372.42 10.4675 -0.505484 -0.862836 -1.93762e-05
-51782.6 -3365.77 10.4693 -0.505484 -0.862836 -1.93741e-05
-51782.6 -3365.77 3.54026 0 0 0
-51764 -3359.36 8.12285 0.505449 0.862856 2.1715e-05
-51763.7 -3359.53 8.12281 0.505449 0.862856 2.17128e-05
-51763.7 -3359.53 7.77281 0.505449 0.862856 2.17106e-05
-51764 -3359.36 7.77285 0.505449 0.862856 2.17128e-05
-51764 -3359.36 8.12285 0 0 0
-51780.6 -3351.61 10.4753 -0.862765 0.505605 0.000135882
-51780.6 -3351.61 3.54127 -0.862765 0.505605 0.000135884
-51787.2 -3362.89 3.541 -0.862765 0.505605 0.000135887
-51787.2 -3362.89 10.475 -0.862765 0.505605 0.000135884
-51780.6 -3351.61 10.4753 0 0 0
-51787.2 -3362.89 3.541 -0.532582 -0.846379 -1.50782e-05
-51782.6 -3365.78 3.54026 -0.532582 -0.846379 -1.50793e-05
-51782.6 -3365.78 10.4743 -0.532582 -0.846379 -1.50805e-05
-51787.2 -3362.89 10.475 -0.532582 -0.846379 -1.50793e-05
-51787.2 -3362.89 3.541 0 0 0
-51782.6 -3365.77 10.4743 0 0 0
-51782.6 -3365.78 10.4743 0.862806 -0.505536 -0.000135035
-51782.6 -3365.78 3.54026 0.862806 -0.505536 -0.000135035
-51782.6 -3365.77 3.54026 0.862806 -0.505536 -0.000135035
-51782.6 -3365.77 10.4693 0 0 0
-51782.6 -3365.77 10.4743 0 0 0
-51776.1 -3354.43 10.4745 0 0 0
-51776.2 -3354.4 10.4696 0.532508 0.846425 1.71436e-05
-51776.2 -3354.4 3.54055 0.532508 0.846425 1.7142e-05
-51780.6 -3351.61 3.54127 0.532508 0.846425 1.71404e-05
-51780.6 -3351.61 10.4753 0.532508 0.846425 1.7142e-05
-51776.1 -3354.43 10.4745 0 0 0
-51763.2 -3356.8 7.77299 0 0 0
-51763.2 -3356.8 3.53899 -0.499621 -0.866244 -2.30347e-05
-51763.1 -3356.85 3.53897 -0.499621 -0.866244 -2.30347e-05
-51763.1 -3356.85 7.77297 -0.499621 -0.866244 -2.30347e-05
-51763.2 -3356.8 7.77299 0 0 0
-51763 -3356.7 7.77298 0 0 0
-51763 -3356.7 3.53898 0.499621 0.866244 2.30614e-05
-51763.1 -3356.65 3.53899 0.499621 0.866244 2.30614e-05
-51763.1 -3356.65 7.77299 0.499621 0.866244 2.30614e-05
-51763 -3356.7 7.77298 0 0 0
3 0 1 2
3 6 7 0
3 0 2 3
3 6 0 3
3 6 3 5
3 12 9 10
3 10 11 12
3 18 14 15
3 15 16 17
3 22 20 21
3 26 24 25
3 30 28 29
3 34 35 36
3 34 36 33
3 42 39 40
3 40 41 42
3 45 46 47
3 45 47 44
3 55 51 54
3 57 58 59
3 62 63 64
3 64 65 66
3 67 57 59
3 62 64 66
3 67 59 61
3 61 62 66
3 66 67 61
3 71 69 70
3 78 73 74
3 76 77 78
3 78 74 75
3 75 76 78
3 83 80 81
3 81 82 83
3 88 85 86
3 86 87 88
3 93 90 91
3 91 92 93
3 98 95 96
3 96 97 98
3 103 100 101
3 101 102 103
3 107 108 106
3 113 114 115
3 113 115 112
3 119 120 118
3 124 125 123
