ply
format ascii 1.0
comment Created by Open3D
element vertex 93
property double x
property double y
property double z
property double nx
property double ny
property double nz
element face 48
property list uchar uint vertex_indices
end_header
-51798.1 -3503.45 3.27 0 0 -1
-51803.8 -3513.34 3.27 0 0 -1
-51800.7 -3515.11 3.27 0 0 -1
-51801.2 -3515.91 3.27 0 0 -1
-51796.3 -3518.71 3.27 0 0 -1
-51795.8 -3517.71 3.27 0 0 -1
-51793.9 -3518.79 3.27 0 0 -1
-51794.5 -3519.79 3.27 0 0 -1
-51793.5 -3520.38 3.27 0 0 -1
-51802.4 -3535.73 3.27 0 0 -1
-51823.6 -3523.43 3.27 0 0 -1
-51817.4 -3512.79 3.27 0 0 -1
-51808.5 -3497.38 3.27 0 0 -1
-51798.1 -3503.45 3.27 0 0 0
-51798.1 -3503.45 3.27 0.865215 -0.501401 0
-51798.1 -3503.45 15.742 0.865215 -0.501401 0
-51803.8 -3513.34 15.742 0.865215 -0.501401 0
-51803.8 -3513.34 3.27 0.865215 -0.501401 0
-51798.1 -3503.45 3.27 0 0 0
-51803.8 -3513.34 3.27 0.501305 0.865271 0
-51803.8 -3513.34 15.742 0.501305 0.865271 0
-51800.7 -3515.11 15.742 0.501305 0.865271 0
-51800.7 -3515.11 3.27 0.501305 0.865271 0
-51803.8 -3513.34 3.27 0 0 0
-51800.7 -3515.11 3.27 0.865193 -0.50144 0
-51800.7 -3515.11 15.742 0.865193 -0.50144 0
-51801.2 -3515.91 15.742 0.865193 -0.50144 0
-51801.2 -3515.91 3.27 0.865193 -0.50144 0
-51800.7 -3515.11 3.27 0 0 0
-51801.2 -3515.91 3.27 0.501352 0.865244 0
-51801.2 -3515.91 15.742 0.501352 0.865244 0
-51796.3 -3518.71 15.742 0.501352 0.865244 0
-51796.3 -3518.71 3.27 0.501352 0.865244 0
-51801.2 -3515.91 3.27 0 0 0
-51796.3 -3518.71 3.27 -0.865032 0.501717 0
-51796.3 -3518.71 15.742 -0.865032 0.501717 0
-51795.8 -3517.71 15.742 -0.865032 0.501717 0
-51795.8 -3517.71 3.27 -0.865032 0.501717 0
-51796.3 -3518.71 3.27 0 0 0
-51795.8 -3517.71 3.27 0.501316 0.865265 0
-51795.8 -3517.71 15.742 0.501316 0.865265 0
-51793.9 -3518.79 15.742 0.501316 0.865265 0
-51793.9 -3518.79 3.27 0.501316 0.865265 0
-51795.8 -3517.71 3.27 0 0 0
-51793.9 -3518.79 3.27 0.865151 -0.501512 0
-51793.9 -3518.79 15.742 0.865151 -0.501512 0
-51794.5 -3519.79 15.742 0.865151 -0.501512 0
-51794.5 -3519.79 3.27 0.865151 -0.501512 0
-51793.9 -3518.79 3.27 0 0 0
-51794.5 -3519.79 3.27 0.501364 0.865237 0
-51794.5 -3519.79 15.742 0.501364 0.865237 0
-51793.5 -3520.38 15.742 0.501364 0.865237 0
-51793.5 -3520.38 3.27 0.501364 0.865237 0
-51794.5 -3519.79 3.27 0 0 0
-51793.5 -3520.38 3.27 0.865164 -0.501489 0
-51793.5 -3520.38 15.742 0.865164 -0.501489 0
-51802.4 -3535.73 15.742 0.865164 -0.501489 0
-51802.4 -3535.73 3.27 0.865164 -0.501489 0
-51793.5 -3520.38 3.27 0 0 0
-51802.4 -3535.73 3.27 -0.501311 -0.865267 0
-51802.4 -3535.73 15.742 -0.501311 -0.865267 0
-51823.6 -3523.43 15.742 -0.501311 -0.865267 0
-51823.6 -3523.43 3.27 -0.501311 -0.865267 0
-51802.4 -3535.73 3.27 0 0 0
-51823.6 -3523.43 3.27 -0.865687 0.500586 0
-51823.6 -3523.43 15.742 -0.865687 0.500586 0
-51817.4 -3512.79 15.742 -0.865687 0.500586 0
-51817.4 -3512.79 3.27 -0.865687 0.500586 0
-51823.6 -3523.43 3.27 0 0 0
-51817.4 -3512.79 3.27 -0.865549 0.500825 0
-51817.4 -3512.79 15.742 -0.865549 0.500825 0
-51808.5 -3497.38 15.742 -0.865549 0.500825 0
-51808.5 -3497.38 3.27 -0.865549 0.500825 0
-51817.4 -3512.79 3.27 0 0 0
-51808.5 -3497.38 3.27 0.501294 0.865277 0
-51808.5 -3497.38 15.742 0.501294 0.865277 0
-51798.1 -3503.45 15.742 0.501294 0.865277 0
-51798.1 -3503.45 3.27 0.501294 0.865277 0
-51808.5 -3497.38 3.27 0 0 0
-51798.1 -3503.45 15.742 0 0 1
-51808.5 -3497.38 15.742 0 0 1
-51817.4 -3512.79 15.742 0 0 1
-51823.6 -3523.43 15.742 0 0 1
-51802.4 -3535.73 15.742 0 0 1
-51793.5 -3520.38 15.742 0 0 1
-51794.5 -3519.79 15.742 0 0 1
-51793.9 -3518.79 15.742 0 0 1
-51795.8 -3517.71 15.742 0 0 1
-51796.3 -3518.71 15.742 0 0 1
-51801.2 -3515.91 15.742 0 0 1
-51800.7 -3515.11 15.742 0 0 1
-51803.8 -3513.34 15.742 0 0 1
-51798.1 -3503.45 15.742 0 0 0
3 12 0 1
3 1 2 3
3 4 5 6
3 7 8 9
3 9 10 11
3 11 12 1
3 4 6 7
3 7 9 11
3 11 1 3
3 3 4 7
3 7 11 3
3 17 14 15
3 15 16 17
3 22 19 20
3 20 21 22
3 27 24 25
3 25 26 27
3 32 29 30
3 30 31 32
3 37 34 35
3 35 36 37
3 42 39 40
3 40 41 42
3 47 44 45
3 45 46 47
3 52 49 50
3 50 51 52
3 57 54 55
3 55 56 57
3 62 59 60
3 60 61 62
3 67 64 65
3 65 66 67
3 72 69 70
3 70 71 72
3 77 74 75
3 75 76 77
3 91 79 80
3 81 82 83
3 83 84 85
3 85 86 87
3 89 90 91
3 91 80 81
3 81 83 85
3 85 87 88
3 89 91 81
3 81 85 88
3 88 89 81
