ply
format ascii 1.0
comment Created by Open3D
element vertex 14
property double x
property double y
property double z
property double nx
property double ny
property double nz
element face 11
property list uchar uint vertex_indices
end_header
-51798.1 -3503.45 15.742 0 0 1
-51808.5 -3497.38 15.742 0 0 1
-51817.4 -3512.79 15.742 0 0 1
-51823.6 -3523.43 15.742 0 0 1
-51802.4 -3535.73 15.742 0 0 1
-51793.5 -3520.38 15.742 0 0 1
-51794.5 -3519.79 15.742 0 0 1
-51793.9 -3518.79 15.742 0 0 1
-51795.8 -3517.71 15.742 0 0 1
-51796.3 -3518.71 15.742 0 0 1
-51801.2 -3515.91 15.742 0 0 1
-51800.7 -3515.11 15.742 0 0 1
-51803.8 -3513.34 15.742 0 0 1
-51798.1 -3503.45 15.742 0 0 0
3 12 0 1
3 2 3 4
3 4 5 6
3 6 7 8
3 10 11 12
3 12 1 2
3 2 4 6
3 6 8 9
3 10 12 2
3 2 6 9
3 9 10 2
